<?xml version="1.0" standalone="no"?>
<!DOCTYPE svg PUBLIC "-//W3C//DTD SVG 20010904//EN"
 "http://www.w3.org/TR/2001/REC-SVG-20010904/DTD/svg10.dtd">
<svg version="1.0" xmlns="http://www.w3.org/2000/svg"
 width="700.000000pt" height="700.000000pt" viewBox="0 0 700.000000 700.000000"
 preserveAspectRatio="xMidYMid meet">
<metadata>
Created by potrace 1.14, written by Peter Selinger 2001-2017
</metadata>
<g transform="translate(0.000000,700.000000) scale(0.100000,-0.100000)"
fill="#000000" stroke="none">
<path d="M6440 6266 c-362 -138 -840 -429 -1195 -728 -274 -231 -534 -497
-768 -788 -305 -379 -603 -883 -819 -1385 -122 -282 -287 -762 -343 -995 -1
-8 -17 -71 -34 -139 -66 -260 -153 -735 -186 -1011 -2 -19 -6 -53 -9 -75 -9
-73 -19 -180 -18 -196 0 -8 12 -51 26 -95 14 -43 30 -101 37 -129 6 -27 16
-54 21 -60 6 -7 9 -7 7 0 -2 6 1 21 5 35 78 253 215 658 246 725 5 11 41 101
81 200 425 1064 960 1874 1504 2276 81 60 126 89 138 89 2 0 -99 -359 -225
-797 -205 -717 -228 -807 -233 -890 -2 -51 -2 -93 1 -93 10 0 282 568 419 875
7 17 31 68 53 115 36 78 153 336 274 605 27 61 60 133 73 160 13 28 50 111 83
185 33 74 74 165 91 203 17 37 31 69 31 71 0 2 16 39 36 83 61 131 80 175 114
253 42 97 53 122 144 323 42 93 76 170 76 173 0 2 13 32 29 66 46 102 63 141
181 408 62 140 120 273 130 295 10 22 37 83 59 135 23 52 46 103 52 113 6 11
9 20 7 22 -2 2 -41 -11 -88 -29z"/>
<path d="M530 4964 c0 -4 17 -39 39 -78 36 -67 72 -135 187 -354 27 -51 63
-119 79 -150 17 -31 70 -133 119 -227 49 -93 92 -174 96 -180 4 -5 40 -73 80
-150 40 -77 87 -167 105 -200 18 -33 60 -114 95 -180 34 -66 79 -151 100 -190
21 -38 63 -119 95 -180 32 -60 74 -141 95 -180 20 -38 60 -113 87 -165 82
-155 154 -291 190 -360 19 -36 38 -69 42 -73 8 -8 -11 157 -28 240 -43 211
-183 651 -250 782 -28 54 -27 63 7 49 32 -15 127 -77 162 -108 176 -154 315
-327 493 -617 32 -50 57 -94 57 -98 0 -4 9 -20 20 -35 26 -36 204 -393 265
-530 25 -58 52 -118 60 -135 23 -54 136 -339 152 -385 23 -70 30 -67 37 17 4
43 15 134 25 203 l18 125 -34 135 c-156 613 -391 1198 -665 1654 -377 625
-872 1081 -1393 1284 -129 50 -335 103 -335 86z"/>
</g>
</svg>
