<svg width="763" height="189" viewBox="0 0 763 189" fill="none" xmlns="http://www.w3.org/2000/svg">
<path d="M62.3038 168.083C63.0163 161.8 63.0163 161.8 63.808 150.506H65.4704C68.9538 150.506 71.6454 150.665 74.0996 150.983V142.234C71.6454 142.552 69.1121 142.712 65.4704 142.712H64.2829C64.4413 140.644 64.4413 140.644 64.5996 135.713C64.6788 133.565 64.8371 131.02 64.9954 128.077C65.2329 122.828 65.4704 119.488 65.6288 118.136C63.7288 118.374 62.383 118.454 58.3455 118.454H18.1291C15.3582 118.454 14.1708 118.374 12.6666 118.215C12.7458 120.124 12.7458 121.317 12.7458 121.874C12.7458 124.817 11.7958 135.474 10.9249 142.712H8.70828C5.06664 142.712 2.53332 142.552 0 142.234V150.983C2.53332 150.665 5.22497 150.506 8.70828 150.506H9.97494C8.39162 161.8 6.25413 171.423 3.08748 180.967L12.3499 181.842C13.1416 178.899 13.2999 178.343 13.8541 176.036H52.1705C51.1414 180.013 50.6664 180.41 46.8664 180.41C44.3331 180.41 42.5122 180.331 39.6623 179.933C39.1873 179.854 38.4748 179.774 37.4456 179.695C39.0289 182.876 39.6623 184.705 40.2164 187.887C42.6706 188.125 45.0456 188.284 47.9747 188.284C57.3163 188.284 59.2163 186.455 61.1163 176.036H65.4704C68.2413 176.036 69.9038 176.116 71.8829 176.434V167.685C70.2996 168.003 68.7954 168.083 65.9454 168.083H62.3038ZM55.4955 150.506C54.8622 158.936 54.4663 162.834 53.6747 168.083H39.0289L45.3622 162.595C40.2956 156.709 39.1081 155.596 32.7748 150.506H55.4955ZM31.7456 150.506L25.4915 155.278C31.7456 160.288 34.4373 162.993 38.0789 168.083H15.7541C17.4166 159.652 17.4166 159.652 18.6832 150.506H31.7456ZM56.6038 126.248C56.3663 134.44 56.2872 137.303 55.9705 142.712H41.5623L47.8164 137.065C44.0956 132.929 41.4039 130.463 35.4665 126.248H56.6038ZM34.3581 126.248L28.2623 130.861C33.804 135.076 37.2081 138.258 40.9289 142.712H19.7124C20.504 136.428 20.7415 133.804 21.2957 126.248H34.3581Z" fill="#F8F9FF"/>
<path d="M99.1161 115.67C98.9577 119.09 98.0869 123.862 96.7411 129.509C94.9994 129.589 93.6536 129.589 92.7036 129.589C87.8745 129.589 84.8662 129.429 82.0162 128.873V137.94L86.212 138.019C87.8745 138.099 88.3495 138.099 89.3786 138.099C90.3286 138.099 90.8036 138.099 94.3661 138.019C91.3578 147.165 90.012 150.426 86.9245 156.789C84.2328 162.277 82.0162 165.856 79.2454 169.514L88.3495 174.604C88.8245 173.65 88.8245 173.65 89.8536 171.741C92.8619 166.174 93.5744 164.742 95.3953 160.845C98.9577 153.29 101.808 145.734 104.104 137.78C109.012 137.383 113.841 136.826 116.691 136.349C118.195 136.031 118.353 136.031 119.224 135.951L118.987 126.805C115.899 127.759 111.783 128.475 106.32 129.032C107.191 125.532 107.587 123.942 107.983 122.033C108.774 118.215 108.774 118.215 109.249 116.704L99.1161 115.67ZM149.782 136.349C142.737 132.054 136.799 129.27 127.458 125.691L122.708 133.406C131.574 136.508 138.62 139.928 145.507 144.541L149.782 136.349ZM149.466 172.218C148.912 171.741 148.912 171.741 148.278 171.105C147.012 170.071 146.695 169.753 145.507 168.958C139.491 164.583 138.699 164.186 132.999 161.641C132.445 157.107 132.287 153.926 132.287 150.744C132.287 147.484 132.445 145.654 133.237 142.712L124.053 142.234C123.578 144.859 123.42 147.165 123.42 150.267C123.42 152.653 123.578 155.755 123.816 159.414C120.491 158.857 118.828 158.698 116.453 158.698C106.399 158.698 99.3536 164.345 99.3536 172.378C99.3536 180.49 106.162 185.739 116.612 185.739C122.233 185.739 126.983 184.148 129.753 181.285C131.812 179.217 133.158 175.797 133.158 172.855C133.158 172.537 133.078 171.98 132.999 171.264C137.67 173.968 142.262 177.706 145.112 181.126L149.466 172.218ZM124.133 167.844C124.133 167.844 124.291 169.753 124.291 170.548C124.291 175.002 121.678 177.229 116.295 177.229C111.387 177.229 108.537 175.32 108.537 172.059C108.537 168.719 111.862 166.572 117.008 166.572C119.462 166.572 121.362 166.89 124.133 167.844Z" fill="#F8F9FF"/>
<path d="M183.745 148.597C185.011 147.881 185.011 147.881 186.991 146.529C188.574 145.495 194.274 141.2 195.699 140.007C198.39 137.701 204.17 132.531 208.128 128.873C210.345 126.805 210.899 126.328 212.245 125.612L207.336 118.613C206.07 119.249 205.199 119.408 202.428 119.647C194.749 120.204 185.091 120.601 178.361 120.601C174.007 120.601 171.711 120.442 169.02 120.124L169.416 129.668C170.92 129.429 171.474 129.35 173.216 129.27C187.545 128.634 192.611 128.316 195.62 127.918L195.699 127.998C195.224 128.475 194.432 129.27 194.274 129.429C188.257 135.554 177.966 144.461 170.603 150.108C165.378 154.085 162.212 156.232 159.441 157.584L164.824 166.174C174.324 157.505 185.882 152.812 197.44 152.812C207.02 152.812 213.115 156.869 213.115 163.072C213.115 168.719 210.265 172.139 203.695 174.604C202.507 171.185 201.636 169.435 200.053 167.446C196.728 163.231 191.899 160.925 186.357 160.925C178.441 160.925 172.741 165.697 172.741 172.298C172.741 175.877 174.482 179.217 177.491 181.444C180.657 183.83 186.199 185.103 192.849 185.103C200.132 185.103 206.861 183.512 212.007 180.569C219.053 176.593 222.774 170.548 222.774 162.993C222.774 152.096 214.065 145.098 200.528 145.098C194.591 145.098 191.107 145.893 183.903 148.756L183.745 148.597ZM195.145 176.911C192.928 177.229 192.532 177.229 191.028 177.229C185.17 177.229 181.607 175.4 181.607 172.218C181.607 169.992 183.428 168.56 186.278 168.56C190.711 168.56 193.72 171.423 195.145 176.911Z" fill="#F8F9FF"/>
<path d="M250.878 124.498C246.286 124.498 244.069 124.419 241.219 124.101C241.536 126.884 241.615 129.111 241.615 133.883V178.422C241.615 182.16 241.457 185.66 241.14 187.648H250.086V183.592H289.194V187.648H298.298C297.902 185.103 297.823 183.115 297.823 178.422V133.883C297.823 128.952 297.902 126.805 298.219 124.101C295.29 124.419 293.073 124.498 288.482 124.498H270.115C271.54 121.476 272.728 118.772 274.153 114.954L264.178 114C263.386 117.659 262.278 120.999 260.536 124.498H250.878ZM250.165 132.611H289.273V141.598H250.165V132.611ZM250.165 149.233H289.273V158.3H250.165V149.233ZM250.165 165.935H289.273V175.559H250.165V165.935Z" fill="#F8F9FF"/>
<path d="M318.961 145.257C321.019 146.688 323.552 149.154 325.215 151.222C320.544 155.119 317.377 157.028 310.331 160.129C312.944 162.674 314.211 164.583 315.477 167.526C319.911 165.14 321.652 164.186 323.711 162.834C327.273 160.368 330.835 157.505 333.131 155.119C339.069 148.915 342.71 143.268 345.798 134.997V139.689C348.49 139.371 349.677 139.292 353.477 139.292H354.823C353.635 143.984 351.815 147.881 349.44 150.903C346.194 154.88 343.027 157.266 337.169 159.97C339.781 162.595 341.127 164.424 342.394 167.049C347.777 163.947 351.34 161.243 354.11 158.141C356.565 155.278 359.019 151.142 360.681 146.927C364.085 155.119 370.498 162.118 379.76 167.526C381.264 163.549 382.135 161.879 384.194 159.175C379.523 156.948 377.069 155.357 373.585 152.017C369.389 148.04 366.935 144.382 364.877 139.292H373.585C376.989 139.292 379.444 139.451 381.898 139.769V131.1C379.602 131.418 376.989 131.577 373.585 131.577H364.164C364.481 127.6 364.56 125.055 364.639 122.431C364.639 118.295 364.639 117.34 364.956 115.432H355.852C356.169 117.659 356.248 118.931 356.248 123.385C356.248 126.566 356.169 128.316 356.01 131.577H353.477C350.865 131.577 348.965 131.497 347.065 131.338C347.777 129.509 348.094 128.316 348.41 127.521C348.885 125.691 348.885 125.691 349.281 124.498L345.006 120.124C343.502 120.363 341.84 120.442 339.306 120.442H332.973C333.448 119.09 333.527 119.011 333.527 118.931C334.002 117.897 334.002 117.897 334.24 117.181C334.556 116.466 334.635 116.227 334.952 115.591L326.244 114.477C325.848 117.42 325.136 119.567 323.552 122.828C320.227 129.907 315.952 134.997 309.777 139.292C312.152 141.2 313.577 142.791 315.398 145.416C320.94 141.041 326.165 134.599 329.886 127.6H340.335C339.148 131.497 338.515 133.088 337.327 135.633C335.11 133.645 333.527 132.452 330.915 130.782L327.036 136.031C330.044 138.178 331.944 139.689 333.844 141.598C332.419 143.586 331.785 144.461 330.281 146.211C328.223 144.064 326.086 142.075 323.79 140.405L318.961 145.257ZM366.381 119.567C369.706 123.464 370.973 125.373 373.348 129.986L379.76 125.85C377.939 122.59 375.406 119.249 372.556 115.988L366.381 119.567ZM318.169 189C323.394 182.478 325.611 178.661 329.015 169.673L321.652 166.174C318.802 173.411 316.031 177.786 310.886 183.194L318.169 189ZM343.66 187.012C343.106 178.502 342.631 174.923 341.206 168.083L333.448 168.958C334.556 175.002 334.952 179.933 335.11 187.966L343.66 187.012ZM362.264 185.501C360.681 178.263 359.335 174.048 356.644 167.446L349.044 169.117C351.498 175.32 352.685 180.172 353.715 187.33L362.264 185.501ZM383.244 183.671C379.523 176.831 377.069 173.173 370.894 165.617L364.402 169.673C369.31 175.877 371.606 179.695 375.564 188.125L383.244 183.671Z" fill="#F8F9FF"/>
<path d="M394.96 164.822C395.593 163.867 395.752 163.629 396.623 162.674C401.373 157.505 405.727 152.176 412.218 143.427C414.91 139.848 415.702 139.133 416.968 139.133C418.472 139.133 418.947 139.53 423.856 145.177C432.327 154.88 432.485 155.119 438.502 161.322C444.281 167.128 450.535 173.093 454.651 176.752C455.839 177.786 456.156 178.104 456.947 179.058L461.776 167.765C459.164 166.253 457.185 164.663 453.147 161.084C444.36 153.13 436.681 145.257 429.477 136.747C427.022 133.804 425.281 131.975 424.172 131.02C421.797 129.032 419.422 127.998 417.047 127.998C415.068 127.998 412.852 128.793 410.714 130.384C409.21 131.418 407.864 132.849 405.806 135.394C395.356 148.597 391.952 152.494 388.548 154.88L394.96 164.822Z" fill="#F8F9FF"/>
<path d="M508.643 130.622C512.126 130.941 514.184 131.577 516.639 133.008C522.972 136.826 526.376 143.03 526.376 150.665C526.376 159.175 522.259 166.731 515.372 170.548C511.651 172.696 506.901 173.968 499.618 174.923C502.151 178.263 503.101 180.013 504.447 184.228C509.989 183.274 513.076 182.478 516.876 180.888C528.989 175.957 536.113 164.981 536.113 151.222C536.113 133.327 523.764 121.715 504.764 121.715C493.522 121.715 484.18 125.532 477.53 132.849C471.91 139.053 468.822 147.245 468.822 155.994C468.822 168.799 475.314 178.024 484.339 178.024C490.83 178.024 495.897 173.332 500.41 163.072C504.368 154.085 507.139 143.109 508.643 130.622ZM498.984 130.702C498.035 139.689 495.422 150.426 492.414 157.584C489.564 164.424 486.872 167.765 484.26 167.765C480.776 167.765 478.006 162.595 478.006 156.073C478.006 147.563 482.122 139.371 488.772 134.599C492.018 132.293 494.868 131.179 498.984 130.702Z" fill="#F8F9FF"/>
<path d="M578.626 141.678V145.654C578.626 147.086 578.626 147.722 578.547 149.551C572.847 153.449 569.284 155.357 564.217 157.107L566.672 165.776C567.859 164.981 567.938 164.901 568.73 164.424C571.342 162.913 571.342 162.913 572.213 162.277C574.113 161.004 576.092 159.652 577.755 158.459C576.963 163.788 575.538 167.924 573.242 171.662C570.551 176.036 568.492 177.945 562.713 181.444C565.563 184.228 566.909 185.819 568.73 188.602C574.034 184.626 576.805 181.842 579.417 177.786C584.563 169.753 586.701 159.414 586.701 143.109V123.385C586.701 119.408 586.78 117.261 587.097 115.273H578.151C578.467 117.579 578.626 120.124 578.626 124.26V140.326C576.884 134.122 576.884 133.963 572.372 123.703L565.563 127.203C566.197 128.396 566.434 128.793 566.83 129.589C565.801 129.668 564.851 129.748 563.347 129.748H561.051V123.385C561.051 119.567 561.13 117.659 561.447 115.113H552.263C552.659 117.659 552.738 119.567 552.738 123.385V129.748H549.493C547.118 129.748 545.693 129.668 543.872 129.35V137.78C545.851 137.462 547.434 137.383 549.413 137.383H552.738V151.301C547.038 152.812 545.218 153.29 543.159 153.449L544.822 162.197C545.93 161.8 546.088 161.72 547.593 161.243C549.651 160.686 551.788 160.05 552.738 159.732V177.865C552.738 179.695 552.343 180.092 550.759 180.092C549.255 180.092 547.276 179.933 544.743 179.615C545.93 182.637 546.247 184.308 546.643 187.727C548.622 187.887 549.572 187.966 550.522 187.966C558.676 187.966 561.051 186.216 561.051 180.172V156.709C564.851 155.198 565.563 154.88 568.809 153.449L568.73 145.813C564.851 147.404 563.426 147.961 561.051 148.756V137.383H563.347C565.088 137.383 566.276 137.462 567.701 137.621V131.338C569.442 135.394 570.155 137.383 572.451 145.575L578.626 141.678ZM599.921 155.516C604.038 158.857 606.176 160.925 610.53 165.617L615.755 159.016C609.659 153.369 606.176 150.585 599.921 146.609V139.769L605.463 143.905C609.817 138.099 611.717 134.997 615.359 127.68L608.155 123.385C606.096 129.27 605.463 130.304 599.921 138.337V123.783C599.921 119.567 600.001 117.659 600.317 115.273H591.451C591.767 117.579 591.846 119.408 591.846 122.987V180.967C591.846 185.501 594.38 187.091 601.346 187.091C609.342 187.091 611.638 186.614 613.696 184.387C615.676 182.319 616.863 177.706 617.496 169.594C614.805 169.037 612.905 168.321 609.817 166.731C609.58 171.662 609.105 176.195 608.551 177.468C607.917 178.899 606.73 179.297 603.405 179.297C600.634 179.297 599.921 178.979 599.921 177.786V155.516Z" fill="#F8F9FF"/>
<path d="M684.154 146.768C683.046 150.744 681.067 154.96 678.454 158.857C677.742 155.039 677.267 150.665 676.792 144.461L686.371 143.507C689.696 143.189 690.804 143.189 692.625 143.109C692.783 143.109 693.021 143.109 693.337 143.109L692.863 134.838C690.883 135.315 689.063 135.633 685.975 135.872L676.396 136.747C676.317 131.736 676.238 126.964 676.238 122.908C676.238 118.295 676.317 117.102 676.633 115.432H667.529C667.767 116.863 667.925 119.09 668.004 122.351C668.084 128.157 668.242 133.247 668.479 137.462C666.579 137.621 664.917 137.701 663.571 137.701C663.254 137.701 662.779 137.701 662.225 137.701L662.779 146.052C664.046 145.734 665.392 145.575 668.954 145.177C669.667 154.005 670.538 160.05 672.121 166.413C668.321 170.23 666.5 171.821 662.859 174.525V167.128C660.404 167.446 658.267 167.526 654.784 167.526H646.55V161.8H653.913C656.921 161.8 659.296 161.879 661.354 162.118C661.117 160.448 661.038 158.459 661.038 155.039V138.178C661.038 134.599 661.117 132.69 661.354 130.861C659.771 131.1 658.267 131.179 655.575 131.179C658.504 126.884 660.088 123.862 662.859 117.977L654.863 115.113C652.725 121.635 650.984 125.135 647.184 131.179H630.163C627.155 131.179 625.571 131.1 624.067 130.861C624.225 132.531 624.305 134.201 624.305 137.701V155.357C624.305 158.857 624.225 160.527 624.067 162.118C625.65 161.879 627.946 161.8 631.35 161.8H638.713V167.526H629.846C626.442 167.526 623.671 167.367 621.296 167.049V175.559C623.671 175.241 626.442 175.082 630.005 175.082H638.713V179.695C638.713 183.671 638.554 185.978 638.238 188.205H647.025C646.709 185.898 646.55 183.751 646.55 179.774V175.082H654.784C657 175.082 659.296 175.161 661.671 175.4C658.9 177.15 657.554 177.945 653.042 180.172C655.496 182.399 656.842 183.989 658.584 186.773C664.917 183.115 669.588 179.615 674.733 174.604C676.317 178.422 677.821 180.888 679.8 183.353C682.017 185.978 684.708 187.648 686.688 187.648C690.646 187.648 693.338 182.637 695 172.218C692.15 170.548 690.963 169.594 688.429 167.049C687.638 173.571 686.688 177.229 685.817 177.229C684.788 177.229 682.571 173.173 680.75 168.003C683.996 163.947 687.163 159.016 689.696 153.926C690.092 153.21 690.329 152.812 690.329 152.733C691.121 151.54 691.121 151.54 691.438 150.983L684.154 146.768ZM638.713 138.178V143.189H631.825V138.178H638.713ZM646.55 138.178H653.517V143.189H646.55V138.178ZM638.713 149.71V155.039H631.825V149.71H638.713ZM646.55 149.71H653.517V155.039H646.55V149.71ZM622.009 118.613C624.621 122.908 625.73 125.373 627.392 130.384L634.675 127.759C632.3 121.953 631.746 120.84 628.817 115.909L622.009 118.613ZM635.784 117.261C638.079 121.953 638.95 124.498 640.217 129.748L647.738 127.6C645.838 121.158 645.284 119.647 643.067 114.875L635.784 117.261ZM691.833 129.668C689.142 124.657 687.717 122.59 683.363 117.102L677.663 120.76C681.621 125.93 683.125 128.316 685.738 133.724L691.833 129.668Z" fill="#F8F9FF"/>
<path d="M7 64.0972H16.928V17.6042L39.9428 46.9444L62.9577 17.6042V64.0972H72.8857V0.902777H63.8602L39.9428 31.5972L16.0254 0.902777H7V64.0972Z" fill="#F8F9FF"/>
<path d="M94.9698 32.5C94.9698 19.4097 105.349 9.02778 118.436 9.02778C131.523 9.02778 141.902 19.4097 141.902 32.5C141.902 45.5903 131.523 55.9722 118.436 55.9722C105.349 55.9722 94.9698 45.5903 94.9698 32.5ZM85.0418 32.5C85.0418 50.5556 99.4825 65 118.436 65C137.389 65 151.83 50.5556 151.83 32.5C151.83 14.4444 137.389 0 118.436 0C99.4825 0 85.0418 14.4444 85.0418 32.5Z" fill="#F8F9FF"/>
<path d="M173.949 64.0972H183.877V10.3819H202.831V0.902777H154.996V10.3819H173.949V64.0972Z" fill="#F8F9FF"/>
<path d="M211.884 64.0972H221.812V36.5625H252.95V64.0972H262.878V0.902777H252.95V27.5347H221.812V0.902777H211.884V64.0972Z" fill="#F8F9FF"/>
<path d="M279.092 64.0972H324.671V54.6181H289.02V36.1111H316.548V26.6319H289.02V10.3819H323.768V0.902777H279.092V64.0972Z" fill="#F8F9FF"/>
<path d="M335.988 64.0972H345.916V40.625H360.808L373.894 64.0972H385.176L370.826 38.8194C373.082 37.9167 375.068 36.6528 376.873 35.0278C379.851 32.2292 382.92 27.8958 382.92 20.7639C382.92 9.56945 374.346 0.902777 362.161 0.902777H335.988V64.0972ZM345.916 31.5972V9.93055H362.161C368.569 9.93055 372.992 14.3542 372.992 20.7639C372.992 27.1736 368.569 31.5972 362.161 31.5972H345.916Z" fill="#F8F9FF"/>
<path d="M413.642 64.0972H423.57V17.6042L458.318 64.0972H467.343V0.902777H457.415V47.3958L422.667 0.902777H413.642V64.0972Z" fill="#F8F9FF"/>
<path d="M475.459 64.0972H485.838L492.156 47.8472H520.135L526.453 64.0972H536.832L511.561 0.902777H500.73L475.459 64.0972ZM495.766 38.8194L506.145 12.6389L516.525 38.8194H495.766Z" fill="#F8F9FF"/>
<path d="M551.329 64.0972H561.257V10.3819H580.21V0.902777H532.376V10.3819H551.329V64.0972Z" fill="#F8F9FF"/>
<path d="M588.361 38.8194C588.361 54.1667 599.192 65 614.986 65C630.781 65 641.611 54.1667 641.611 38.8194V0.902777H631.683V38.8194C631.683 48.2986 624.012 55.9722 614.986 55.9722C605.51 55.9722 598.289 48.75 598.289 38.8194V0.902777H588.361V38.8194Z" fill="#F8F9FF"/>
<path d="M656.912 64.0972H666.84V40.625H681.732L694.819 64.0972H706.101L691.751 38.8194C694.007 37.9167 695.993 36.6528 697.798 35.0278C700.776 32.2292 703.845 27.8958 703.845 20.7639C703.845 9.56945 695.27 0.902777 683.086 0.902777H656.912V64.0972ZM666.84 31.5972V9.93055H683.086C689.494 9.93055 693.917 14.3542 693.917 20.7639C693.917 27.1736 689.494 31.5972 683.086 31.5972H666.84Z" fill="#F8F9FF"/>
<path d="M717.422 64.0972H763V54.6181H727.35V36.1111H754.877V26.6319H727.35V10.3819H762.097V0.902777H717.422V64.0972Z" fill="#F8F9FF"/>
</svg>
