<svg width="342" height="128" viewBox="0 0 342 128" fill="none" xmlns="http://www.w3.org/2000/svg">
<path d="M148.041 63.4219V33.5459H165.496V63.4459L148.041 63.4219ZM160.065 50.4769H153.488V58.4289H160.065V50.4769ZM160.065 38.5479H153.488V45.6979H160.065V38.5479ZM191.326 68.5899C191.326 72.7749 189.093 74.6849 184.746 74.6849H180.275L178.927 69.2049H183.499C184.988 69.2049 185.336 68.7649 185.336 67.3759V59.2979H175.298C174.994 68.7159 171.301 73.9309 161.837 75.1229V68.9409C169.065 67.7459 169.698 61.4889 169.655 47.1839V32.6279H191.326V68.5899V68.5899ZM185.336 48.2409H175.686V54.2909H185.336V48.2409ZM185.336 37.6369H175.686V43.2239H185.336V37.6369Z" fill="#252122"/>
<path d="M290.82 48.1501H272.652C274.404 56.1841 282.439 65.8301 290.666 67.1441V75.2191C281.044 74.3791 272.443 64.1251 268.175 54.7751C264.911 63.6921 257.868 72.6881 246.187 74.9411L246.278 67.6381C256.687 64.5131 261.924 56.7121 263.332 48.1501H246.223V42.0161H264.461V32.2681H271.811V42.0161H290.82V48.1501" fill="#252122"/>
<path d="M340.781 48.1131H335.084V42.8581H302.59V48.1131H296.901V37.8541H302.891L300.406 32.8611H307.283L309.711 37.8541H315.345L313.04 32.9291L319.498 32.8611L321.874 37.8541H327.069L329.434 32.9291H336.945L334.086 37.8541H340.781V48.1131ZM332.569 51.1061C331.376 53.2051 325.445 57.2351 321.936 58.3191H341.338V63.8621H321.874V69.3721C321.874 75.2271 320.104 75.4711 313.026 75.4711H310.333L308.621 69.6861H312.329C315.196 69.8271 315.404 68.4951 315.333 66.8421L315.372 63.8621H296.144V58.3191H315.196L315.276 54.0711H318.19C320.077 53.4561 323.316 52.3571 325.349 50.4871H305.412V45.4851H332.569V51.1061Z" fill="#252122"/>
<path d="M239.161 54.825V74.6539H212.451V54.825H239.161ZM232.923 59.6959H218.379V69.5879H232.923V59.6959Z" fill="#252122"/>
<path d="M226.132 32.384H218.508L210.27 45.688V51.663L242.578 51.8L235.434 37.49L228.444 37.26L233.001 46.392L217.068 46.332L226.132 32.384Z" fill="#252122"/>
<path d="M208.211 45.743V38.562L198.518 32.478V39.655L208.211 45.743Z" fill="#252122"/>
<path d="M208.211 56.657V49.48L198.518 43.385V50.57L208.211 56.657Z" fill="#252122"/>
<path d="M208.701 60.3379L203.08 57.2759L196.338 74.6849H204.35L208.701 60.3379Z" fill="#252122"/>
<path d="M164.372 83.6179L157.573 94.1759L150.781 83.6179L148.041 101.178H151.73L152.896 93.7369L157.573 100.806L162.263 93.7369L163.434 101.178H167.108L164.372 83.6179Z" fill="#252122"/>
<path d="M184.923 83.6509H181.352V101.178H184.923V83.6509Z" fill="#252122"/>
<path d="M203.22 83.6509H199.661V101.178H203.22V83.6509Z" fill="#252122"/>
<path d="M251.153 83.6509H247.596V101.178H251.153V83.6509Z" fill="#252122"/>
<path d="M265.476 83.6509L261.101 93.0289L256.725 83.6509H252.798L261.101 101.461L269.394 83.6509H265.476Z" fill="#252122"/>
<path d="M310.717 83.6509H307.155V101.178H310.717V83.6509Z" fill="#252122"/>
<path d="M337.356 83.6509L333.988 90.4089L330.61 83.6509H326.637L332.217 94.8289V101.178H335.77V94.8289L341.338 83.6509H337.356Z" fill="#252122"/>
<path d="M325.687 83.6509H312.768V87.2129H317.445V101.178H321.01V87.2129H325.687V83.6509Z" fill="#252122"/>
<path d="M178.278 87.2129V83.6509H169.767V101.178H178.278V97.6139H173.336V94.0049H177.793V90.4479H173.336V87.2129H178.278Z" fill="#252122"/>
<path d="M279.698 87.2129V83.6509H271.179V101.178H279.698V97.6139H274.744V94.0049H279.199V90.4479H274.744V87.2129H279.698Z" fill="#252122"/>
<path d="M196.429 95.9719V83.6509H192.866V95.9719C192.866 97.0939 191.956 97.9979 190.833 97.9979H187.632V101.569H190.833C193.923 101.569 196.429 99.0519 196.429 95.9719Z" fill="#252122"/>
<path d="M223.334 83.6509V95.5779C223.334 96.7189 221.713 97.6259 219.727 97.6259C217.757 97.6259 216.149 96.7189 216.149 95.5779H216.143V83.6509H212.576V95.5779C212.576 98.6709 215.788 101.178 219.727 101.178C223.688 101.178 226.892 98.6709 226.892 95.5779V83.6509H223.334Z" fill="#252122"/>
<path d="M244.717 83.6511H241.158V93.659L229.655 83.4771V101.178H233.222V91.3851L244.717 101.573V83.6511Z" fill="#252122"/>
<path d="M298.588 93.5159C295.611 91.6189 295.811 88.8059 295.811 88.8059C295.811 85.8629 297.974 83.6099 300.903 83.5259C302.11 83.5009 302.633 83.5199 303.858 83.7269L303.866 87.6319C303.357 87.2869 302.633 87.1579 301.383 87.1579C300.11 87.1579 299.401 87.8519 299.401 88.7179C299.401 88.7179 299.29 89.6099 300.623 90.5429C301.892 91.5389 304.824 93.6469 304.334 96.9879C304.11 98.1429 303.5 101.195 298.459 101.32C296.895 101.32 295.703 101.037 295.703 101.037L295.686 97.1679C295.686 97.1679 298.286 98.6529 300.472 97.2049C300.946 96.9129 301.392 95.2739 298.588 93.5159Z" fill="#252122"/>
<path d="M291.062 101.178H295.366L290.343 93.8209C291.897 92.8409 292.928 91.1179 292.928 89.1679C292.928 86.1189 290.458 83.6569 287.431 83.6569V83.6509H282.587V101.178H286.154V94.6539H286.615L291.062 101.178ZM287.431 87.2319C288.5 87.2319 289.367 88.0889 289.367 89.1679C289.367 90.2299 288.5 91.1009 287.431 91.1009H286.154V87.2319H287.431V87.2319Z" fill="#252122"/>
<path d="M54.781 101.166C54.18 104.983 53.578 110.7 53.578 110.7C53.578 110.7 40.642 72.696 24.91 65.612C25.071 65.612 31.579 80.757 31.997 90.579L0 29.97C0 29.97 38.197 32.906 54.781 101.166Z" fill="#4A5AA7"/>
<path d="M57.21 120.5C57.21 120.5 58.725 125.135 59.11 127.299C59.11 127.299 75.006 69.633 103.946 51.8L93.622 87.956L93.36 92.434C98.116 84.653 135.308 0 135.308 0C135.308 0 66.893 21.033 57.21 120.5Z" fill="#4A5AA7"/>
</svg>
