<svg width="412" height="121" viewBox="0 0 412 121" fill="none" xmlns="http://www.w3.org/2000/svg">
<path d="M34.686 101.809C35.0667 98.4673 35.0667 98.4673 35.4897 92.4607H36.378C38.2392 92.4607 39.6774 92.5453 40.9887 92.7145V88.0615C39.6774 88.2307 38.3238 88.3153 36.378 88.3153H35.7435C35.8281 87.2155 35.8281 87.2155 35.9127 84.5929C35.955 83.4508 36.0396 82.0972 36.1242 80.5321C36.2511 77.7403 36.378 75.9637 36.4626 75.2446C35.4474 75.3715 34.7283 75.4138 32.571 75.4138H11.0826C9.6021 75.4138 8.9676 75.3715 8.1639 75.2869C8.2062 76.3021 8.2062 76.9366 8.2062 77.2327C8.2062 78.7978 7.6986 84.466 7.2333 88.3153H6.0489C4.1031 88.3153 2.7495 88.2307 1.3959 88.0615V92.7145C2.7495 92.5453 4.1877 92.4607 6.0489 92.4607H6.7257C5.8797 98.4673 4.7376 103.586 3.0456 108.662L7.9947 109.127C8.4177 107.562 8.5023 107.266 8.7984 106.039H29.2716C28.7217 108.154 28.4679 108.365 26.4375 108.365C25.0839 108.365 24.111 108.323 22.5882 108.112C22.3344 108.069 21.9537 108.027 21.4038 107.985C22.2498 109.677 22.5882 110.65 22.8843 112.342C24.1956 112.469 25.4646 112.553 27.0297 112.553C32.0211 112.553 33.0363 111.58 34.0515 106.039H36.378C37.8585 106.039 38.7468 106.081 39.8043 106.25V101.597C38.9583 101.767 38.1546 101.809 36.6318 101.809H34.686ZM31.0482 92.4607C30.7098 96.9445 30.4983 99.0172 30.0753 101.809H22.2498L25.6338 98.8903C22.9266 95.7601 22.2921 95.1679 18.9081 92.4607H31.0482ZM18.3582 92.4607L15.0165 94.9987C18.3582 97.6636 19.7964 99.1018 21.7422 101.809H9.8136C10.7019 97.3252 10.7019 97.3252 11.3787 92.4607H18.3582ZM31.6404 79.5592C31.5135 83.9161 31.4712 85.4389 31.302 88.3153H23.6034L26.9451 85.312C24.957 83.1124 23.5188 81.8011 20.3463 79.5592H31.6404ZM19.7541 79.5592L16.497 82.0126C19.458 84.2545 21.2769 85.9465 23.265 88.3153H11.9286C12.3516 84.9736 12.4785 83.5777 12.7746 79.5592H19.7541ZM54.3555 73.9333C54.2709 75.7522 53.8056 78.2902 53.0865 81.2935C52.1559 81.3358 51.4368 81.3358 50.9292 81.3358C48.3489 81.3358 46.7415 81.2512 45.2187 80.9551V85.7773L47.4606 85.8196C48.3489 85.8619 48.6027 85.8619 49.1526 85.8619C49.6602 85.8619 49.914 85.8619 51.8175 85.8196C50.2101 90.6841 49.491 92.4184 47.8413 95.8024C46.4031 98.7211 45.2187 100.625 43.7382 102.57L48.6027 105.278C48.8565 104.77 48.8565 104.77 49.4064 103.755C51.0138 100.794 51.3945 100.032 52.3674 97.9597C54.2709 93.9412 55.7937 89.9227 57.0204 85.6927C59.643 85.4812 62.2233 85.1851 63.7461 84.9313C64.5498 84.7621 64.6344 84.7621 65.0997 84.7198L64.9728 79.8553C63.3231 80.3629 61.1235 80.7436 58.2048 81.0397C58.6701 79.1785 58.8816 78.3325 59.0931 77.3173C59.5161 75.2869 59.5161 75.2869 59.7699 74.4832L54.3555 73.9333ZM81.4275 84.9313C77.6628 82.6471 74.4903 81.1666 69.4989 79.2631L66.9609 83.3662C71.6985 85.0159 75.4632 86.8348 79.1433 89.2882L81.4275 84.9313ZM81.2583 104.009C80.9622 103.755 80.9622 103.755 80.6238 103.416C79.947 102.866 79.7778 102.697 79.1433 102.274C75.9285 99.9478 75.5055 99.7363 72.4599 98.3827C72.1638 95.9716 72.0792 94.2796 72.0792 92.5876C72.0792 90.8533 72.1638 89.8804 72.5868 88.3153L67.68 88.0615C67.4262 89.4574 67.3416 90.6841 67.3416 92.3338C67.3416 93.6028 67.4262 95.2525 67.5531 97.1983C65.7765 96.9022 64.8882 96.8176 63.6192 96.8176C58.2471 96.8176 54.4824 99.8209 54.4824 104.093C54.4824 108.408 58.1202 111.2 63.7038 111.2C66.7071 111.2 69.2451 110.354 70.7256 108.831C71.8254 107.731 72.5445 105.912 72.5445 104.347C72.5445 104.178 72.5022 103.882 72.4599 103.501C74.9556 104.939 77.409 106.927 78.9318 108.746L81.2583 104.009ZM67.7223 101.682C67.7223 101.682 67.8069 102.697 67.8069 103.12C67.8069 105.489 66.411 106.673 63.5346 106.673C60.912 106.673 59.3892 105.658 59.3892 103.924C59.3892 102.147 61.1658 101.005 63.9153 101.005C65.2266 101.005 66.2418 101.175 67.7223 101.682ZM99.5742 91.4455C100.251 91.0648 100.251 91.0648 101.308 90.3457C102.154 89.7958 105.2 87.5116 105.961 86.8771C107.4 85.6504 110.488 82.9009 112.603 80.9551C113.787 79.8553 114.083 79.6015 114.802 79.2208L112.18 75.4984C111.503 75.8368 111.037 75.9214 109.557 76.0483C105.454 76.3444 100.293 76.5559 96.6978 76.5559C94.3713 76.5559 93.1446 76.4713 91.7064 76.3021L91.9179 81.3781C92.7216 81.2512 93.0177 81.2089 93.9483 81.1666C101.605 80.8282 104.312 80.659 105.919 80.4475L105.961 80.4898C105.708 80.7436 105.285 81.1666 105.2 81.2512C101.985 84.5083 96.4863 89.2459 92.5524 92.2492C89.7606 94.3642 88.0686 95.5063 86.5881 96.2254L89.4645 100.794C94.5405 96.1831 100.716 93.6874 106.892 93.6874C112.01 93.6874 115.267 95.8447 115.267 99.1441C115.267 102.147 113.745 103.966 110.234 105.278C109.599 103.459 109.134 102.528 108.288 101.471C106.511 99.2287 103.931 98.002 100.97 98.002C96.7401 98.002 93.6945 100.54 93.6945 104.051C93.6945 105.954 94.6251 107.731 96.2325 108.915C97.9245 110.184 100.885 110.861 104.439 110.861C108.33 110.861 111.926 110.015 114.675 108.45C118.44 106.335 120.428 103.12 120.428 99.1018C120.428 93.3067 115.775 89.5843 108.542 89.5843C105.369 89.5843 103.508 90.0073 99.6588 91.5301L99.5742 91.4455ZM105.665 106.504C104.481 106.673 104.269 106.673 103.466 106.673C100.336 106.673 98.4321 105.701 98.4321 104.009C98.4321 102.824 99.405 102.063 100.928 102.063C103.297 102.063 104.904 103.586 105.665 106.504ZM135.445 78.6286C132.991 78.6286 131.807 78.5863 130.284 78.4171C130.453 79.8976 130.495 81.082 130.495 83.62V107.308C130.495 109.296 130.411 111.157 130.242 112.215H135.022V110.057H155.918V112.215H160.782C160.571 110.861 160.528 109.804 160.528 107.308V83.62C160.528 80.9974 160.571 79.8553 160.74 78.4171C159.175 78.5863 157.99 78.6286 155.537 78.6286H145.723C146.485 77.0212 147.119 75.583 147.881 73.5526L142.551 73.045C142.128 74.9908 141.536 76.7674 140.605 78.6286H135.445ZM135.064 82.9432H155.96V87.7231H135.064V82.9432ZM135.064 91.7839H155.96V96.6061H135.064V91.7839ZM135.064 100.667H155.96V105.785H135.064V100.667ZM171.823 89.6689C172.922 90.4303 174.276 91.7416 175.164 92.8414C172.669 94.9141 170.977 95.9293 167.212 97.579C168.608 98.9326 169.285 99.9478 169.961 101.513C172.33 100.244 173.261 99.7363 174.361 99.0172C176.264 97.7059 178.168 96.1831 179.394 94.9141C182.567 91.6147 184.513 88.6114 186.162 84.2122V86.7079C187.6 86.5387 188.235 86.4964 190.265 86.4964H190.984C190.35 88.9921 189.377 91.0648 188.108 92.6722C186.374 94.7872 184.682 96.0562 181.552 97.4944C182.947 98.8903 183.667 99.8632 184.343 101.259C187.22 99.6094 189.123 98.1712 190.604 96.5215C191.915 94.9987 193.226 92.7991 194.115 90.5572C195.934 94.9141 199.36 98.6365 204.309 101.513C205.113 99.3979 205.578 98.5096 206.678 97.0714C204.182 95.887 202.871 95.041 201.01 93.2644C198.768 91.1494 197.456 89.2036 196.357 86.4964H201.01C202.828 86.4964 204.14 86.581 205.451 86.7502V82.1395C204.224 82.3087 202.828 82.3933 201.01 82.3933H195.976C196.145 80.2783 196.187 78.9247 196.23 77.5288C196.23 75.3292 196.23 74.8216 196.399 73.8064H191.534C191.704 74.9908 191.746 75.6676 191.746 78.0364C191.746 79.7284 191.704 80.659 191.619 82.3933H190.265C188.869 82.3933 187.854 82.351 186.839 82.2664C187.22 81.2935 187.389 80.659 187.558 80.236C187.812 79.2631 187.812 79.2631 188.023 78.6286L185.739 76.3021C184.936 76.429 184.047 76.4713 182.694 76.4713H179.31C179.563 75.7522 179.606 75.7099 179.606 75.6676C179.86 75.1177 179.86 75.1177 179.986 74.737C180.156 74.3563 180.198 74.2294 180.367 73.891L175.714 73.2988C175.503 74.8639 175.122 76.006 174.276 77.7403C172.499 81.505 170.215 84.2122 166.916 86.4964C168.185 87.5116 168.946 88.3576 169.919 89.7535C172.88 87.427 175.672 84.0007 177.66 80.2783H183.244C182.609 82.351 182.271 83.197 181.636 84.5506C180.452 83.4931 179.606 82.8586 178.21 81.9703L176.137 84.7621C177.745 85.9042 178.76 86.7079 179.775 87.7231C179.014 88.7806 178.675 89.2459 177.871 90.1765C176.772 89.0344 175.63 87.9769 174.403 87.0886L171.823 89.6689ZM197.16 76.006C198.937 78.0787 199.614 79.0939 200.883 81.5473L204.309 79.3477C203.336 77.6134 201.982 75.8368 200.46 74.1025L197.16 76.006ZM171.4 112.934C174.191 109.465 175.376 107.435 177.195 102.655L173.261 100.794C171.738 104.643 170.257 106.97 167.508 109.846L171.4 112.934ZM185.02 111.876C184.724 107.35 184.47 105.447 183.709 101.809L179.563 102.274C180.156 105.489 180.367 108.112 180.452 112.384L185.02 111.876ZM194.961 111.073C194.115 107.223 193.396 104.981 191.957 101.471L187.897 102.359C189.208 105.658 189.842 108.239 190.392 112.046L194.961 111.073ZM206.17 110.1C204.182 106.462 202.871 104.516 199.571 100.498L196.103 102.655C198.725 105.954 199.952 107.985 202.067 112.469L206.17 110.1ZM212.431 100.075C212.769 99.5671 212.854 99.4402 213.319 98.9326C215.857 96.1831 218.183 93.349 221.652 88.696C223.09 86.7925 223.513 86.4118 224.19 86.4118C224.994 86.4118 225.247 86.6233 227.87 89.6266C232.396 94.7872 232.481 94.9141 235.696 98.2135C238.783 101.301 242.125 104.474 244.325 106.42C244.959 106.97 245.128 107.139 245.551 107.646L248.132 101.64C246.736 100.836 245.678 99.9901 243.521 98.0866C238.826 93.8566 234.723 89.6689 230.873 85.1428C229.562 83.5777 228.631 82.6048 228.039 82.0972C226.77 81.0397 225.501 80.4898 224.232 80.4898C223.175 80.4898 221.99 80.9128 220.848 81.7588C220.045 82.3087 219.325 83.0701 218.226 84.4237C212.642 91.4455 210.823 93.5182 209.004 94.7872L212.431 100.075ZM273.173 81.8857C275.035 82.0549 276.134 82.3933 277.446 83.1547C280.83 85.1851 282.649 88.4845 282.649 92.5453C282.649 97.0714 280.449 101.09 276.769 103.12C274.781 104.262 272.243 104.939 268.351 105.447C269.705 107.223 270.212 108.154 270.932 110.396C273.892 109.888 275.542 109.465 277.573 108.619C284.044 105.997 287.852 100.159 287.852 92.8414C287.852 83.3239 281.253 77.1481 271.101 77.1481C265.094 77.1481 260.103 79.1785 256.549 83.0701C253.546 86.3695 251.896 90.7264 251.896 95.3794C251.896 102.19 255.365 107.096 260.187 107.096C263.656 107.096 266.363 104.601 268.774 99.1441C270.889 94.3642 272.37 88.5268 273.173 81.8857ZM268.013 81.928C267.505 86.7079 266.109 92.4184 264.502 96.2254C262.979 99.8632 261.541 101.64 260.145 101.64C258.284 101.64 256.803 98.8903 256.803 95.4217C256.803 90.8956 259.003 86.5387 262.556 84.0007C264.29 82.774 265.813 82.1818 268.013 81.928ZM310.567 87.7654V89.8804C310.567 90.6418 310.567 90.9802 310.524 91.9531C307.479 94.0258 305.575 95.041 302.868 95.9716L304.179 100.582C304.814 100.159 304.856 100.117 305.279 99.8632C306.675 99.0595 306.675 99.0595 307.14 98.7211C308.156 98.0443 309.213 97.3252 310.101 96.6907C309.678 99.5248 308.917 101.724 307.69 103.713C306.252 106.039 305.152 107.054 302.064 108.915C303.587 110.396 304.306 111.242 305.279 112.722C308.113 110.607 309.594 109.127 310.99 106.97C313.739 102.697 314.881 97.1983 314.881 88.5268V78.0364C314.881 75.9214 314.924 74.7793 315.093 73.7218H310.313C310.482 74.9485 310.567 76.3021 310.567 78.5017V87.0463C309.636 83.7469 309.636 83.6623 307.225 78.2056L303.587 80.0668C303.926 80.7013 304.052 80.9128 304.264 81.3358C303.714 81.3781 303.206 81.4204 302.403 81.4204H301.176V78.0364C301.176 76.006 301.218 74.9908 301.388 73.6372H296.481C296.692 74.9908 296.735 76.006 296.735 78.0364V81.4204H295C293.731 81.4204 292.97 81.3781 291.997 81.2089V85.6927C293.054 85.5235 293.9 85.4812 294.958 85.4812H296.735V92.8837C293.689 93.6874 292.716 93.9412 291.616 94.0258L292.505 98.6788C293.097 98.4673 293.181 98.425 293.985 98.1712C295.085 97.8751 296.227 97.5367 296.735 97.3675V107.012C296.735 107.985 296.523 108.196 295.677 108.196C294.873 108.196 293.816 108.112 292.462 107.943C293.097 109.55 293.266 110.438 293.477 112.257C294.535 112.342 295.043 112.384 295.55 112.384C299.907 112.384 301.176 111.453 301.176 108.239V95.7601C303.206 94.9564 303.587 94.7872 305.321 94.0258L305.279 89.965C303.206 90.811 302.445 91.1071 301.176 91.5301V85.4812H302.403C303.333 85.4812 303.968 85.5235 304.729 85.6081V82.2664C305.66 84.4237 306.041 85.4812 307.267 89.8381L310.567 87.7654ZM321.945 95.1256C324.145 96.9022 325.287 98.002 327.614 100.498L330.405 96.9868C327.148 93.9835 325.287 92.503 321.945 90.388V86.7502L324.906 88.9498C327.233 85.8619 328.248 84.2122 330.194 80.3206L326.345 78.0364C325.245 81.1666 324.906 81.7165 321.945 85.9888V78.2479C321.945 76.006 321.988 74.9908 322.157 73.7218H317.419C317.588 74.9485 317.631 75.9214 317.631 77.8249V108.662C317.631 111.073 318.984 111.919 322.707 111.919C326.979 111.919 328.206 111.665 329.306 110.48C330.363 109.381 330.998 106.927 331.336 102.613C329.898 102.317 328.883 101.936 327.233 101.09C327.106 103.713 326.852 106.124 326.556 106.8C326.218 107.562 325.583 107.773 323.807 107.773C322.326 107.773 321.945 107.604 321.945 106.97V95.1256ZM366.952 90.4726C366.36 92.5876 365.303 94.8295 363.907 96.9022C363.526 94.8718 363.272 92.5453 363.019 89.2459L368.137 88.7383C369.913 88.5691 370.506 88.5691 371.479 88.5268C371.563 88.5268 371.69 88.5268 371.859 88.5268L371.605 84.1276C370.548 84.3814 369.575 84.5506 367.925 84.6775L362.807 85.1428C362.765 82.4779 362.722 79.9399 362.722 77.7826C362.722 75.3292 362.765 74.6947 362.934 73.8064H358.069C358.196 74.5678 358.281 75.7522 358.323 77.4865C358.366 80.5744 358.45 83.2816 358.577 85.5235C357.562 85.6081 356.674 85.6504 355.954 85.6504C355.785 85.6504 355.531 85.6504 355.235 85.6504L355.531 90.0919C356.208 89.9227 356.927 89.8381 358.831 89.6266C359.212 94.3219 359.677 97.5367 360.523 100.921C358.492 102.951 357.52 103.797 355.574 105.235V101.301C354.262 101.471 353.12 101.513 351.259 101.513H346.86V98.4673H350.794C352.401 98.4673 353.67 98.5096 354.77 98.6365C354.643 97.7482 354.601 96.6907 354.601 94.8718V85.9042C354.601 84.0007 354.643 82.9855 354.77 82.0126C353.924 82.1395 353.12 82.1818 351.682 82.1818C353.247 79.8976 354.093 78.2902 355.574 75.16L351.301 73.6372C350.159 77.1058 349.229 78.967 347.198 82.1818H338.104C336.496 82.1818 335.65 82.1395 334.847 82.0126C334.931 82.9009 334.974 83.7892 334.974 85.6504V95.041C334.974 96.9022 334.931 97.7905 334.847 98.6365C335.693 98.5096 336.919 98.4673 338.738 98.4673H342.672V101.513H337.935C336.116 101.513 334.635 101.428 333.366 101.259V105.785C334.635 105.616 336.116 105.531 338.019 105.531H342.672V107.985C342.672 110.1 342.588 111.327 342.418 112.511H347.114C346.945 111.284 346.86 110.142 346.86 108.027V105.531H351.259C352.444 105.531 353.67 105.574 354.939 105.701C353.459 106.631 352.74 107.054 350.329 108.239C351.64 109.423 352.359 110.269 353.29 111.75C356.674 109.804 359.169 107.943 361.919 105.278C362.765 107.308 363.568 108.619 364.626 109.931C365.81 111.327 367.249 112.215 368.306 112.215C370.421 112.215 371.859 109.55 372.748 104.009C371.225 103.12 370.59 102.613 369.237 101.259C368.814 104.728 368.306 106.673 367.841 106.673C367.291 106.673 366.106 104.516 365.134 101.767C366.868 99.6094 368.56 96.9868 369.913 94.2796C370.125 93.8989 370.252 93.6874 370.252 93.6451C370.675 93.0106 370.675 93.0106 370.844 92.7145L366.952 90.4726ZM342.672 85.9042V88.5691H338.992V85.9042H342.672ZM346.86 85.9042H350.582V88.5691H346.86V85.9042ZM342.672 92.0377V94.8718H338.992V92.0377H342.672ZM346.86 92.0377H350.582V94.8718H346.86V92.0377ZM333.747 75.4984C335.143 77.7826 335.735 79.0939 336.623 81.7588L340.515 80.3629C339.246 77.275 338.95 76.6828 337.385 74.0602L333.747 75.4984ZM341.107 74.7793C342.334 77.275 342.799 78.6286 343.476 81.4204L347.494 80.2783C346.479 76.852 346.183 76.0483 344.999 73.5103L341.107 74.7793ZM371.056 81.3781C369.617 78.7132 368.856 77.6134 366.529 74.6947L363.484 76.6405C365.599 79.39 366.403 80.659 367.798 83.5354L371.056 81.3781Z" fill="#F8F9FF"/>
<path d="M4.83 46H10.143V21.1255L22.4595 36.823L34.776 21.1255V46H40.089V12.19H35.259L22.4595 28.612L9.66 12.19H4.83V46ZM51.9074 29.095C51.9074 22.0915 57.4619 16.537 64.4654 16.537C71.4689 16.537 77.0234 22.0915 77.0234 29.095C77.0234 36.0985 71.4689 41.653 64.4654 41.653C57.4619 41.653 51.9074 36.0985 51.9074 29.095ZM46.5944 29.095C46.5944 38.755 54.3224 46.483 64.4654 46.483C74.6084 46.483 82.3364 38.755 82.3364 29.095C82.3364 19.435 74.6084 11.707 64.4654 11.707C54.3224 11.707 46.5944 19.435 46.5944 29.095ZM94.1737 46H99.4867V17.2615H109.63V12.19H84.0307V17.2615H94.1737V46ZM114.475 46H119.788V31.2685H136.451V46H141.764V12.19H136.451V26.4385H119.788V12.19H114.475V46ZM150.441 46H174.833V40.9285H155.754V31.027H170.486V25.9555H155.754V17.2615H174.35V12.19H150.441V46ZM180.889 46H186.202V33.442H194.172L201.175 46H207.213L199.533 32.476C200.74 31.993 201.803 31.3168 202.769 30.4474C204.363 28.9501 206.005 26.6317 206.005 22.816C206.005 16.8268 201.417 12.19 194.896 12.19H180.889V46ZM186.202 28.612V17.02H194.896C198.325 17.02 200.692 19.3867 200.692 22.816C200.692 26.2453 198.325 28.612 194.896 28.612H186.202ZM222.446 46H227.759V21.1255L246.355 46H251.185V12.19H245.872V37.0645L227.276 12.19H222.446V46ZM255.528 46H261.082L264.463 37.306H279.436L282.817 46H288.372L274.848 12.19H269.052L255.528 46ZM266.395 32.476L271.95 18.469L277.504 32.476H266.395ZM296.13 46H301.443V17.2615H311.586V12.19H285.987V17.2615H296.13V46ZM315.948 32.476C315.948 40.687 321.744 46.483 330.197 46.483C338.649 46.483 344.445 40.687 344.445 32.476V12.19H339.132V32.476C339.132 37.5475 335.027 41.653 330.197 41.653C325.125 41.653 321.261 37.789 321.261 32.476V12.19H315.948V32.476ZM352.633 46H357.946V33.442H365.916L372.919 46H378.957L371.277 32.476C372.485 31.993 373.547 31.3168 374.513 30.4474C376.107 28.9501 377.749 26.6317 377.749 22.816C377.749 16.8268 373.161 12.19 366.64 12.19H352.633V46ZM357.946 28.612V17.02H366.64C370.07 17.02 372.436 19.3867 372.436 22.816C372.436 26.2453 370.07 28.612 366.64 28.612H357.946ZM385.015 46H409.407V40.9285H390.328V31.027H405.06V25.9555H390.328V17.2615H408.924V12.19H385.015V46Z" fill="#F8F9FF"/>
</svg>
