<svg width="803" height="374" viewBox="0 0 803 374" fill="none" xmlns="http://www.w3.org/2000/svg">
<path d="M34.5591 191.017V198.293C34.5591 199.393 34.263 199.604 32.7825 199.604C31.8096 199.604 30.4983 199.477 28.4256 199.139C29.1024 200.704 29.3562 201.888 29.5677 203.919C30.7098 203.961 32.2326 204.003 32.9517 204.003C37.8585 204.003 39.1275 203.03 39.1275 199.266V171.728C39.1275 169.444 39.1698 168.133 39.2967 167.075C38.0277 167.202 37.0971 167.245 34.7283 167.245H25.5915C23.3496 167.245 22.3767 167.202 20.8962 167.075C21.1077 168.852 21.1923 171.982 21.1923 177.608C21.1923 185.391 20.7693 189.241 19.6272 192.878C18.3582 196.643 16.8777 198.716 13.5783 201.296C15.3549 202.48 16.2009 203.284 17.3007 204.722C19.881 202.354 21.2769 200.535 22.5459 197.827C23.5611 195.67 24.2802 193.471 24.7455 191.017H34.5591ZM34.5591 180.992V186.872H25.2531C25.4646 184.841 25.5915 183.022 25.6338 180.992H34.5591ZM34.5591 177.016H25.7184V171.475H34.5591V177.016ZM3.384 191.99C3.384 194.105 3.2994 195.67 3.1302 197.024H7.7832V193.894H13.7475V195.459H18.1044C18.0621 194.528 18.0198 193.428 18.0198 191.144V171.94C18.0198 169.952 18.0621 169.106 18.1467 168.091C17.0469 168.175 16.2432 168.217 14.5089 168.217H7.8255C5.4144 168.217 4.3992 168.175 3.2148 168.091C3.3417 169.402 3.384 170.417 3.384 172.448V191.99ZM7.7409 172.363H13.7475V178.75H7.7409V172.363ZM7.7409 182.684H13.7475V189.833H7.7409V182.684ZM54.0171 183.234C55.2861 183.022 55.4553 182.98 59.5584 182.726C65.7765 182.346 72.1638 181.753 76.7322 181.161C77.2821 182.261 77.6205 182.98 78.5511 185.011L82.8657 182.811C79.101 175.958 77.9589 174.182 74.3634 169.825L70.3872 171.559C72.4176 174.013 73.2213 175.112 74.7018 177.481C71.064 177.904 66.3264 178.285 62.2656 178.454C64.296 174.943 65.8188 171.982 67.257 168.556C67.68 167.583 67.8069 167.245 68.103 166.737L62.8155 165.299C62.2233 168.344 59.9391 173.547 57.0204 178.623C56.0898 178.623 55.7937 178.623 55.4553 178.623C54.567 178.623 54.1863 178.581 53.298 178.496L54.0171 183.234ZM45.1764 169.233C48.4335 171.221 50.5485 172.828 52.875 175.028L55.7514 171.475C52.875 168.894 51.4368 167.837 48.0528 165.679L45.1764 169.233ZM43.2729 179.765C46.3185 181.627 48.1797 182.98 50.9715 185.434L53.5941 181.584C50.337 179.089 49.0257 178.2 45.9378 176.381L43.2729 179.765ZM50.0409 187.549C48.0528 193.767 46.1493 197.743 43.7805 200.577L47.8413 204.088C48.0951 203.623 48.222 203.327 48.7296 202.438C50.7177 198.843 52.1559 195.416 53.8479 190.256L50.0409 187.549ZM61.2081 202.311H74.2788V204.426H79.1433C78.9741 203.369 78.8895 201.973 78.8895 199.604V190.425C78.8895 188.056 78.9318 187.083 79.0587 186.026C77.9589 186.153 76.8168 186.195 74.7018 186.195H60.489C58.7547 186.195 57.528 186.153 56.4705 186.026C56.5974 187.168 56.6397 188.352 56.6397 190.087V200.069C56.6397 202.142 56.5974 203.284 56.4705 204.384H61.2081V202.311ZM61.2081 190.51H74.2365V197.954H61.2081V190.51ZM117.425 180.188C119.751 180.188 121.02 180.273 122.712 180.484V175.112C121.274 175.324 119.794 175.408 117.382 175.408H106.173C106.215 173.843 106.258 172.87 106.258 171.136C106.3 168.302 106.342 167.668 106.554 166.187H100.97C101.139 167.371 101.266 168.64 101.266 170.417C101.266 172.617 101.224 173.293 101.139 175.408H90.7758C88.2801 175.408 86.7573 175.324 85.446 175.112V180.484C86.8419 180.273 88.0686 180.188 90.7335 180.188H100.716C99.7011 187.379 96.867 192.117 91.1988 196.135C89.0838 197.616 87.3918 198.504 84.3462 199.731C85.6998 201.254 86.5881 202.565 87.3072 204.173C91.4949 202.354 94.5405 200.365 97.4169 197.531C100.801 194.19 103.043 190.552 104.312 186.195C105.877 190.129 107.95 193.513 110.699 196.432C113.702 199.689 116.621 201.846 121.147 204.173C122.205 201.888 122.797 201 124.235 199.308C119.201 197.235 115.69 194.824 112.56 191.271C109.768 188.098 107.527 183.995 106.469 180.188H117.425ZM143.355 192.836V199.096C143.355 199.943 143.059 200.069 141.197 200.069C139.886 200.069 137.983 199.943 135.952 199.646C136.671 201.169 136.883 201.888 137.348 204.13C139.548 204.257 140.944 204.299 141.494 204.299C145.301 204.299 146.739 203.961 147.458 202.904C147.881 202.311 148.008 201.719 148.008 200.239V192.836H159.006C161.205 192.836 163.024 192.921 164.251 193.09V188.395C162.982 188.606 161.121 188.691 159.048 188.691H148.008V188.648C151.307 186.618 153.464 185.053 156.468 182.473C157.271 181.796 157.271 181.796 157.99 181.204L155.664 178.623C154.903 178.75 154.099 178.792 152.449 178.792H138.448C136.629 178.792 135.445 178.75 134.176 178.581V182.811C135.529 182.684 136.671 182.642 138.406 182.642H150.038C148.261 184.207 146.866 185.137 145.047 186.068H143.228C143.312 186.787 143.355 187.549 143.355 188.395V188.691H131.849C129.861 188.691 128.169 188.606 126.731 188.395V193.09C128.042 192.921 129.692 192.836 131.891 192.836H143.355ZM132.061 171.94C129.226 171.94 128.973 171.94 127.069 171.771C127.196 172.87 127.238 173.759 127.238 175.282V179.173C127.238 180.484 127.196 181.457 127.027 182.43H131.638V175.874H159.217V182.43H163.828C163.701 181.415 163.616 180.358 163.616 179.215V175.282C163.616 173.674 163.659 172.828 163.786 171.771C162.263 171.898 161.459 171.94 158.583 171.94H156.679C157.652 170.629 158.879 168.683 159.852 166.864L155.283 165.595C154.564 167.583 153.084 170.248 151.815 171.94H148.219C147.289 169.233 147.035 168.64 145.301 165.383L140.901 166.61C142.086 168.471 142.763 169.952 143.482 171.94H138.998C137.602 169.233 136.629 167.71 135.149 165.891L130.876 167.16C132.526 169.233 133.076 170.079 134.049 171.94H132.061ZM203.04 198.8C206.72 201.888 211.5 203.707 218.226 204.553C218.818 202.946 219.157 202.1 220.13 200.239C216.999 200.112 214.334 199.689 211.289 198.843C213.15 197.701 214.081 197.024 215.35 195.966L211.754 194.57H215.265C216.999 194.57 217.803 194.613 218.776 194.74V190.975C217.761 191.102 217.084 191.144 215.265 191.144H187.939C188.024 189.579 188.066 188.818 188.066 187.718V185.18H214.377C216.111 185.18 217.676 185.264 218.438 185.349V181.542C217.295 181.711 216.196 181.753 214.377 181.753H187.474C185.867 181.753 184.767 181.711 183.286 181.542C183.413 182.599 183.498 185.011 183.498 186.829C183.498 194.147 182.652 197.701 180.114 201.169C181.51 202.311 182.06 202.946 183.667 204.934C185.74 201.973 187.009 198.631 187.601 194.57H191.789V199.985C190.52 200.069 188.193 200.196 187.22 200.196C187.093 200.196 187.009 200.196 186.755 200.154L187.559 204.511C187.982 204.384 188.405 204.299 189.208 204.215C195.384 203.58 199.403 202.988 203.125 202.142L203.04 198.8ZM196.103 194.57H199.699C200.587 196.178 201.391 197.235 202.744 198.504C199.741 199.012 197.541 199.35 196.103 199.52V194.57ZM211.331 194.57C210.147 195.713 208.962 196.643 207.693 197.447C206.001 196.601 205.155 195.924 204.182 194.57H211.331ZM207.101 167.879C207.101 166.991 207.143 166.187 207.313 165.341H202.617C202.702 165.849 202.787 166.906 202.829 167.879H198.091C198.091 166.991 198.134 166.187 198.303 165.341H193.65C193.777 166.187 193.819 166.906 193.861 167.879H189.377C187.559 167.879 185.909 167.794 184.598 167.71C184.724 168.894 184.767 169.74 184.767 171.686V176.381C184.767 178.369 184.724 179.258 184.64 180.273C185.782 180.188 187.262 180.146 188.405 180.146H212.177C214.123 180.146 214.715 180.146 216.407 180.273C216.323 179.385 216.28 178.031 216.28 176.424V171.644C216.28 169.698 216.323 168.852 216.449 167.71C214.588 167.837 213.954 167.879 211.67 167.879H207.101ZM193.861 171.009V172.659H189.124V171.009H193.861ZM198.091 171.009H202.829V172.659H198.091V171.009ZM207.101 171.009H211.881V172.659H207.101V171.009ZM193.861 175.578V177.227H189.124V175.578H193.861ZM198.091 175.578H202.829V177.227H198.091V175.578ZM207.101 175.578H211.881V177.227H207.101V175.578ZM189.589 189.875C190.773 189.748 191.408 189.706 193.354 189.706H212.219C214.208 189.706 214.8 189.748 215.984 189.875V186.449C214.927 186.576 214.292 186.618 212.219 186.618H193.354C191.281 186.618 190.646 186.576 189.589 186.449V189.875ZM239.503 192.836V199.096C239.503 199.943 239.207 200.069 237.346 200.069C236.034 200.069 234.131 199.943 232.1 199.646C232.82 201.169 233.031 201.888 233.496 204.13C235.696 204.257 237.092 204.299 237.642 204.299C241.449 204.299 242.887 203.961 243.606 202.904C244.029 202.311 244.156 201.719 244.156 200.239V192.836H255.154C257.354 192.836 259.172 192.921 260.399 193.09V188.395C259.13 188.606 257.269 188.691 255.196 188.691H244.156V188.648C247.455 186.618 249.613 185.053 252.616 182.473C253.42 181.796 253.42 181.796 254.139 181.204L251.812 178.623C251.051 178.75 250.247 178.792 248.597 178.792H234.596C232.777 178.792 231.593 178.75 230.324 178.581V182.811C231.677 182.684 232.82 182.642 234.554 182.642H246.186C244.41 184.207 243.014 185.137 241.195 186.068H239.376C239.461 186.787 239.503 187.549 239.503 188.395V188.691H227.997C226.009 188.691 224.317 188.606 222.879 188.395V193.09C224.19 192.921 225.84 192.836 228.04 192.836H239.503ZM228.209 171.94C225.375 171.94 225.121 171.94 223.217 171.771C223.344 172.87 223.387 173.759 223.387 175.282V179.173C223.387 180.484 223.344 181.457 223.175 182.43H227.786V175.874H255.365V182.43H259.976C259.849 181.415 259.765 180.358 259.765 179.215V175.282C259.765 173.674 259.807 172.828 259.934 171.771C258.411 171.898 257.607 171.94 254.731 171.94H252.827C253.8 170.629 255.027 168.683 256 166.864L251.432 165.595C250.712 167.583 249.232 170.248 247.963 171.94H244.367C243.437 169.233 243.183 168.64 241.449 165.383L237.05 166.61C238.234 168.471 238.911 169.952 239.63 171.94H235.146C233.75 169.233 232.777 167.71 231.297 165.891L227.024 167.16C228.674 169.233 229.224 170.079 230.197 171.94H228.209ZM277.573 169.571V168.387C277.573 167.16 277.658 166.272 277.784 165.426H272.751C272.92 166.272 273.005 167.202 273.005 168.387V169.571H268.69C266.617 169.571 265.644 169.529 264.671 169.36V173.928C265.602 173.759 266.575 173.716 268.14 173.716H281.676C283.495 173.716 284.341 173.759 285.229 173.928V169.36C284.214 169.529 283.283 169.571 281.38 169.571H277.573ZM280.703 180.992C281.634 179.046 282.353 177.227 282.945 175.197L278.588 174.097C278.038 176.677 277.404 178.623 276.389 180.992H268.055C265.898 180.992 264.925 180.95 263.783 180.781V185.434C265.01 185.264 265.94 185.222 268.013 185.222H282.184C283.58 185.222 284.679 185.264 285.61 185.434V180.781C284.806 180.95 283.791 180.992 281.972 180.992H280.703ZM267.421 175.028C268.352 176.974 268.817 178.412 269.409 180.95L273.597 179.681C272.962 177.312 272.37 175.705 271.397 173.759L267.421 175.028ZM270.72 201.888H278.969V204.299H283.622C283.495 203.369 283.453 202.607 283.453 201.127V190.848C283.453 189.029 283.495 188.479 283.58 187.718C282.945 187.802 282.226 187.845 280.492 187.845H269.578C268.013 187.845 267.167 187.802 266.194 187.718C266.279 188.691 266.321 189.452 266.321 191.186V200.365C266.321 202.142 266.279 203.157 266.152 204.342H270.72V201.888ZM270.72 191.906H279.011V197.827H270.72V191.906ZM300.88 166.441C300.077 166.61 299.188 166.652 297.539 166.652H290.221C288.825 166.652 287.894 166.61 286.752 166.483C286.879 167.625 286.921 168.81 286.921 170.036V199.773C286.921 201.592 286.837 203.242 286.667 204.595H291.659C291.447 203.369 291.363 201.931 291.363 199.646V170.84H297.242C296.312 174.393 295.043 177.397 292.589 181.923C295.085 184.249 296.016 185.476 296.989 187.422C297.877 189.241 298.342 191.102 298.342 192.878C298.342 194.232 297.665 194.697 295.55 194.697C294.324 194.697 293.478 194.613 292.378 194.444C293.055 195.839 293.266 196.855 293.351 199.054C294.366 199.139 294.747 199.139 295.466 199.139C297.539 199.139 298.723 199.012 299.78 198.589C301.684 197.912 302.784 195.966 302.784 193.301C302.784 191.398 302.361 189.241 301.599 187.422C300.796 185.349 299.865 183.953 297.539 181.288C299.315 177.904 300.669 174.986 302.107 171.221C302.488 170.248 302.657 169.909 302.953 169.36L300.88 166.441ZM335.905 177.989V185.772H329.348C327.022 185.772 325.626 185.687 324.272 185.518V190.171C325.711 190.002 327.403 189.917 329.391 189.917H335.905V198.885H325.034C322.792 198.885 320.973 198.8 319.154 198.589V203.411C321.142 203.2 322.961 203.115 325.161 203.115H351.048C353.29 203.115 354.813 203.2 356.801 203.411V198.589C355.109 198.8 353.333 198.885 350.921 198.885H340.769V189.917H348.087C350.075 189.917 351.767 190.002 353.29 190.171V185.518C351.894 185.687 350.202 185.772 348.087 185.772H340.769V177.989H349.695C351.725 177.989 353.459 178.073 355.278 178.243V173.59C353.544 173.759 351.725 173.843 349.568 173.843H340.769V170.586C340.769 168.344 340.854 166.948 341.023 165.553H335.609C335.82 167.118 335.905 168.429 335.905 170.629V173.843H329.01C329.56 172.363 329.941 171.305 330.152 170.671C330.448 169.613 330.448 169.571 330.575 169.275C330.871 168.514 330.871 168.514 330.956 168.175L326.134 166.991C325.964 168.217 325.753 169.106 325.203 170.925C323.765 175.62 321.227 180.061 318.054 183.276C319.45 184.249 320.423 185.264 321.523 186.872C323.849 184.165 325.541 181.627 327.276 177.989H335.905ZM369.83 179.935C371.014 179.808 372.114 179.765 373.552 179.765H384.846C386.58 179.765 387.596 179.808 388.653 179.935V177.524C391.064 179.089 393.898 180.654 396.732 181.88C397.832 179.723 398.255 179.046 399.651 177.397C395.463 176.001 392.587 174.647 389.118 172.405C385.861 170.248 383.704 168.302 381.504 165.468H376.386C374.229 168.217 372.241 170.079 369.11 172.321C366.234 174.393 363.231 175.958 358.874 177.693C360.27 179.089 360.904 179.977 361.75 181.753C365.6 180.019 366.572 179.469 369.83 177.354V179.935ZM373.552 175.831C372.791 175.831 372.579 175.831 372.114 175.831C374.948 173.801 376.809 172.067 379.093 169.275C381.335 171.855 383.577 173.886 386.242 175.831C385.438 175.831 385.269 175.831 384.804 175.831H373.552ZM367.418 199.223H372.917V200.915H377.359C377.274 199.646 377.232 198.716 377.232 197.024V186.322C377.232 184.63 377.274 183.572 377.359 182.473C376.259 182.557 375.329 182.599 373.594 182.599H366.53C364.711 182.599 363.908 182.557 362.935 182.473C363.019 183.572 363.062 184.461 363.062 186.11V197.405C363.062 199.181 363.019 200.281 362.85 201.719H367.418V199.223ZM367.418 186.66H372.917V195.163H367.418V186.66ZM380.066 199.943C380.066 201.931 379.982 203.369 379.855 204.765H384.761C384.592 203.623 384.508 202.184 384.508 200.239V186.703H390.937V195.586C390.937 196.516 390.683 196.77 389.668 196.77C388.738 196.77 387.553 196.685 386.03 196.516C386.665 197.997 386.919 199.139 387.003 200.873C387.384 200.915 387.68 200.915 387.849 200.915C389.034 200.958 389.837 200.958 389.922 200.958C391.868 200.958 393.264 200.704 394.025 200.196C395.083 199.52 395.421 198.589 395.421 196.432V186.66C395.421 184.841 395.463 183.742 395.59 182.473C394.787 182.599 393.687 182.642 391.783 182.642H383.789C381.97 182.642 380.912 182.599 379.939 182.473C380.024 183.742 380.066 184.968 380.066 186.745V199.943ZM431.461 189.748L421.266 192.032C419.617 192.413 418.644 192.582 417.502 192.625C417.459 192.625 417.375 192.625 417.29 192.625L417.84 197.531C418.898 197.235 420.293 196.855 421.943 196.474L431.461 194.359V199.604C431.461 202.184 431.418 203.2 431.207 204.638H436.325C436.114 203.284 436.071 202.015 436.071 199.646V193.344L436.41 193.259C438.059 192.878 439.286 192.667 440.428 192.54L440.048 187.591C438.736 188.098 438.482 188.183 436.071 188.733V170.502C436.071 168.175 436.114 167.033 436.325 165.637H431.207C431.418 166.948 431.461 168.091 431.461 170.544V189.748ZM408.449 176.551H405.785C404.135 176.551 403.204 176.508 401.978 176.297V180.907C403.204 180.696 404.177 180.654 405.7 180.654H407.9C407.519 181.88 406.715 183.826 405.869 185.434C404.389 188.31 403.035 190.298 401.089 192.286C402.358 193.936 402.654 194.486 403.585 196.685C405.996 193.64 407.35 191.059 408.703 187.168C408.492 190.34 408.449 191.567 408.449 192.54V199.393C408.449 201.592 408.365 203.03 408.196 204.595H413.187C412.976 202.988 412.933 201.804 412.933 199.393V191.102C412.849 188.521 412.806 186.66 412.722 185.603C413.779 187.929 414.625 189.156 416.698 191.398C417.375 189.621 418.052 188.437 418.982 187.252C416.106 185.095 414.329 183.065 413.145 180.654H415.175C416.486 180.654 417.417 180.696 418.39 180.865V176.339C417.502 176.508 416.698 176.551 415.26 176.551H412.933V171.348C415.048 170.755 417.121 170.079 418.263 169.613C418.771 169.36 418.771 169.36 418.94 169.317L416.317 165.426C413.779 167.075 408.746 168.302 401.893 169.021C402.781 170.586 403.077 171.348 403.5 173.082C405.996 172.744 406.715 172.659 408.449 172.321V176.551ZM419.87 171.432C423.339 173.759 425.158 175.366 427.865 178.412L430.742 174.605C428.415 172.151 426.681 170.755 422.578 167.964L419.87 171.432ZM418.432 181.923C421.562 183.995 423.128 185.349 426.469 188.86L429.134 185.095C426.427 182.473 424.904 181.204 421.139 178.539L418.432 181.923ZM460.013 192.836V199.096C460.013 199.943 459.717 200.069 457.856 200.069C456.545 200.069 454.641 199.943 452.611 199.646C453.33 201.169 453.541 201.888 454.007 204.13C456.206 204.257 457.602 204.299 458.152 204.299C461.959 204.299 463.397 203.961 464.116 202.904C464.539 202.311 464.666 201.719 464.666 200.239V192.836H475.664C477.864 192.836 479.683 192.921 480.909 193.09V188.395C479.64 188.606 477.779 188.691 475.706 188.691H464.666V188.648C467.966 186.618 470.123 185.053 473.126 182.473C473.93 181.796 473.93 181.796 474.649 181.204L472.322 178.623C471.561 178.75 470.757 178.792 469.108 178.792H455.106C453.287 178.792 452.103 178.75 450.834 178.581V182.811C452.188 182.684 453.33 182.642 455.064 182.642H466.697C464.92 184.207 463.524 185.137 461.705 186.068H459.886C459.971 186.787 460.013 187.549 460.013 188.395V188.691H448.508C446.519 188.691 444.827 188.606 443.389 188.395V193.09C444.701 192.921 446.35 192.836 448.55 192.836H460.013ZM448.719 171.94C445.885 171.94 445.631 171.94 443.728 171.771C443.855 172.87 443.897 173.759 443.897 175.282V179.173C443.897 180.484 443.855 181.457 443.685 182.43H448.296V175.874H475.876V182.43H480.486C480.359 181.415 480.275 180.358 480.275 179.215V175.282C480.275 173.674 480.317 172.828 480.444 171.771C478.921 171.898 478.118 171.94 475.241 171.94H473.338C474.311 170.629 475.537 168.683 476.51 166.864L471.942 165.595C471.223 167.583 469.742 170.248 468.473 171.94H464.878C463.947 169.233 463.693 168.64 461.959 165.383L457.56 166.61C458.744 168.471 459.421 169.952 460.14 171.94H455.656C454.26 169.233 453.287 167.71 451.807 165.891L447.535 167.16C449.184 169.233 449.734 170.079 450.707 171.94H448.719ZM514.369 189.748L504.174 192.032C502.525 192.413 501.552 192.582 500.41 192.625C500.367 192.625 500.283 192.625 500.198 192.625L500.748 197.531C501.806 197.235 503.201 196.855 504.851 196.474L514.369 194.359V199.604C514.369 202.184 514.326 203.2 514.115 204.638H519.233C519.022 203.284 518.979 202.015 518.979 199.646V193.344L519.318 193.259C520.967 192.878 522.194 192.667 523.336 192.54L522.956 187.591C521.644 188.098 521.39 188.183 518.979 188.733V170.502C518.979 168.175 519.022 167.033 519.233 165.637H514.115C514.326 166.948 514.369 168.091 514.369 170.544V189.748ZM491.357 176.551H488.693C487.043 176.551 486.112 176.508 484.886 176.297V180.907C486.112 180.696 487.085 180.654 488.608 180.654H490.808C490.427 181.88 489.623 183.826 488.777 185.434C487.297 188.31 485.943 190.298 483.997 192.286C485.266 193.936 485.562 194.486 486.493 196.685C488.904 193.64 490.258 191.059 491.611 187.168C491.4 190.34 491.357 191.567 491.357 192.54V199.393C491.357 201.592 491.273 203.03 491.104 204.595H496.095C495.884 202.988 495.841 201.804 495.841 199.393V191.102C495.757 188.521 495.714 186.66 495.63 185.603C496.687 187.929 497.533 189.156 499.606 191.398C500.283 189.621 500.96 188.437 501.89 187.252C499.014 185.095 497.237 183.065 496.053 180.654H498.083C499.394 180.654 500.325 180.696 501.298 180.865V176.339C500.41 176.508 499.606 176.551 498.168 176.551H495.841V171.348C497.956 170.755 500.029 170.079 501.171 169.613C501.679 169.36 501.679 169.36 501.848 169.317L499.225 165.426C496.687 167.075 491.654 168.302 484.801 169.021C485.689 170.586 485.985 171.348 486.408 173.082C488.904 172.744 489.623 172.659 491.357 172.321V176.551ZM502.778 171.432C506.247 173.759 508.066 175.366 510.773 178.412L513.65 174.605C511.323 172.151 509.589 170.755 505.486 167.964L502.778 171.432ZM501.34 181.923C504.47 183.995 506.036 185.349 509.377 188.86L512.042 185.095C509.335 182.473 507.812 181.204 504.047 178.539L501.34 181.923ZM28.4679 223.118C27.918 226.163 25.2108 232.297 22.5036 236.738C22.1652 236.527 22.1652 236.527 18.9927 234.243C16.92 232.762 15.1011 231.578 12.0132 229.759L8.2908 233.481C12.0555 235.554 16.1163 238.303 19.5003 241.095C17.8506 243.21 16.1586 245.029 14.1282 246.848C10.7865 249.894 7.8678 251.839 3.1725 254.166C5.076 255.773 5.7528 256.535 6.8949 258.565C11.2095 256.154 13.9167 254.25 16.9623 251.586C19.5426 249.301 21.7422 246.933 23.5611 244.521C27.4104 247.948 29.9484 250.57 32.148 253.447L36.2088 249.09C32.5287 245.198 30.3291 243.126 26.7759 240.122C28.4256 237.669 30.0753 234.454 32.7402 228.151C33.5862 226.248 33.7554 225.909 34.2207 225.106L28.4679 223.118ZM71.9946 224.387C70.5987 224.64 69.7527 224.683 66.5379 224.683H54.1017C50.9292 224.683 50.0832 224.64 48.645 224.387V229.547C49.9986 229.378 50.5485 229.336 54.0171 229.336H66.6225C70.0911 229.336 70.6833 229.378 71.9946 229.547V224.387ZM74.6595 239.911C77.9589 239.911 78.5934 239.953 80.0316 240.122V235.089C78.5511 235.342 77.7051 235.385 74.5749 235.385H49.8294C46.6992 235.385 45.8532 235.342 44.3727 235.089V240.122C45.8109 239.953 46.4454 239.911 49.7448 239.911H60.0237C59.7276 248.117 56.4282 252.305 48.1374 254.927C49.8717 256.577 50.5908 257.508 51.606 259.623C61.1658 255.943 65.142 250.359 65.6073 239.911H74.6595ZM83.6271 226.417C82.6119 223.921 81.5967 222.229 79.9047 219.987L76.8591 221.087C78.2973 223.075 79.524 225.233 80.4969 227.644L83.6271 226.417ZM71.3178 222.737C72.8829 224.937 73.8558 226.671 75.0402 229.505L78.2127 228.321C77.0283 225.529 76.0554 223.837 74.448 221.637L71.3178 222.737ZM111.332 229.674C110.655 230.732 110.148 231.324 108.752 232.72C105.198 236.188 101.476 238.853 96.7384 241.307C93.2698 243.083 90.6895 244.056 86.7133 245.114C88.0669 246.848 88.4476 247.567 89.3359 249.513C94.4542 247.736 97.4998 246.383 101.307 244.141V255.477C101.307 257.465 101.265 258.269 101.095 259.496L106.552 259.538C106.383 258.48 106.341 257.423 106.341 255.477V241.095C109.005 239.192 112.093 236.442 114.208 234.158C115.054 233.227 115.054 233.227 115.647 232.762L111.332 229.674ZM157.608 229.886C156.551 230.224 156.17 230.266 154.266 230.266L144.876 230.309C145.003 228.955 145.003 228.574 145.045 227.644C145.13 225.444 145.13 225.444 145.214 224.556C145.214 224.26 145.257 224.006 145.257 223.752C145.299 223.16 145.341 222.991 145.426 222.441L139.758 222.314C139.884 223.075 139.884 223.414 139.884 223.964V225.021C139.884 226.248 139.8 228.701 139.673 230.309L132.27 230.351C130.155 230.351 129.013 230.266 127.575 230.013L127.617 235.215C129.013 235.046 129.606 235.004 132.186 235.004L139.208 234.962C139.165 235.258 139.081 235.681 138.996 236.273C138.615 239.234 137.981 241.307 136.839 243.633C134.597 248.159 131.128 251.501 125.841 254.293C127.617 255.858 128.21 256.535 129.648 258.777C134.978 255.393 138.742 251.543 141.069 247.059C142.972 243.422 143.861 240.249 144.453 234.962L154.309 234.919C154.309 239.784 153.886 245.537 153.378 248.455C152.701 252.135 152.067 253.066 150.248 253.066C148.852 253.066 147.16 252.77 144.664 252.093C145.426 254.039 145.553 254.843 145.637 257.508C147.837 257.846 149.275 257.973 150.882 257.973C155.958 257.973 157.439 256.239 158.539 248.921C158.962 246.129 159.427 239.615 159.554 234.835C159.596 233.354 159.681 232.762 160.019 232.001L157.608 229.886ZM173.978 223.921C174.147 225.063 174.147 225.444 174.147 227.771C174.147 239.615 173.175 245.071 170.129 249.936C168.86 251.966 167.845 253.108 165.772 254.8C167.76 256.154 168.395 256.788 170.044 258.904C172.836 256.154 174.444 253.997 175.882 251.078C178.081 246.721 179.012 241.941 179.308 233.693C179.562 225.402 179.562 225.402 179.731 224.217L173.978 223.921ZM185.188 223.625C185.315 224.429 185.357 225.36 185.357 226.417V227.686L185.145 251.543C185.103 253.87 185.061 254.8 184.765 256.027L187.472 258.904C188.022 258.65 188.36 258.48 189.291 258.142C193.69 256.408 195.89 255.139 198.301 253.066C201.093 250.57 203.292 247.398 205.026 243.21C203.081 241.687 202.531 241.137 201.05 239.234C200.077 242.364 198.851 244.691 196.905 246.975C195.086 249.132 193.394 250.401 190.433 251.797L190.644 227.728C190.687 225.656 190.729 224.937 190.941 223.71L185.188 223.625ZM216.151 235.892C213.36 235.892 211.118 238.134 211.118 240.926C211.118 243.718 213.36 245.96 216.151 245.96C218.943 245.96 221.185 243.718 221.185 240.926C221.185 238.134 218.943 235.892 216.151 235.892ZM237.597 225.317C237.597 225.571 237.597 225.783 237.597 225.909C237.597 226.84 237.471 228.278 237.217 230.013C236.54 235.342 235.059 240.588 233.241 244.521C231.464 248.413 229.73 250.993 227.192 253.531C229.222 254.631 230.026 255.266 232.014 257.169C237.682 250.655 240.981 242.322 242.758 230.182L242.885 229.167L243.096 227.94L243.181 227.221C243.223 226.882 243.266 226.84 243.393 226.375L237.597 225.317ZM250.161 226.332C250.372 226.967 250.499 227.644 250.753 229.378C252.402 240.757 256.336 250.486 261.962 257.212C263.57 255.393 264.458 254.673 266.615 253.32C262.216 248.582 259.255 242.872 257.182 235.046C256.209 231.408 255.448 227.263 255.406 225.317L250.161 226.332ZM255.829 223.71C257.436 226.079 258.324 227.898 259.297 230.605L262.512 229.59C261.497 226.755 260.566 224.979 259.001 222.779L255.829 223.71ZM268.053 227.898C267.123 225.36 266.192 223.583 264.585 221.341L261.455 222.229C262.808 224.175 263.866 226.29 264.839 228.913L268.053 227.898ZM298.371 222.652C297.144 224.725 294.268 227.644 290.503 230.563C283.777 235.765 276.671 239.276 268.296 241.56C269.776 243.464 270.241 244.183 271.13 246.383C278.913 243.591 281.282 242.491 286.231 239.53V254.42C286.231 256.915 286.189 257.761 285.977 258.988H291.899C291.73 257.846 291.688 256.619 291.688 254.293V236.231C295.325 233.566 298.498 230.816 301.67 227.517C302.305 226.84 302.516 226.671 303.235 226.036L298.371 222.652ZM330.55 241.772L330.677 254.42C330.677 254.716 330.677 254.927 330.677 255.181C330.677 256.915 330.592 258.057 330.423 259.242H336.176C336.049 258.057 335.964 256.45 335.922 254.377L335.71 234.75H340.067C342.69 234.75 343.663 234.792 344.932 234.919V229.801C343.451 230.055 342.774 230.097 339.94 230.097H335.668L335.583 226.671V226.417C335.583 224.683 335.626 223.921 335.753 222.822H330.169C330.338 224.429 330.338 224.429 330.381 226.713L330.423 230.097H315.787C312.784 230.097 312.065 230.097 310.457 229.801V234.962C311.98 234.792 312.488 234.792 315.66 234.75H327.25C325.854 236.992 323.739 239.615 321.582 241.73C317.352 245.833 313.291 248.625 308.258 250.909C310.119 252.558 310.753 253.32 311.769 255.308C314.983 253.489 316.379 252.601 318.029 251.416C320.948 249.301 324.036 246.594 326.362 244.056C328.477 241.73 329.788 239.953 330.677 238.134C330.634 238.811 330.55 240.968 330.55 241.18V241.772ZM371.2 232.212H378.306C381.141 232.212 382.198 232.254 383.721 232.424V227.136C382.113 227.39 381.098 227.432 378.222 227.432H359.398C356.522 227.432 355.507 227.39 353.899 227.136V232.424C355.422 232.254 356.522 232.212 359.314 232.212H365.786V249.597H356.226C353.265 249.597 352.377 249.555 350.727 249.301V254.631C352.25 254.462 353.349 254.42 356.141 254.42H381.521C384.313 254.42 385.413 254.462 386.936 254.631V249.301C385.286 249.555 384.398 249.597 381.437 249.597H371.2V232.212ZM394.296 229.843C398.23 232.043 401.698 234.835 405.082 238.43L408.72 233.82C405.463 230.732 402.84 228.786 397.807 225.656L394.296 229.843ZM395.776 257.761C396.749 257.423 396.876 257.381 398.568 257.042C405.125 255.646 410.37 253.574 414.684 250.697C420.479 246.848 424.498 241.857 428.093 234.116C425.936 232.593 425.259 231.958 423.61 229.97C422.341 233.397 421.156 235.723 419.295 238.43C415.953 243.252 412.019 246.51 406.732 248.794C402.883 250.486 397.849 251.713 394.211 251.924L395.776 257.761ZM437.907 228.067C440.995 229.04 445.775 231.535 449.201 233.862L451.908 229.209C448.863 227.305 444.633 225.275 440.657 223.752L437.907 228.067ZM434.565 238.346C438.457 239.784 443.237 242.364 446.029 244.521L448.651 239.742C445.479 237.669 441.333 235.554 437.4 233.989L434.565 238.346ZM459.692 224.387C461.553 226.417 462.737 228.109 464.133 230.689L467.094 229.124C465.656 226.502 464.514 224.894 462.653 222.906L459.692 224.387ZM436.977 258.734C437.78 258.48 438.119 258.396 439.938 258.015C455.081 255.054 464.006 248.117 469.251 235.3C467.306 233.989 466.502 233.312 464.852 231.535C461.807 240.545 455.462 247.482 447.721 250.19C443.237 251.924 438.795 252.897 435.496 252.939L436.977 258.734ZM472.128 226.375C470.817 223.964 469.632 222.356 467.729 220.41L464.895 221.891C466.544 223.71 467.94 225.698 469.209 228.024L472.128 226.375ZM478.175 233.354C479.571 233.185 480.586 233.143 483.124 233.143H499.833C502.371 233.143 503.386 233.185 504.782 233.354V227.771C503.259 228.024 502.286 228.067 499.79 228.067H483.166C480.671 228.067 479.698 228.024 478.175 227.771V233.354ZM473.903 254.039C475.383 253.87 476.483 253.827 479.233 253.827H503.682C506.431 253.827 507.531 253.87 509.012 254.039V248.371C507.404 248.625 506.474 248.667 503.597 248.667H479.317C476.441 248.667 475.51 248.625 473.903 248.371V254.039ZM548.562 224.64C547.378 224.979 546.997 225.021 544.459 225.021H522.379C519.46 225.021 518.149 224.937 516.541 224.683V229.97C518.275 229.759 519.333 229.716 522.294 229.716H544.501C543.529 231.747 542.217 233.481 540.483 235.089C538.749 236.738 537.141 237.711 534.307 238.98C536.211 240.418 536.845 241.053 538.114 242.829C540.102 241.73 541.498 240.799 543.19 239.319C545.77 237.119 548.224 233.946 549.704 230.816C550.804 228.617 550.804 228.574 551.396 227.855L548.562 224.64ZM528.47 233.185C528.639 234.073 528.681 234.454 528.681 235.723C528.681 243.718 527.328 247.356 523.013 250.782C520.94 252.432 519.037 253.362 515.611 254.377C517.303 256.154 517.852 256.915 518.952 259.2C524.24 257 527.328 254.843 529.866 251.586C532.742 247.906 533.884 243.845 534.053 236.611C534.096 234.031 534.096 233.989 534.223 233.185H528.47ZM561.887 223.625C562.014 224.725 562.056 225.275 562.056 227.432V239.065C562.056 240.588 561.971 241.899 561.844 242.872H567.64C567.47 241.814 567.47 241.264 567.47 239.149V227.475C567.47 225.233 567.47 224.852 567.64 223.668L561.887 223.625ZM580.964 223.71C581.133 224.683 581.176 225.571 581.176 227.728V233.016C581.176 236.4 581.133 238.261 580.964 240.08C580.499 245.664 579.103 248.244 575.127 250.866C572.589 252.558 570.135 253.447 565.99 254.25C567.766 256.492 568.189 257.212 568.951 259.284C572.842 258.142 574.957 257.296 577.199 256.027C581.599 253.574 584.306 250.401 585.532 246.171C586.294 243.506 586.59 239.953 586.632 233.354V227.644C586.632 225.233 586.675 224.767 586.844 223.71H580.964ZM599.872 229.843C603.806 232.043 607.275 234.835 610.659 238.43L614.296 233.82C611.039 230.732 608.417 228.786 603.383 225.656L599.872 229.843ZM601.353 257.761C602.326 257.423 602.452 257.381 604.144 257.042C610.701 255.646 615.946 253.574 620.261 250.697C626.056 246.848 630.074 241.857 633.67 234.116C631.513 232.593 630.836 231.958 629.186 229.97C627.917 233.397 626.733 235.723 624.871 238.43C621.53 243.252 617.596 246.51 612.308 248.794C608.459 250.486 603.425 251.713 599.788 251.924L601.353 257.761ZM670.809 229.082L672.628 228.405C671.486 225.613 670.513 223.921 668.863 221.722L665.733 222.779C667.087 224.598 667.848 225.952 668.821 228.067C668.483 228.109 667.764 228.151 666.622 228.151L657.358 228.278C656.512 228.278 655.835 228.321 655.327 228.363L655.666 227.728C655.75 227.559 655.75 227.517 655.962 227.136C656.385 226.29 656.766 225.444 657.104 224.683C657.485 223.879 657.527 223.794 657.823 223.414L652.028 222.229C651.901 223.583 651.14 225.571 649.871 227.855C646.867 233.27 643.483 237.077 638.915 240.122C641.115 241.476 641.749 242.026 643.018 243.76C646.529 241.18 650.548 236.781 652.916 232.889L665.649 232.72C662.265 243.718 655.116 251.289 644.033 255.52C645.768 257.042 646.529 257.973 647.629 259.961C653.72 257.296 658.923 253.574 662.688 249.259C666.664 244.564 668.694 240.799 671.19 233.27C671.655 231.789 671.867 231.282 672.247 230.732L670.809 229.082ZM678.127 226.502C677.112 224.006 676.139 222.314 674.405 220.072L671.359 221.13C672.755 223.033 673.982 225.19 674.997 227.686L678.127 226.502ZM700.208 237.077C697.966 237.077 697.247 237.034 695.978 236.865V241.603C697.374 241.434 698.05 241.391 700.123 241.391C699.996 244.225 699.785 246.213 699.319 248.075C698.347 252.135 696.951 254.885 694.413 257.804C696.147 258.65 697.247 259.453 698.389 260.807C701.223 257.254 702.534 254.462 703.592 249.851C704.184 247.398 704.438 245.156 704.607 241.391H709.514V255.223C709.514 257.296 709.429 258.565 709.26 260.426H714.294C714.082 258.65 713.998 257.042 713.998 255.181V241.391H714.336C716.451 241.391 717.339 241.434 718.566 241.603V236.865C717.382 237.034 716.536 237.077 714.336 237.077H713.998V227.052C716.197 227.052 716.832 227.094 718.143 227.263V222.652C716.874 222.822 715.478 222.906 713.617 222.906H701.392C699.193 222.906 697.627 222.822 696.739 222.652V227.263C697.839 227.094 698.896 227.052 700.208 227.052V237.077ZM704.692 237.077V227.052H709.514V237.077H704.692ZM685.064 227.178C684.684 229.674 684.388 230.859 683.626 232.889C682.146 237.034 680.581 239.615 678.254 241.941C679.142 243.675 679.396 244.479 679.904 247.186C681.257 245.579 681.85 244.733 682.569 243.252C682.484 245.537 682.484 245.706 682.484 247.356V255.096C682.484 256.831 682.399 258.184 682.23 259.411H686.799V255.181H690.436V257.127H694.624C694.54 256.112 694.497 255.562 694.497 253.827V239.276C694.497 237.838 694.497 237.288 694.624 236.188C693.778 236.273 693.355 236.315 692.086 236.315H686.968C688.364 233.101 689.083 230.605 689.633 227.178H691.79C693.271 227.178 694.286 227.221 695.428 227.348V222.822C694.159 223.033 693.186 223.075 691.367 223.075H683.965C682.357 223.075 680.961 222.991 679.861 222.822V227.39C681.088 227.221 681.976 227.178 683.499 227.178H685.064ZM686.799 240.376H690.479V251.459H686.799V240.376ZM737.559 225.402H726.349C724.403 225.402 723.304 225.36 721.696 225.19C721.823 226.163 721.865 226.967 721.865 228.321V231.239C721.865 232.551 721.781 233.481 721.654 234.412H726.265V229.505H733.286C732.948 231.408 732.313 232.635 731.087 233.693C729.522 235.046 727.745 235.681 722.669 236.611C723.938 238.219 724.446 239.065 725.207 240.503C731.383 238.896 733.709 237.669 735.655 234.962C736.797 233.397 737.22 232.297 737.897 229.505H741.408V235.808C741.408 238.261 742.635 238.938 747.034 238.938C751.095 238.938 752.998 238.769 753.971 238.346C755.198 237.796 755.705 236.823 756.044 234.454H758.793C758.666 233.481 758.624 232.635 758.624 231.324V228.321C758.624 226.925 758.666 226.121 758.793 225.19C757.144 225.36 756.086 225.402 754.14 225.402H742.254V224.429C742.254 223.245 742.296 222.483 742.465 221.679H737.305C737.474 222.568 737.559 223.245 737.559 224.429V225.402ZM754.183 232.551C753.252 232.339 752.871 232.254 751.898 231.874C751.856 233.101 751.771 233.904 751.602 234.285C751.306 234.835 750.46 235.046 748.387 235.046C746.061 235.046 745.723 234.919 745.723 233.989V229.505H754.183V232.551ZM739.462 242.28C739.547 241.645 739.547 241.349 739.589 240.714C739.758 238.346 739.758 238.092 739.97 237.288H734.936C735.063 238.176 735.105 238.811 735.105 239.699C735.105 240.461 735.063 241.18 734.936 242.28H728.168C726.053 242.28 724.784 242.195 723.515 242.026V246.679C724.742 246.51 725.968 246.467 728.253 246.467H734.09C733.329 248.751 732.271 250.401 730.664 251.797C728.591 253.616 726.095 254.8 720.935 256.492C722.415 258.184 722.881 258.904 723.727 260.68C728.126 259.115 731.341 257.296 733.879 254.927C736.374 252.558 737.77 250.147 738.743 246.467H745.003L744.877 255.604V255.9C744.877 258.988 746.146 259.792 751.306 259.792C759.216 259.792 759.47 259.496 760.147 249.471C757.99 249.005 757.355 248.794 755.705 248.032C755.663 251.416 755.452 253.658 755.155 254.631C754.859 255.477 754.394 255.604 751.264 255.604C749.741 255.604 749.36 255.35 749.403 254.25L749.53 245.917C749.572 243.929 749.614 243.21 749.699 242.11C748.387 242.237 747.457 242.28 745.257 242.28H739.462ZM779.097 246.848H771.145C768.649 246.848 767.845 246.806 766.619 246.679V251.078C767.972 250.909 768.945 250.866 771.06 250.866H779.097V254.885H767.888C765.307 254.885 763.996 254.843 762.643 254.631V259.242C764.081 259.073 765.773 258.988 768.353 258.988H795.044C797.667 258.988 799.359 259.073 800.839 259.242V254.631C799.528 254.8 798.217 254.885 795.594 254.885H783.75V250.866H792.506C794.537 250.866 795.51 250.909 796.863 251.078V246.679C795.552 246.806 794.706 246.848 792.591 246.848H783.75V242.914C788.953 242.576 788.953 242.576 791.66 242.406C792.506 243.295 792.972 243.845 794.325 245.494L797.752 242.576C793.648 238.43 792.972 237.796 790.222 235.512H791.195C793.691 235.512 794.537 235.554 795.763 235.723V233.524H800.078C799.951 232.466 799.867 231.408 799.867 230.055V227.728C799.867 225.952 799.909 225.402 799.993 224.429C798.682 224.556 797.286 224.598 794.664 224.598H783.708V224.006C783.708 222.948 783.793 222.06 783.919 221.256H778.759C778.886 222.102 778.97 222.991 778.97 224.006V224.598H768.649C766.238 224.598 764.927 224.556 763.404 224.429C763.531 225.486 763.573 226.29 763.573 227.559V229.716C763.573 230.732 763.531 231.705 763.489 232.254C763.404 233.016 763.404 233.016 763.404 233.693H767.634V235.723C768.861 235.554 769.876 235.512 772.71 235.512H774.74C774.021 236.95 773.218 238.261 772.245 239.615C770.341 239.657 769.368 239.657 768.607 239.657C767.296 239.657 766.619 239.615 765.519 239.53L766.027 243.802C766.45 243.76 767.719 243.675 769.749 243.591C776.348 243.295 776.348 243.295 779.097 243.126V246.848ZM795.467 231.493C794.537 231.578 793.479 231.62 791.068 231.62H772.202C769.96 231.62 768.945 231.578 767.972 231.493V228.659H795.467V231.493ZM788.742 235.512L786.161 237.034C787.261 237.923 787.557 238.219 788.403 238.98C785.062 239.192 785.062 239.192 777.151 239.488C778.209 238.007 778.632 237.288 779.605 235.512H788.742Z" fill="#F8F9FF"/>
<path d="M54.781 101.166C54.18 104.983 53.578 110.7 53.578 110.7C53.578 110.7 40.642 72.6957 24.91 65.6117C25.071 65.6117 31.579 80.7567 31.997 90.5787L0 29.9697C0 29.9697 38.197 32.9057 54.781 101.166Z" fill="#F8F9FF"/>
<path d="M57.21 120.5C57.21 120.5 58.725 125.135 59.11 127.299C59.11 127.299 75.006 69.633 103.946 51.8L93.622 87.956L93.36 92.434C98.116 84.653 135.308 0 135.308 0C135.308 0 66.893 21.033 57.21 120.5Z" fill="#F8F9FF"/>
<path d="M1.89 312H11.865V309.06H5.04V297.3H1.89V312ZM18.0592 305.805L19.8022 300.975H19.8862L21.6292 305.805H18.0592ZM12.3892 312H15.7492L17.0092 308.64H22.6792L23.9392 312H27.2992L21.6292 297.3H18.0592L12.3892 312ZM29.2884 312H35.9034C39.0324 312 40.9434 310.089 40.9434 307.8C40.9434 306.372 40.2504 305.511 39.5784 304.944C39.1794 304.629 38.7174 304.377 38.2134 304.23C38.5704 304.083 38.9064 303.852 39.2004 303.579C39.7044 303.096 40.2084 302.361 40.2084 301.185C40.2084 299.085 38.4234 297.3 35.4834 297.3H29.2884V312ZM32.4384 309.27V305.7H35.6934C36.9534 305.7 37.6884 306.414 37.6884 307.485C37.6884 308.556 36.9534 309.27 35.6934 309.27H32.4384ZM32.4384 302.97V300.03H35.2734C36.3444 300.03 36.9534 300.66 36.9534 301.5C36.9534 302.34 36.3444 302.97 35.2734 302.97H32.4384ZM46.0975 304.65C46.0975 302.025 48.1975 299.925 50.8225 299.925C53.4475 299.925 55.5475 302.025 55.5475 304.65C55.5475 307.275 53.4475 309.375 50.8225 309.375C48.1975 309.375 46.0975 307.275 46.0975 304.65ZM42.8425 304.65C42.8425 308.85 46.2865 312.315 50.8225 312.315C55.3585 312.315 58.8025 308.85 58.8025 304.65C58.8025 300.45 55.3585 296.985 50.8225 296.985C46.2865 296.985 42.8425 300.45 42.8425 304.65ZM61.6293 312H64.7793V307.17H67.7193L70.3443 312H73.8093L70.7643 306.54C71.2473 306.33 71.6673 306.036 72.0243 305.658C72.6753 305.007 73.2843 303.915 73.2843 302.235C73.2843 299.295 71.2893 297.3 68.1393 297.3H61.6293V312ZM64.7793 304.23V300.24H68.0343C69.2103 300.24 70.0293 301.059 70.0293 302.235C70.0293 303.411 69.2103 304.23 68.0343 304.23H64.7793ZM80.3209 305.805L82.0639 300.975H82.1479L83.8909 305.805H80.3209ZM74.6509 312H78.0109L79.2709 308.64H84.9409L86.2009 312H89.5609L83.8909 297.3H80.3209L74.6509 312ZM93.0292 312H96.1792V300.24H100.379V297.3H88.8292V300.24H93.0292V312ZM104.586 304.65C104.586 302.025 106.686 299.925 109.311 299.925C111.936 299.925 114.036 302.025 114.036 304.65C114.036 307.275 111.936 309.375 109.311 309.375C106.686 309.375 104.586 307.275 104.586 304.65ZM101.331 304.65C101.331 308.85 104.775 312.315 109.311 312.315C113.847 312.315 117.291 308.85 117.291 304.65C117.291 300.45 113.847 296.985 109.311 296.985C104.775 296.985 101.331 300.45 101.331 304.65ZM120.118 312H123.268V307.17H126.208L128.833 312H132.298L129.253 306.54C129.736 306.33 130.156 306.036 130.513 305.658C131.164 305.007 131.773 303.915 131.773 302.235C131.773 299.295 129.778 297.3 126.628 297.3H120.118V312ZM123.268 304.23V300.24H126.523C127.699 300.24 128.518 301.059 128.518 302.235C128.518 303.411 127.699 304.23 126.523 304.23H123.268ZM138.084 312H141.234V306.75L146.799 297.3H143.124L139.701 303.6H139.617L136.194 297.3H132.519L138.084 306.75V312ZM154.666 304.65C154.666 302.025 156.766 299.925 159.391 299.925C162.016 299.925 164.116 302.025 164.116 304.65C164.116 307.275 162.016 309.375 159.391 309.375C156.766 309.375 154.666 307.275 154.666 304.65ZM151.411 304.65C151.411 308.85 154.855 312.315 159.391 312.315C163.927 312.315 167.371 308.85 167.371 304.65C167.371 300.45 163.927 296.985 159.391 296.985C154.855 296.985 151.411 300.45 151.411 304.65ZM170.198 312H173.348V306.645H179.333V303.705H173.348V300.24H181.013V297.3H170.198V312ZM187.404 312H190.554V302.34L195.279 308.22L200.004 302.34V312H203.154V297.3H200.319L195.279 303.6L190.239 297.3H187.404V312ZM206.927 312H218.057V309.06H210.077V305.91H216.167V303.075H210.077V300.24H217.847V297.3H206.927V312ZM220.893 312H226.248C230.763 312 234.018 308.745 234.018 304.65C234.018 300.555 230.763 297.3 226.248 297.3H220.893V312ZM224.043 309.06V300.24H226.248C228.873 300.24 230.763 302.13 230.763 304.65C230.763 307.17 228.873 309.06 226.248 309.06H224.043ZM236.848 312H239.998V297.3H236.848V312ZM255.015 307.275C254.721 307.674 254.364 308.01 253.944 308.325C253.209 308.85 252.18 309.375 250.815 309.375C248.19 309.375 246.09 307.275 246.09 304.65C246.09 302.025 248.19 299.925 250.815 299.925C252.138 299.925 253.146 300.45 253.839 300.975C254.238 301.29 254.595 301.626 254.91 302.025L257.01 299.925C256.569 299.379 256.065 298.896 255.456 298.455C254.427 297.72 252.852 296.985 250.815 296.985C246.279 296.985 242.835 300.45 242.835 304.65C242.835 308.85 246.279 312.315 250.815 312.315C252.915 312.315 254.469 311.58 255.54 310.845C256.149 310.404 256.674 309.921 257.115 309.375L255.015 307.275ZM263.312 305.805L265.055 300.975H265.139L266.882 305.805H263.312ZM257.642 312H261.002L262.262 308.64H267.932L269.192 312H272.552L266.882 297.3H263.312L257.642 312ZM274.541 312H284.516V309.06H277.691V297.3H274.541V312ZM291.235 312H297.85C300.979 312 302.89 310.089 302.89 307.8C302.89 306.372 302.197 305.511 301.525 304.944C301.126 304.629 300.664 304.377 300.16 304.23C300.517 304.083 300.853 303.852 301.147 303.579C301.651 303.096 302.155 302.361 302.155 301.185C302.155 299.085 300.37 297.3 297.43 297.3H291.235V312ZM294.385 309.27V305.7H297.64C298.9 305.7 299.635 306.414 299.635 307.485C299.635 308.556 298.9 309.27 297.64 309.27H294.385ZM294.385 302.97V300.03H297.22C298.291 300.03 298.9 300.66 298.9 301.5C298.9 302.34 298.291 302.97 297.22 302.97H294.385ZM305.734 312H308.884V297.3H305.734V312ZM314.975 304.65C314.975 302.025 317.075 299.925 319.7 299.925C322.325 299.925 324.425 302.025 324.425 304.65C324.425 307.275 322.325 309.375 319.7 309.375C317.075 309.375 314.975 307.275 314.975 304.65ZM311.72 304.65C311.72 308.85 315.164 312.315 319.7 312.315C324.236 312.315 327.68 308.85 327.68 304.65C327.68 300.45 324.236 296.985 319.7 296.985C315.164 296.985 311.72 300.45 311.72 304.65ZM330.507 312H341.637V309.06H333.657V305.91H339.747V303.075H333.657V300.24H341.427V297.3H330.507V312ZM344.473 312H347.623V302.865L354.763 312H357.598V297.3H354.448V306.435L347.308 297.3H344.473V312ZM368.931 306.435H371.661V308.22C371.43 308.451 371.136 308.64 370.821 308.808C370.254 309.123 369.477 309.375 368.406 309.375C365.781 309.375 363.681 307.275 363.681 304.65C363.681 302.025 365.781 299.925 368.406 299.925C369.729 299.925 370.737 300.45 371.43 300.975C371.829 301.29 372.186 301.626 372.501 302.025L374.601 299.925C374.16 299.379 373.656 298.896 373.047 298.455C372.018 297.72 370.443 296.985 368.406 296.985C363.87 296.985 360.426 300.45 360.426 304.65C360.426 308.85 363.87 312.315 368.406 312.315C370.506 312.315 372.102 311.643 373.173 310.908C373.803 310.488 374.349 310.005 374.811 309.48V303.915H368.931V306.435ZM378.065 312H381.215V297.3H378.065V312ZM384.996 312H388.146V302.865L395.286 312H398.121V297.3H394.971V306.435L387.831 297.3H384.996V312ZM401.895 312H413.025V309.06H405.045V305.91H411.135V303.075H405.045V300.24H412.815V297.3H401.895V312ZM415.861 312H426.991V309.06H419.011V305.91H425.101V303.075H419.011V300.24H426.781V297.3H415.861V312ZM429.827 312H432.977V307.17H435.917L438.542 312H442.007L438.962 306.54C439.445 306.33 439.865 306.036 440.222 305.658C440.873 305.007 441.482 303.915 441.482 302.235C441.482 299.295 439.487 297.3 436.337 297.3H429.827V312ZM432.977 304.23V300.24H436.232C437.408 300.24 438.227 301.059 438.227 302.235C438.227 303.411 437.408 304.23 436.232 304.23H432.977ZM444.633 312H447.783V297.3H444.633V312ZM451.565 312H454.715V302.865L461.855 312H464.69V297.3H461.54V306.435L454.4 297.3H451.565V312ZM476.023 306.435H478.753V308.22C478.522 308.451 478.228 308.64 477.913 308.808C477.346 309.123 476.569 309.375 475.498 309.375C472.873 309.375 470.773 307.275 470.773 304.65C470.773 302.025 472.873 299.925 475.498 299.925C476.821 299.925 477.829 300.45 478.522 300.975C478.921 301.29 479.278 301.626 479.593 302.025L481.693 299.925C481.252 299.379 480.748 298.896 480.139 298.455C479.11 297.72 477.535 296.985 475.498 296.985C470.962 296.985 467.518 300.45 467.518 304.65C467.518 308.85 470.962 312.315 475.498 312.315C477.598 312.315 479.194 311.643 480.265 310.908C480.895 310.488 481.441 310.005 481.903 309.48V303.915H476.023V306.435ZM482.952 313.785L484.632 314.73L487.572 310.215L485.157 308.85L482.952 313.785ZM1.89 340H7.245C11.76 340 15.015 336.745 15.015 332.65C15.015 328.555 11.76 325.3 7.245 325.3H1.89V340ZM5.04 337.06V328.24H7.245C9.87 328.24 11.76 330.13 11.76 332.65C11.76 335.17 9.87 337.06 7.245 337.06H5.04ZM17.8451 340H28.9751V337.06H20.9951V333.91H27.0851V331.075H20.9951V328.24H28.7651V325.3H17.8451V340ZM31.8109 340H34.9609V335.17H38.0059C41.1349 335.17 43.2559 333.091 43.2559 330.235C43.2559 327.379 41.1349 325.3 38.0059 325.3H31.8109V340ZM34.9609 332.23V328.24H37.9009C39.1609 328.24 40.0009 329.059 40.0009 330.235C40.0009 331.411 39.1609 332.23 37.9009 332.23H34.9609ZM48.7184 333.805L50.4614 328.975H50.5454L52.2884 333.805H48.7184ZM43.0484 340H46.4084L47.6684 336.64H53.3384L54.5984 340H57.9584L52.2884 325.3H48.7184L43.0484 340ZM59.9476 340H63.0976V335.17H66.0376L68.6626 340H72.1276L69.0826 334.54C69.5656 334.33 69.9856 334.036 70.3426 333.658C70.9936 333.007 71.6026 331.915 71.6026 330.235C71.6026 327.295 69.6076 325.3 66.4576 325.3H59.9476V340ZM63.0976 332.23V328.24H66.3526C67.5286 328.24 68.3476 329.059 68.3476 330.235C68.3476 331.411 67.5286 332.23 66.3526 332.23H63.0976ZM77.0741 340H80.2241V328.24H84.4241V325.3H72.8741V328.24H77.0741V340ZM86.7308 340H89.8808V330.34L94.6058 336.22L99.3308 330.34V340H102.481V325.3H99.6458L94.6058 331.6L89.5658 325.3H86.7308V340ZM106.254 340H117.384V337.06H109.404V333.91H115.494V331.075H109.404V328.24H117.174V325.3H106.254V340ZM120.22 340H123.37V330.865L130.51 340H133.345V325.3H130.195V334.435L123.055 325.3H120.22V340ZM139.849 340H142.999V328.24H147.199V325.3H135.649V328.24H139.849V340ZM155.589 332.65C155.589 330.025 157.689 327.925 160.314 327.925C162.939 327.925 165.039 330.025 165.039 332.65C165.039 335.275 162.939 337.375 160.314 337.375C157.689 337.375 155.589 335.275 155.589 332.65ZM152.334 332.65C152.334 336.85 155.778 340.315 160.314 340.315C164.85 340.315 168.294 336.85 168.294 332.65C168.294 328.45 164.85 324.985 160.314 324.985C155.778 324.985 152.334 328.45 152.334 332.65ZM171.12 340H174.27V334.645H180.255V331.705H174.27V328.24H181.935V325.3H171.12V340ZM188.327 340H198.302V337.06H191.477V325.3H188.327V340ZM200.611 340H203.761V325.3H200.611V340ZM207.542 340H210.692V334.645H216.677V331.705H210.692V328.24H218.357V325.3H207.542V340ZM220.975 340H232.105V337.06H224.125V333.91H230.215V331.075H224.125V328.24H231.895V325.3H220.975V340ZM237.88 338.005C238.258 338.446 238.72 338.824 239.287 339.16C240.232 339.748 241.639 340.315 243.55 340.315C247.015 340.315 249.115 338.215 249.115 335.8C249.115 330.676 241.765 331.789 241.765 329.29C241.765 328.45 242.374 327.82 243.97 327.82C244.81 327.82 245.482 328.135 245.965 328.45C246.238 328.639 246.469 328.849 246.7 329.08L248.8 326.98C248.443 326.623 248.044 326.287 247.561 325.993C246.742 325.489 245.482 324.985 243.865 324.985C240.505 324.985 238.51 326.98 238.51 329.29C238.51 334.414 245.86 333.301 245.86 335.8C245.86 336.745 245.125 337.48 243.445 337.48C242.332 337.48 241.471 337.102 240.883 336.703C240.526 336.472 240.232 336.199 239.98 335.905L237.88 338.005ZM262.869 335.275C262.575 335.674 262.218 336.01 261.798 336.325C261.063 336.85 260.034 337.375 258.669 337.375C256.044 337.375 253.944 335.275 253.944 332.65C253.944 330.025 256.044 327.925 258.669 327.925C259.992 327.925 261 328.45 261.693 328.975C262.092 329.29 262.449 329.626 262.764 330.025L264.864 327.925C264.423 327.379 263.919 326.896 263.31 326.455C262.281 325.72 260.706 324.985 258.669 324.985C254.133 324.985 250.689 328.45 250.689 332.65C250.689 336.85 254.133 340.315 258.669 340.315C260.769 340.315 262.323 339.58 263.394 338.845C264.003 338.404 264.528 337.921 264.969 337.375L262.869 335.275ZM267.282 340H270.432V325.3H267.282V340ZM274.213 340H285.343V337.06H277.363V333.91H283.453V331.075H277.363V328.24H285.133V325.3H274.213V340ZM288.179 340H291.329V330.865L298.469 340H301.304V325.3H298.154V334.435L291.014 325.3H288.179V340ZM316.312 335.275C316.019 335.674 315.662 336.01 315.242 336.325C314.507 336.85 313.478 337.375 312.113 337.375C309.488 337.375 307.388 335.275 307.388 332.65C307.388 330.025 309.488 327.925 312.113 327.925C313.436 327.925 314.444 328.45 315.137 328.975C315.535 329.29 315.893 329.626 316.208 330.025L318.308 327.925C317.867 327.379 317.363 326.896 316.754 326.455C315.725 325.72 314.15 324.985 312.113 324.985C307.577 324.985 304.133 328.45 304.133 332.65C304.133 336.85 307.577 340.315 312.113 340.315C314.213 340.315 315.767 339.58 316.838 338.845C317.447 338.404 317.972 337.921 318.413 337.375L316.312 335.275ZM320.725 340H331.855V337.06H323.875V333.91H329.965V331.075H323.875V328.24H331.645V325.3H320.725V340ZM333.221 338.005C333.599 338.446 334.061 338.824 334.628 339.16C335.573 339.748 336.98 340.315 338.891 340.315C342.356 340.315 344.456 338.215 344.456 335.8C344.456 330.676 337.106 331.789 337.106 329.29C337.106 328.45 337.715 327.82 339.311 327.82C340.151 327.82 340.823 328.135 341.306 328.45C341.579 328.639 341.81 328.849 342.041 329.08L344.141 326.98C343.784 326.623 343.385 326.287 342.902 325.993C342.083 325.489 340.823 324.985 339.206 324.985C335.846 324.985 333.851 326.98 333.851 329.29C333.851 334.414 341.201 333.301 341.201 335.8C341.201 336.745 340.466 337.48 338.786 337.48C337.673 337.48 336.812 337.102 336.224 336.703C335.867 336.472 335.573 336.199 335.321 335.905L333.221 338.005ZM344.77 341.785L346.45 342.73L349.39 338.215L346.975 336.85L344.77 341.785ZM354.959 338.005C355.337 338.446 355.799 338.824 356.366 339.16C357.311 339.748 358.718 340.315 360.629 340.315C364.094 340.315 366.194 338.215 366.194 335.8C366.194 330.676 358.844 331.789 358.844 329.29C358.844 328.45 359.453 327.82 361.049 327.82C361.889 327.82 362.561 328.135 363.044 328.45C363.317 328.639 363.548 328.849 363.779 329.08L365.879 326.98C365.522 326.623 365.123 326.287 364.64 325.993C363.821 325.489 362.561 324.985 360.944 324.985C357.584 324.985 355.589 326.98 355.589 329.29C355.589 334.414 362.939 333.301 362.939 335.8C362.939 336.745 362.204 337.48 360.524 337.48C359.411 337.48 358.55 337.102 357.962 336.703C357.605 336.472 357.311 336.199 357.059 335.905L354.959 338.005ZM379.948 335.275C379.654 335.674 379.297 336.01 378.877 336.325C378.142 336.85 377.113 337.375 375.748 337.375C373.123 337.375 371.023 335.275 371.023 332.65C371.023 330.025 373.123 327.925 375.748 327.925C377.071 327.925 378.079 328.45 378.772 328.975C379.171 329.29 379.528 329.626 379.843 330.025L381.943 327.925C381.502 327.379 380.998 326.896 380.389 326.455C379.36 325.72 377.785 324.985 375.748 324.985C371.212 324.985 367.768 328.45 367.768 332.65C367.768 336.85 371.212 340.315 375.748 340.315C377.848 340.315 379.402 339.58 380.473 338.845C381.082 338.404 381.607 337.921 382.048 337.375L379.948 335.275ZM384.361 340H387.511V334.015H393.811V340H396.961V325.3H393.811V331.075H387.511V325.3H384.361V340ZM403.056 332.65C403.056 330.025 405.156 327.925 407.781 327.925C410.406 327.925 412.506 330.025 412.506 332.65C412.506 335.275 410.406 337.375 407.781 337.375C405.156 337.375 403.056 335.275 403.056 332.65ZM399.801 332.65C399.801 336.85 403.245 340.315 407.781 340.315C412.317 340.315 415.761 336.85 415.761 332.65C415.761 328.45 412.317 324.985 407.781 324.985C403.245 324.985 399.801 328.45 399.801 332.65ZM420.898 332.65C420.898 330.025 422.998 327.925 425.623 327.925C428.248 327.925 430.348 330.025 430.348 332.65C430.348 335.275 428.248 337.375 425.623 337.375C422.998 337.375 420.898 335.275 420.898 332.65ZM417.643 332.65C417.643 336.85 421.087 340.315 425.623 340.315C430.159 340.315 433.603 336.85 433.603 332.65C433.603 328.45 430.159 324.985 425.623 324.985C421.087 324.985 417.643 328.45 417.643 332.65ZM436.43 340H446.405V337.06H439.58V325.3H436.43V340ZM455.433 332.65C455.433 330.025 457.533 327.925 460.158 327.925C462.783 327.925 464.883 330.025 464.883 332.65C464.883 335.275 462.783 337.375 460.158 337.375C457.533 337.375 455.433 335.275 455.433 332.65ZM452.178 332.65C452.178 336.85 455.622 340.315 460.158 340.315C464.694 340.315 468.138 336.85 468.138 332.65C468.138 328.45 464.694 324.985 460.158 324.985C455.622 324.985 452.178 328.45 452.178 332.65ZM470.965 340H474.115V334.645H480.1V331.705H474.115V328.24H481.78V325.3H470.965V340ZM491.421 333.805L493.164 328.975H493.248L494.991 333.805H491.421ZM485.751 340H489.111L490.371 336.64H496.041L497.301 340H500.661L494.991 325.3H491.421L485.751 340ZM509.8 334.435H512.53V336.22C512.299 336.451 512.005 336.64 511.69 336.808C511.123 337.123 510.346 337.375 509.275 337.375C506.65 337.375 504.55 335.275 504.55 332.65C504.55 330.025 506.65 327.925 509.275 327.925C510.598 327.925 511.606 328.45 512.299 328.975C512.698 329.29 513.055 329.626 513.37 330.025L515.47 327.925C515.029 327.379 514.525 326.896 513.916 326.455C512.887 325.72 511.312 324.985 509.275 324.985C504.739 324.985 501.295 328.45 501.295 332.65C501.295 336.85 504.739 340.315 509.275 340.315C511.375 340.315 512.971 339.643 514.042 338.908C514.672 338.488 515.218 338.005 515.68 337.48V331.915H509.8V334.435ZM518.933 340H522.083V335.17H525.023L527.648 340H531.113L528.068 334.54C528.551 334.33 528.971 334.036 529.328 333.658C529.979 333.007 530.588 331.915 530.588 330.235C530.588 327.295 528.593 325.3 525.443 325.3H518.933V340ZM522.083 332.23V328.24H525.338C526.514 328.24 527.333 329.059 527.333 330.235C527.333 331.411 526.514 332.23 525.338 332.23H522.083ZM533.74 340H536.89V325.3H533.74V340ZM551.906 335.275C551.612 335.674 551.255 336.01 550.835 336.325C550.1 336.85 549.071 337.375 547.706 337.375C545.081 337.375 542.981 335.275 542.981 332.65C542.981 330.025 545.081 327.925 547.706 327.925C549.029 327.925 550.037 328.45 550.73 328.975C551.129 329.29 551.486 329.626 551.801 330.025L553.901 327.925C553.46 327.379 552.956 326.896 552.347 326.455C551.318 325.72 549.743 324.985 547.706 324.985C543.17 324.985 539.726 328.45 539.726 332.65C539.726 336.85 543.17 340.315 547.706 340.315C549.806 340.315 551.36 339.58 552.431 338.845C553.04 338.404 553.565 337.921 554.006 337.375L551.906 335.275ZM556.214 333.91C556.214 337.69 558.839 340.315 562.619 340.315C566.399 340.315 569.024 337.69 569.024 333.91V325.3H565.874V333.91C565.874 336.01 564.53 337.375 562.619 337.375C560.708 337.375 559.364 336.01 559.364 333.91V325.3H556.214V333.91ZM572.704 340H582.679V337.06H575.854V325.3H572.704V340ZM586.468 340H589.618V328.24H593.818V325.3H582.268V328.24H586.468V340ZM596.019 333.91C596.019 337.69 598.644 340.315 602.424 340.315C606.204 340.315 608.829 337.69 608.829 333.91V325.3H605.679V333.91C605.679 336.01 604.335 337.375 602.424 337.375C600.513 337.375 599.169 336.01 599.169 333.91V325.3H596.019V333.91ZM612.51 340H615.66V335.17H618.6L621.225 340H624.69L621.645 334.54C622.128 334.33 622.548 334.036 622.905 333.658C623.556 333.007 624.165 331.915 624.165 330.235C624.165 327.295 622.17 325.3 619.02 325.3H612.51V340ZM615.66 332.23V328.24H618.915C620.091 328.24 620.91 329.059 620.91 330.235C620.91 331.411 620.091 332.23 618.915 332.23H615.66ZM627.317 340H638.447V337.06H630.467V333.91H636.557V331.075H630.467V328.24H638.237V325.3H627.317V340ZM639.078 341.785L640.758 342.73L643.698 338.215L641.283 336.85L639.078 341.785ZM1.89 368H5.04V358.34L9.765 364.22L14.49 358.34V368H17.64V353.3H14.805L9.765 359.6L4.725 353.3H1.89V368ZM21.4134 368H32.5434V365.06H24.5634V361.91H30.6534V359.075H24.5634V356.24H32.3334V353.3H21.4134V368ZM35.3793 368H38.5293V353.3H35.3793V368ZM40.2109 366.425C40.4839 366.782 40.8199 367.097 41.2189 367.37C41.9119 367.853 42.9829 368.315 44.5159 368.315C47.5609 368.315 49.6609 366.194 49.6609 363.065V353.3H46.5109V363.065C46.5109 364.556 45.6709 365.375 44.4109 365.375C43.7599 365.375 43.2349 365.123 42.8779 364.85C42.6469 364.703 42.4579 364.514 42.3109 364.325L40.2109 366.425ZM53.3441 368H56.4941V353.3H53.3441V368ZM64.5799 361.91C64.5799 365.69 67.2049 368.315 70.9849 368.315C74.7649 368.315 77.3899 365.69 77.3899 361.91V353.3H74.2399V361.91C74.2399 364.01 72.8959 365.375 70.9849 365.375C69.0739 365.375 67.7299 364.01 67.7299 361.91V353.3H64.5799V361.91ZM81.0707 368H84.2207V358.865L91.3607 368H94.1957V353.3H91.0457V362.435L83.9057 353.3H81.0707V368ZM97.9691 368H101.119V353.3H97.9691V368ZM108.786 368H112.356L117.816 353.3H114.456L110.613 364.115H110.529L106.686 353.3H103.326L108.786 368ZM120.015 368H131.145V365.06H123.165V361.91H129.255V359.075H123.165V356.24H130.935V353.3H120.015V368ZM133.981 368H137.131V363.17H140.071L142.696 368H146.161L143.116 362.54C143.599 362.33 144.019 362.036 144.376 361.658C145.027 361.007 145.636 359.915 145.636 358.235C145.636 355.295 143.641 353.3 140.491 353.3H133.981V368ZM137.131 360.23V356.24H140.386C141.562 356.24 142.381 357.059 142.381 358.235C142.381 359.411 141.562 360.23 140.386 360.23H137.131ZM147.317 366.005C147.695 366.446 148.157 366.824 148.724 367.16C149.669 367.748 151.076 368.315 152.987 368.315C156.452 368.315 158.552 366.215 158.552 363.8C158.552 358.676 151.202 359.789 151.202 357.29C151.202 356.45 151.811 355.82 153.407 355.82C154.247 355.82 154.919 356.135 155.402 356.45C155.675 356.639 155.906 356.849 156.137 357.08L158.237 354.98C157.88 354.623 157.481 354.287 156.998 353.993C156.179 353.489 154.919 352.985 153.302 352.985C149.942 352.985 147.947 354.98 147.947 357.29C147.947 362.414 155.297 361.301 155.297 363.8C155.297 364.745 154.562 365.48 152.882 365.48C151.769 365.48 150.908 365.102 150.32 364.703C149.963 364.472 149.669 364.199 149.417 363.905L147.317 366.005ZM161.072 368H164.222V353.3H161.072V368ZM170.733 368H173.883V356.24H178.083V353.3H166.533V356.24H170.733V368ZM183.96 368H187.11V362.75L192.675 353.3H189L185.577 359.6H185.493L182.07 353.3H178.395L183.96 362.75V368Z" fill="#F8F9FF"/>
</svg>
