<svg width="1499" height="128" viewBox="0 0 1499 128" fill="none" xmlns="http://www.w3.org/2000/svg">
<path d="M193.559 58.0172V65.2928C193.559 66.3926 193.263 66.6041 191.783 66.6041C190.81 66.6041 189.498 66.4772 187.426 66.1388C188.102 67.7039 188.356 68.8883 188.568 70.9187C189.71 70.961 191.233 71.0033 191.952 71.0033C196.859 71.0033 198.128 70.0304 198.128 66.2657V38.7284C198.128 36.4442 198.17 35.1329 198.297 34.0754C197.028 34.2023 196.097 34.2446 193.728 34.2446H184.592C182.35 34.2446 181.377 34.2023 179.896 34.0754C180.108 35.852 180.192 38.9822 180.192 44.6081C180.192 52.3913 179.769 56.2406 178.627 59.8784C177.358 63.6431 175.878 65.7158 172.578 68.2961C174.355 69.4805 175.201 70.2842 176.301 71.7224C178.881 69.3536 180.277 67.5347 181.546 64.8275C182.561 62.6702 183.28 60.4706 183.746 58.0172H193.559ZM193.559 47.9921V53.8718H184.253C184.465 51.8414 184.592 50.0225 184.634 47.9921H193.559ZM193.559 44.0159H184.718V38.4746H193.559V44.0159ZM162.384 58.9901C162.384 61.1051 162.299 62.6702 162.13 64.0238H166.783V60.8936H172.748V62.4587H177.104C177.062 61.5281 177.02 60.4283 177.02 58.1441V38.9399C177.02 36.9518 177.062 36.1058 177.147 35.0906C176.047 35.1752 175.243 35.2175 173.509 35.2175H166.825C164.414 35.2175 163.399 35.1752 162.215 35.0906C162.342 36.4019 162.384 37.4171 162.384 39.4475V58.9901ZM166.741 39.3629H172.748V45.7502H166.741V39.3629ZM166.741 49.6841H172.748V56.8328H166.741V49.6841ZM213.017 50.234C214.286 50.0225 214.455 49.9802 218.558 49.7264C224.777 49.3457 231.164 48.7535 235.732 48.1613C236.282 49.2611 236.62 49.9802 237.551 52.0106L241.866 49.811C238.101 42.9584 236.959 41.1818 233.363 36.8249L229.387 38.5592C231.418 41.0126 232.221 42.1124 233.702 44.4812C230.064 44.9042 225.326 45.2849 221.266 45.4541C223.296 41.9432 224.819 38.9822 226.257 35.5559C226.68 34.583 226.807 34.2446 227.103 33.737L221.815 32.2988C221.223 35.3444 218.939 40.5473 216.02 45.6233C215.09 45.6233 214.794 45.6233 214.455 45.6233C213.567 45.6233 213.186 45.581 212.298 45.4964L213.017 50.234ZM204.176 36.2327C207.433 38.2208 209.548 39.8282 211.875 42.0278L214.751 38.4746C211.875 35.8943 210.437 34.8368 207.053 32.6795L204.176 36.2327ZM202.273 46.7654C205.318 48.6266 207.18 49.9802 209.971 52.4336L212.594 48.5843C209.337 46.0886 208.026 45.2003 204.938 43.3814L202.273 46.7654ZM209.041 54.5486C207.053 60.7667 205.149 64.7429 202.78 67.577L206.841 71.0879C207.095 70.6226 207.222 70.3265 207.73 69.4382C209.718 65.8427 211.156 62.4164 212.848 57.2558L209.041 54.5486ZM220.208 69.3113H233.279V71.4263H238.143C237.974 70.3688 237.89 68.9729 237.89 66.6041V57.425C237.89 55.0562 237.932 54.0833 238.059 53.0258C236.959 53.1527 235.817 53.195 233.702 53.195H219.489C217.755 53.195 216.528 53.1527 215.47 53.0258C215.597 54.1679 215.64 55.3523 215.64 57.0866V67.0694C215.64 69.1421 215.597 70.2842 215.47 71.384H220.208V69.3113ZM220.208 57.5096H233.236V64.9544H220.208V57.5096ZM276.425 47.1884C278.751 47.1884 280.02 47.273 281.712 47.4845V42.1124C280.274 42.3239 278.794 42.4085 276.382 42.4085H265.173C265.215 40.8434 265.258 39.8705 265.258 38.1362C265.3 35.3021 265.342 34.6676 265.554 33.1871H259.97C260.139 34.3715 260.266 35.6405 260.266 37.4171C260.266 39.6167 260.224 40.2935 260.139 42.4085H249.776C247.28 42.4085 245.757 42.3239 244.446 42.1124V47.4845C245.842 47.273 247.069 47.1884 249.733 47.1884H259.716C258.701 54.3794 255.867 59.117 250.199 63.1355C248.084 64.616 246.392 65.5043 243.346 66.731C244.7 68.2538 245.588 69.5651 246.307 71.1725C250.495 69.3536 253.54 67.3655 256.417 64.5314C259.801 61.1897 262.043 57.5519 263.312 53.195C264.877 57.1289 266.95 60.5129 269.699 63.4316C272.702 66.6887 275.621 68.846 280.147 71.1725C281.205 68.8883 281.797 68 283.235 66.308C278.201 64.2353 274.69 61.8242 271.56 58.271C268.768 55.0985 266.527 50.9954 265.469 47.1884H276.425ZM302.355 59.8361V66.0965C302.355 66.9425 302.059 67.0694 300.197 67.0694C298.886 67.0694 296.983 66.9425 294.952 66.6464C295.671 68.1692 295.883 68.8883 296.348 71.1302C298.548 71.2571 299.944 71.2994 300.494 71.2994C304.301 71.2994 305.739 70.961 306.458 69.9035C306.881 69.3113 307.008 68.7191 307.008 67.2386V59.8361H318.006C320.205 59.8361 322.024 59.9207 323.251 60.0899V55.3946C321.982 55.6061 320.121 55.6907 318.048 55.6907H307.008V55.6484C310.307 53.618 312.464 52.0529 315.468 49.4726C316.271 48.7958 316.271 48.7958 316.99 48.2036L314.664 45.6233C313.903 45.7502 313.099 45.7925 311.449 45.7925H297.448C295.629 45.7925 294.445 45.7502 293.176 45.581V49.811C294.529 49.6841 295.671 49.6418 297.406 49.6418H309.038C307.261 51.2069 305.866 52.1375 304.047 53.0681H302.228C302.312 53.7872 302.355 54.5486 302.355 55.3946V55.6907H290.849C288.861 55.6907 287.169 55.6061 285.731 55.3946V60.0899C287.042 59.9207 288.692 59.8361 290.891 59.8361H302.355ZM291.061 38.9399C288.226 38.9399 287.973 38.9399 286.069 38.7707C286.196 39.8705 286.238 40.7588 286.238 42.2816V46.1732C286.238 47.4845 286.196 48.4574 286.027 49.4303H290.638V42.8738H318.217V49.4303H322.828C322.701 48.4151 322.616 47.3576 322.616 46.2155V42.2816C322.616 40.6742 322.659 39.8282 322.786 38.7707C321.263 38.8976 320.459 38.9399 317.583 38.9399H315.679C316.652 37.6286 317.879 35.6828 318.852 33.8639L314.283 32.5949C313.564 34.583 312.084 37.2479 310.815 38.9399H307.219C306.289 36.2327 306.035 35.6405 304.301 32.3834L299.901 33.6101C301.086 35.4713 301.763 36.9518 302.482 38.9399H297.998C296.602 36.2327 295.629 34.7099 294.149 32.891L289.876 34.16C291.526 36.2327 292.076 37.0787 293.049 38.9399H291.061ZM362.04 65.8004C365.72 68.8883 370.5 70.7072 377.226 71.5532C377.818 69.9458 378.157 69.0998 379.13 67.2386C375.999 67.1117 373.334 66.6887 370.289 65.8427C372.15 64.7006 373.081 64.0238 374.35 62.9663L370.754 61.5704H374.265C375.999 61.5704 376.803 61.6127 377.776 61.7396V57.9749C376.761 58.1018 376.084 58.1441 374.265 58.1441H346.939C347.024 56.579 347.066 55.8176 347.066 54.7178V52.1798H373.377C375.111 52.1798 376.676 52.2644 377.438 52.349V48.542C376.295 48.7112 375.196 48.7535 373.377 48.7535H346.474C344.867 48.7535 343.767 48.7112 342.286 48.542C342.413 49.5995 342.498 52.0106 342.498 53.8295C342.498 61.1474 341.652 64.7006 339.114 68.1692C340.51 69.3113 341.06 69.9458 342.667 71.9339C344.74 68.9729 346.009 65.6312 346.601 61.5704H350.789V66.9848C349.52 67.0694 347.193 67.1963 346.22 67.1963C346.093 67.1963 346.009 67.1963 345.755 67.154L346.559 71.5109C346.982 71.384 347.405 71.2994 348.208 71.2148C354.384 70.5803 358.403 69.9881 362.125 69.1421L362.04 65.8004ZM355.103 61.5704H358.699C359.587 63.1778 360.391 64.2353 361.744 65.5043C358.741 66.0119 356.541 66.3503 355.103 66.5195V61.5704ZM370.331 61.5704C369.147 62.7125 367.962 63.6431 366.693 64.4468C365.001 63.6008 364.155 62.924 363.182 61.5704H370.331ZM366.101 34.8791C366.101 33.9908 366.143 33.1871 366.313 32.3411H361.617C361.702 32.8487 361.787 33.9062 361.829 34.8791H357.091C357.091 33.9908 357.134 33.1871 357.303 32.3411H352.65C352.777 33.1871 352.819 33.9062 352.861 34.8791H348.377C346.559 34.8791 344.909 34.7945 343.598 34.7099C343.724 35.8943 343.767 36.7403 343.767 38.6861V43.3814C343.767 45.3695 343.724 46.2578 343.64 47.273C344.782 47.1884 346.262 47.1461 347.405 47.1461H371.177C373.123 47.1461 373.715 47.1461 375.407 47.273C375.323 46.3847 375.28 45.0311 375.28 43.4237V38.6438C375.28 36.698 375.323 35.852 375.449 34.7099C373.588 34.8368 372.954 34.8791 370.67 34.8791H366.101ZM352.861 38.0093V39.659H348.124V38.0093H352.861ZM357.091 38.0093H361.829V39.659H357.091V38.0093ZM366.101 38.0093H370.881V39.659H366.101V38.0093ZM352.861 42.5777V44.2274H348.124V42.5777H352.861ZM357.091 42.5777H361.829V44.2274H357.091V42.5777ZM366.101 42.5777H370.881V44.2274H366.101V42.5777ZM348.589 56.8751C349.773 56.7482 350.408 56.7059 352.354 56.7059H371.219C373.208 56.7059 373.8 56.7482 374.984 56.8751V53.4488C373.927 53.5757 373.292 53.618 371.219 53.618H352.354C350.281 53.618 349.646 53.5757 348.589 53.4488V56.8751ZM398.503 59.8361V66.0965C398.503 66.9425 398.207 67.0694 396.346 67.0694C395.034 67.0694 393.131 66.9425 391.1 66.6464C391.82 68.1692 392.031 68.8883 392.496 71.1302C394.696 71.2571 396.092 71.2994 396.642 71.2994C400.449 71.2994 401.887 70.961 402.606 69.9035C403.029 69.3113 403.156 68.7191 403.156 67.2386V59.8361H414.154C416.354 59.8361 418.172 59.9207 419.399 60.0899V55.3946C418.13 55.6061 416.269 55.6907 414.196 55.6907H403.156V55.6484C406.455 53.618 408.613 52.0529 411.616 49.4726C412.42 48.7958 412.42 48.7958 413.139 48.2036L410.812 45.6233C410.051 45.7502 409.247 45.7925 407.597 45.7925H393.596C391.777 45.7925 390.593 45.7502 389.324 45.581V49.811C390.677 49.6841 391.82 49.6418 393.554 49.6418H405.186C403.41 51.2069 402.014 52.1375 400.195 53.0681H398.376C398.461 53.7872 398.503 54.5486 398.503 55.3946V55.6907H386.997C385.009 55.6907 383.317 55.6061 381.879 55.3946V60.0899C383.19 59.9207 384.84 59.8361 387.04 59.8361H398.503ZM387.209 38.9399C384.375 38.9399 384.121 38.9399 382.217 38.7707C382.344 39.8705 382.387 40.7588 382.387 42.2816V46.1732C382.387 47.4845 382.344 48.4574 382.175 49.4303H386.786V42.8738H414.365V49.4303H418.976C418.849 48.4151 418.765 47.3576 418.765 46.2155V42.2816C418.765 40.6742 418.807 39.8282 418.934 38.7707C417.411 38.8976 416.607 38.9399 413.731 38.9399H411.827C412.8 37.6286 414.027 35.6828 415 33.8639L410.432 32.5949C409.712 34.583 408.232 37.2479 406.963 38.9399H403.367C402.437 36.2327 402.183 35.6405 400.449 32.3834L396.05 33.6101C397.234 35.4713 397.911 36.9518 398.63 38.9399H394.146C392.75 36.2327 391.777 34.7099 390.297 32.891L386.024 34.16C387.674 36.2327 388.224 37.0787 389.197 38.9399H387.209ZM436.573 36.5711V35.3867C436.573 34.16 436.658 33.2717 436.784 32.4257H431.751C431.92 33.2717 432.005 34.2023 432.005 35.3867V36.5711H427.69C425.617 36.5711 424.644 36.5288 423.671 36.3596V40.928C424.602 40.7588 425.575 40.7165 427.14 40.7165H440.676C442.495 40.7165 443.341 40.7588 444.229 40.928V36.3596C443.214 36.5288 442.283 36.5711 440.38 36.5711H436.573ZM439.703 47.9921C440.634 46.0463 441.353 44.2274 441.945 42.197L437.588 41.0972C437.038 43.6775 436.404 45.6233 435.389 47.9921H427.055C424.898 47.9921 423.925 47.9498 422.783 47.7806V52.4336C424.01 52.2644 424.94 52.2221 427.013 52.2221H441.184C442.58 52.2221 443.679 52.2644 444.61 52.4336V47.7806C443.806 47.9498 442.791 47.9921 440.972 47.9921H439.703ZM426.421 42.0278C427.352 43.9736 427.817 45.4118 428.409 47.9498L432.597 46.6808C431.962 44.312 431.37 42.7046 430.397 40.7588L426.421 42.0278ZM429.72 68.8883H437.969V71.2994H442.622C442.495 70.3688 442.453 69.6074 442.453 68.1269V57.848C442.453 56.0291 442.495 55.4792 442.58 54.7178C441.945 54.8024 441.226 54.8447 439.492 54.8447H428.578C427.013 54.8447 426.167 54.8024 425.194 54.7178C425.279 55.6907 425.321 56.4521 425.321 58.1864V67.3655C425.321 69.1421 425.279 70.1573 425.152 71.3417H429.72V68.8883ZM429.72 58.9055H438.011V64.8275H429.72V58.9055ZM459.88 33.4409C459.077 33.6101 458.188 33.6524 456.539 33.6524H449.221C447.825 33.6524 446.894 33.6101 445.752 33.4832C445.879 34.6253 445.921 35.8097 445.921 37.0364V66.7733C445.921 68.5922 445.837 70.2419 445.667 71.5955H450.659C450.447 70.3688 450.363 68.9306 450.363 66.6464V37.8401H456.242C455.312 41.3933 454.043 44.3966 451.589 48.9227C454.085 51.2492 455.016 52.4759 455.989 54.4217C456.877 56.2406 457.342 58.1018 457.342 59.8784C457.342 61.232 456.665 61.6973 454.55 61.6973C453.324 61.6973 452.478 61.6127 451.378 61.4435C452.055 62.8394 452.266 63.8546 452.351 66.0542C453.366 66.1388 453.747 66.1388 454.466 66.1388C456.539 66.1388 457.723 66.0119 458.78 65.5889C460.684 64.9121 461.784 62.9663 461.784 60.3014C461.784 58.3979 461.361 56.2406 460.599 54.4217C459.796 52.349 458.865 50.9531 456.539 48.2882C458.315 44.9042 459.669 41.9855 461.107 38.2208C461.488 37.2479 461.657 36.9095 461.953 36.3596L459.88 33.4409ZM494.905 44.9888V52.772H488.348C486.022 52.772 484.626 52.6874 483.272 52.5182V57.1712C484.711 57.002 486.403 56.9174 488.391 56.9174H494.905V65.885H484.034C481.792 65.885 479.973 65.8004 478.154 65.5889V70.4111C480.142 70.1996 481.961 70.115 484.161 70.115H510.048C512.29 70.115 513.813 70.1996 515.801 70.4111V65.5889C514.109 65.8004 512.333 65.885 509.921 65.885H499.769V56.9174H507.087C509.075 56.9174 510.767 57.002 512.29 57.1712V52.5182C510.894 52.6874 509.202 52.772 507.087 52.772H499.769V44.9888H508.695C510.725 44.9888 512.459 45.0734 514.278 45.2426V40.5896C512.544 40.7588 510.725 40.8434 508.568 40.8434H499.769V37.5863C499.769 35.3444 499.854 33.9485 500.023 32.5526H494.609C494.82 34.1177 494.905 35.429 494.905 37.6286V40.8434H488.01C488.56 39.3629 488.941 38.3054 489.152 37.6709C489.448 36.6134 489.448 36.5711 489.575 36.275C489.871 35.5136 489.871 35.5136 489.956 35.1752L485.134 33.9908C484.964 35.2175 484.753 36.1058 484.203 37.9247C482.765 42.62 480.227 47.0615 477.054 50.2763C478.45 51.2492 479.423 52.2644 480.523 53.8718C482.849 51.1646 484.541 48.6266 486.276 44.9888H494.905ZM528.83 46.9346C530.014 46.8077 531.114 46.7654 532.552 46.7654H543.846C545.58 46.7654 546.596 46.8077 547.653 46.9346V44.5235C550.064 46.0886 552.898 47.6537 555.732 48.8804C556.832 46.7231 557.255 46.0463 558.651 44.3966C554.463 43.0007 551.587 41.6471 548.118 39.4052C544.861 37.2479 542.704 35.3021 540.504 32.468H535.386C533.229 35.2175 531.241 37.0787 528.11 39.3206C525.234 41.3933 522.231 42.9584 517.874 44.6927C519.27 46.0886 519.904 46.9769 520.75 48.7535C524.6 47.0192 525.572 46.4693 528.83 44.3543V46.9346ZM532.552 42.8315C531.791 42.8315 531.579 42.8315 531.114 42.8315C533.948 40.8011 535.809 39.0668 538.093 36.275C540.335 38.8553 542.577 40.8857 545.242 42.8315C544.438 42.8315 544.269 42.8315 543.804 42.8315H532.552ZM526.418 66.2234H531.917V67.9154H536.359C536.274 66.6464 536.232 65.7158 536.232 64.0238V53.3219C536.232 51.6299 536.274 50.5724 536.359 49.4726C535.259 49.5572 534.329 49.5995 532.594 49.5995H525.53C523.711 49.5995 522.908 49.5572 521.935 49.4726C522.019 50.5724 522.062 51.4607 522.062 53.1104V64.4045C522.062 66.1811 522.019 67.2809 521.85 68.7191H526.418V66.2234ZM526.418 53.6603H531.917V62.1626H526.418V53.6603ZM539.066 66.9425C539.066 68.9306 538.982 70.3688 538.855 71.7647H543.761C543.592 70.6226 543.508 69.1844 543.508 67.2386V53.7026H549.937V62.5856C549.937 63.5162 549.683 63.77 548.668 63.77C547.738 63.77 546.553 63.6854 545.03 63.5162C545.665 64.9967 545.919 66.1388 546.003 67.8731C546.384 67.9154 546.68 67.9154 546.849 67.9154C548.034 67.9577 548.837 67.9577 548.922 67.9577C550.868 67.9577 552.264 67.7039 553.025 67.1963C554.083 66.5195 554.421 65.5889 554.421 63.4316V53.6603C554.421 51.8414 554.463 50.7416 554.59 49.4726C553.787 49.5995 552.687 49.6418 550.783 49.6418H542.789C540.97 49.6418 539.912 49.5995 538.939 49.4726C539.024 50.7416 539.066 51.9683 539.066 53.7449V66.9425ZM590.461 56.7482L580.266 59.0324C578.617 59.4131 577.644 59.5823 576.502 59.6246C576.459 59.6246 576.375 59.6246 576.29 59.6246L576.84 64.5314C577.898 64.2353 579.293 63.8546 580.943 63.4739L590.461 61.3589V66.6041C590.461 69.1844 590.418 70.1996 590.207 71.6378H595.325C595.114 70.2842 595.071 69.0152 595.071 66.6464V60.3437L595.41 60.2591C597.059 59.8784 598.286 59.6669 599.428 59.54L599.048 54.5909C597.736 55.0985 597.482 55.1831 595.071 55.733V37.5017C595.071 35.1752 595.114 34.0331 595.325 32.6372H590.207C590.418 33.9485 590.461 35.0906 590.461 37.544V56.7482ZM567.449 43.5506H564.785C563.135 43.5506 562.204 43.5083 560.978 43.2968V47.9075C562.204 47.696 563.177 47.6537 564.7 47.6537H566.9C566.519 48.8804 565.715 50.8262 564.869 52.4336C563.389 55.31 562.035 57.2981 560.089 59.2862C561.358 60.9359 561.654 61.4858 562.585 63.6854C564.996 60.6398 566.35 58.0595 567.703 54.1679C567.492 57.3404 567.449 58.5671 567.449 59.54V66.3926C567.449 68.5922 567.365 70.0304 567.196 71.5955H572.187C571.976 69.9881 571.933 68.8037 571.933 66.3926V58.1018C571.849 55.5215 571.806 53.6603 571.722 52.6028C572.779 54.9293 573.625 56.156 575.698 58.3979C576.375 56.6213 577.052 55.4369 577.982 54.2525C575.106 52.0952 573.329 50.0648 572.145 47.6537H574.175C575.486 47.6537 576.417 47.696 577.39 47.8652V43.3391C576.502 43.5083 575.698 43.5506 574.26 43.5506H571.933V38.3477C574.048 37.7555 576.121 37.0787 577.263 36.6134C577.771 36.3596 577.771 36.3596 577.94 36.3173L575.317 32.4257C572.779 34.0754 567.746 35.3021 560.893 36.0212C561.781 37.5863 562.077 38.3477 562.5 40.082C564.996 39.7436 565.715 39.659 567.449 39.3206V43.5506ZM578.87 38.4323C582.339 40.7588 584.158 42.3662 586.865 45.4118L589.742 41.6048C587.415 39.1514 585.681 37.7555 581.578 34.9637L578.87 38.4323ZM577.432 48.9227C580.562 50.9954 582.128 52.349 585.469 55.8599L588.134 52.0952C585.427 49.4726 583.904 48.2036 580.139 45.5387L577.432 48.9227ZM619.013 59.8361V66.0965C619.013 66.9425 618.717 67.0694 616.856 67.0694C615.545 67.0694 613.641 66.9425 611.611 66.6464C612.33 68.1692 612.541 68.8883 613.007 71.1302C615.206 71.2571 616.602 71.2994 617.152 71.2994C620.959 71.2994 622.397 70.961 623.116 69.9035C623.539 69.3113 623.666 68.7191 623.666 67.2386V59.8361H634.664C636.864 59.8361 638.683 59.9207 639.909 60.0899V55.3946C638.64 55.6061 636.779 55.6907 634.706 55.6907H623.666V55.6484C626.966 53.618 629.123 52.0529 632.126 49.4726C632.93 48.7958 632.93 48.7958 633.649 48.2036L631.322 45.6233C630.561 45.7502 629.757 45.7925 628.108 45.7925H614.106C612.287 45.7925 611.103 45.7502 609.834 45.581V49.811C611.188 49.6841 612.33 49.6418 614.064 49.6418H625.697C623.92 51.2069 622.524 52.1375 620.705 53.0681H618.886C618.971 53.7872 619.013 54.5486 619.013 55.3946V55.6907H607.508C605.519 55.6907 603.827 55.6061 602.389 55.3946V60.0899C603.701 59.9207 605.35 59.8361 607.55 59.8361H619.013ZM607.719 38.9399C604.885 38.9399 604.631 38.9399 602.728 38.7707C602.855 39.8705 602.897 40.7588 602.897 42.2816V46.1732C602.897 47.4845 602.855 48.4574 602.685 49.4303H607.296V42.8738H634.876V49.4303H639.486C639.359 48.4151 639.275 47.3576 639.275 46.2155V42.2816C639.275 40.6742 639.317 39.8282 639.444 38.7707C637.921 38.8976 637.118 38.9399 634.241 38.9399H632.338C633.311 37.6286 634.537 35.6828 635.51 33.8639L630.942 32.5949C630.223 34.583 628.742 37.2479 627.473 38.9399H623.878C622.947 36.2327 622.693 35.6405 620.959 32.3834L616.56 33.6101C617.744 35.4713 618.421 36.9518 619.14 38.9399H614.656C613.26 36.2327 612.287 34.7099 610.807 32.891L606.535 34.16C608.184 36.2327 608.734 37.0787 609.707 38.9399H607.719ZM673.369 56.7482L663.174 59.0324C661.525 59.4131 660.552 59.5823 659.41 59.6246C659.367 59.6246 659.283 59.6246 659.198 59.6246L659.748 64.5314C660.806 64.2353 662.201 63.8546 663.851 63.4739L673.369 61.3589V66.6041C673.369 69.1844 673.326 70.1996 673.115 71.6378H678.233C678.022 70.2842 677.979 69.0152 677.979 66.6464V60.3437L678.318 60.2591C679.967 59.8784 681.194 59.6669 682.336 59.54L681.956 54.5909C680.644 55.0985 680.39 55.1831 677.979 55.733V37.5017C677.979 35.1752 678.022 34.0331 678.233 32.6372H673.115C673.326 33.9485 673.369 35.0906 673.369 37.544V56.7482ZM650.357 43.5506H647.693C646.043 43.5506 645.112 43.5083 643.886 43.2968V47.9075C645.112 47.696 646.085 47.6537 647.608 47.6537H649.808C649.427 48.8804 648.623 50.8262 647.777 52.4336C646.297 55.31 644.943 57.2981 642.997 59.2862C644.266 60.9359 644.562 61.4858 645.493 63.6854C647.904 60.6398 649.258 58.0595 650.611 54.1679C650.4 57.3404 650.357 58.5671 650.357 59.54V66.3926C650.357 68.5922 650.273 70.0304 650.104 71.5955H655.095C654.884 69.9881 654.841 68.8037 654.841 66.3926V58.1018C654.757 55.5215 654.714 53.6603 654.63 52.6028C655.687 54.9293 656.533 56.156 658.606 58.3979C659.283 56.6213 659.96 55.4369 660.89 54.2525C658.014 52.0952 656.237 50.0648 655.053 47.6537H657.083C658.394 47.6537 659.325 47.696 660.298 47.8652V43.3391C659.41 43.5083 658.606 43.5506 657.168 43.5506H654.841V38.3477C656.956 37.7555 659.029 37.0787 660.171 36.6134C660.679 36.3596 660.679 36.3596 660.848 36.3173L658.225 32.4257C655.687 34.0754 650.654 35.3021 643.801 36.0212C644.689 37.5863 644.985 38.3477 645.408 40.082C647.904 39.7436 648.623 39.659 650.357 39.3206V43.5506ZM661.778 38.4323C665.247 40.7588 667.066 42.3662 669.773 45.4118L672.65 41.6048C670.323 39.1514 668.589 37.7555 664.486 34.9637L661.778 38.4323ZM660.34 48.9227C663.47 50.9954 665.036 52.349 668.377 55.8599L671.042 52.0952C668.335 49.4726 666.812 48.2036 663.047 45.5387L660.34 48.9227ZM724.637 34.1177C724.087 37.1633 721.38 43.2968 718.672 47.7383C718.334 47.5268 718.334 47.5268 715.161 45.2426C713.089 43.7621 711.27 42.5777 708.182 40.7588L704.46 44.4812C708.224 46.5539 712.285 49.3034 715.669 52.0952C714.019 54.2102 712.327 56.0291 710.297 57.848C706.955 60.8936 704.037 62.8394 699.341 65.1659C701.245 66.7733 701.922 67.5347 703.064 69.5651C707.378 67.154 710.085 65.2505 713.131 62.5856C715.711 60.3014 717.911 57.9326 719.73 55.5215C723.579 58.9478 726.117 61.5704 728.317 64.4468L732.378 60.0899C728.697 56.1983 726.498 54.1256 722.945 51.1223C724.594 48.6689 726.244 45.4541 728.909 39.1514C729.755 37.2479 729.924 36.9095 730.389 36.1058L724.637 34.1177ZM768.163 35.3867C766.767 35.6405 765.921 35.6828 762.707 35.6828H750.27C747.098 35.6828 746.252 35.6405 744.814 35.3867V40.5473C746.167 40.3781 746.717 40.3358 750.186 40.3358H762.791C766.26 40.3358 766.852 40.3781 768.163 40.5473V35.3867ZM770.828 50.9108C774.128 50.9108 774.762 50.9531 776.2 51.1223V46.0886C774.72 46.3424 773.874 46.3847 770.744 46.3847H745.998C742.868 46.3847 742.022 46.3424 740.541 46.0886V51.1223C741.98 50.9531 742.614 50.9108 745.913 50.9108H756.192C755.896 59.117 752.597 63.3047 744.306 65.9273C746.04 67.577 746.759 68.5076 747.775 70.6226C757.334 66.9425 761.311 61.3589 761.776 50.9108H770.828ZM779.796 37.4171C778.781 34.9214 777.765 33.2294 776.073 30.9875L773.028 32.0873C774.466 34.0754 775.693 36.2327 776.666 38.6438L779.796 37.4171ZM767.486 33.737C769.052 35.9366 770.024 37.6709 771.209 40.505L774.381 39.3206C773.197 36.5288 772.224 34.8368 770.617 32.6372L767.486 33.737ZM807.501 40.6742C806.824 41.7317 806.316 42.3239 804.92 43.7198C801.367 47.1884 797.645 49.8533 792.907 52.3067C789.439 54.0833 786.858 55.0562 782.882 56.1137C784.236 57.848 784.616 58.5671 785.505 60.5129C790.623 58.7363 793.669 57.3827 797.476 55.1408V66.4772C797.476 68.4653 797.433 69.269 797.264 70.4957L802.721 70.538C802.552 69.4805 802.509 68.423 802.509 66.4772V52.0952C805.174 50.1917 808.262 47.4422 810.377 45.158C811.223 44.2274 811.223 44.2274 811.815 43.7621L807.501 40.6742ZM853.777 40.8857C852.719 41.2241 852.339 41.2664 850.435 41.2664L841.045 41.3087C841.171 39.9551 841.171 39.5744 841.214 38.6438C841.298 36.4442 841.298 36.4442 841.383 35.5559C841.383 35.2598 841.425 35.006 841.425 34.7522C841.468 34.16 841.51 33.9908 841.594 33.4409L835.926 33.314C836.053 34.0754 836.053 34.4138 836.053 34.9637V36.0212C836.053 37.2479 835.969 39.7013 835.842 41.3087L828.439 41.351C826.324 41.351 825.182 41.2664 823.744 41.0126L823.786 46.2155C825.182 46.0463 825.774 46.004 828.355 46.004L835.376 45.9617C835.334 46.2578 835.249 46.6808 835.165 47.273C834.784 50.234 834.15 52.3067 833.008 54.6332C830.766 59.1593 827.297 62.501 822.01 65.2928C823.786 66.8579 824.378 67.5347 825.817 69.7766C831.146 66.3926 834.911 62.5433 837.238 58.0595C839.141 54.4217 840.029 51.2492 840.622 45.9617L850.477 45.9194C850.477 50.7839 850.054 56.5367 849.547 59.4554C848.87 63.1355 848.236 64.0661 846.417 64.0661C845.021 64.0661 843.329 63.77 840.833 63.0932C841.594 65.039 841.721 65.8427 841.806 68.5076C844.006 68.846 845.444 68.9729 847.051 68.9729C852.127 68.9729 853.608 67.2386 854.707 59.9207C855.13 57.1289 855.596 50.6147 855.723 45.8348C855.765 44.3543 855.85 43.7621 856.188 43.0007L853.777 40.8857ZM870.147 34.9214C870.316 36.0635 870.316 36.4442 870.316 38.7707C870.316 50.6147 869.343 56.0714 866.298 60.9359C865.029 62.9663 864.013 64.1084 861.941 65.8004C863.929 67.154 864.563 67.7885 866.213 69.9035C869.005 67.154 870.612 64.9967 872.05 62.078C874.25 57.7211 875.181 52.9412 875.477 44.6927C875.731 36.4019 875.731 36.4019 875.9 35.2175L870.147 34.9214ZM881.356 34.6253C881.483 35.429 881.526 36.3596 881.526 37.4171V38.6861L881.314 62.5433C881.272 64.8698 881.23 65.8004 880.933 67.0271L883.641 69.9035C884.191 69.6497 884.529 69.4805 885.46 69.1421C889.859 67.4078 892.058 66.1388 894.469 64.0661C897.261 61.5704 899.461 58.3979 901.195 54.2102C899.249 52.6874 898.699 52.1375 897.219 50.234C896.246 53.3642 895.019 55.6907 893.074 57.9749C891.255 60.1322 889.563 61.4012 886.602 62.7971L886.813 38.7284C886.855 36.6557 886.898 35.9366 887.109 34.7099L881.356 34.6253ZM912.32 46.8923C909.528 46.8923 907.286 49.1342 907.286 51.926C907.286 54.7178 909.528 56.9597 912.32 56.9597C915.112 56.9597 917.354 54.7178 917.354 51.926C917.354 49.1342 915.112 46.8923 912.32 46.8923ZM933.766 36.3173C933.766 36.5711 933.766 36.7826 933.766 36.9095C933.766 37.8401 933.639 39.2783 933.385 41.0126C932.709 46.3424 931.228 51.5876 929.409 55.5215C927.633 59.4131 925.898 61.9934 923.36 64.5314C925.391 65.6312 926.194 66.2657 928.183 68.1692C933.851 61.655 937.15 53.3219 938.927 41.1818L939.054 40.1666L939.265 38.9399L939.35 38.2208C939.392 37.8824 939.434 37.8401 939.561 37.3748L933.766 36.3173ZM946.329 37.3325C946.541 37.967 946.668 38.6438 946.921 40.3781C948.571 51.7568 952.505 61.4858 958.131 68.2115C959.738 66.3926 960.627 65.6735 962.784 64.3199C958.385 59.5823 955.424 53.8718 953.351 46.0463C952.378 42.4085 951.617 38.2631 951.574 36.3173L946.329 37.3325ZM951.997 34.7099C953.605 37.0787 954.493 38.8976 955.466 41.6048L958.681 40.5896C957.666 37.7555 956.735 35.9789 955.17 33.7793L951.997 34.7099ZM964.222 38.8976C963.292 36.3596 962.361 34.583 960.754 32.3411L957.623 33.2294C958.977 35.1752 960.034 37.2902 961.007 39.9128L964.222 38.8976ZM994.54 33.6524C993.313 35.7251 990.437 38.6438 986.672 41.5625C979.946 46.7654 972.84 50.2763 964.464 52.5605C965.945 54.464 966.41 55.1831 967.298 57.3827C975.082 54.5909 977.45 53.4911 982.4 50.5301V65.4197C982.4 67.9154 982.357 68.7614 982.146 69.9881H988.068C987.899 68.846 987.856 67.6193 987.856 65.2928V47.2307C991.494 44.5658 994.667 41.8163 997.839 38.5169C998.474 37.8401 998.685 37.6709 999.404 37.0364L994.54 33.6524ZM1026.72 52.772L1026.85 65.4197C1026.85 65.7158 1026.85 65.9273 1026.85 66.1811C1026.85 67.9154 1026.76 69.0575 1026.59 70.2419H1032.34C1032.22 69.0575 1032.13 67.4501 1032.09 65.3774L1031.88 45.7502H1036.24C1038.86 45.7502 1039.83 45.7925 1041.1 45.9194V40.8011C1039.62 41.0549 1038.94 41.0972 1036.11 41.0972H1031.84L1031.75 37.6709V37.4171C1031.75 35.6828 1031.79 34.9214 1031.92 33.8216H1026.34C1026.51 35.429 1026.51 35.429 1026.55 37.7132L1026.59 41.0972H1011.96C1008.95 41.0972 1008.23 41.0972 1006.63 40.8011V45.9617C1008.15 45.7925 1008.66 45.7925 1011.83 45.7502H1023.42C1022.02 47.9921 1019.91 50.6147 1017.75 52.7297C1013.52 56.8328 1009.46 59.6246 1004.43 61.9088C1006.29 63.5585 1006.92 64.3199 1007.94 66.308C1011.15 64.4891 1012.55 63.6008 1014.2 62.4164C1017.12 60.3014 1020.2 57.5942 1022.53 55.0562C1024.65 52.7297 1025.96 50.9531 1026.85 49.1342C1026.8 49.811 1026.72 51.9683 1026.72 52.1798V52.772ZM1067.37 43.2122H1074.48C1077.31 43.2122 1078.37 43.2545 1079.89 43.4237V38.1362C1078.28 38.39 1077.27 38.4323 1074.39 38.4323H1055.57C1052.69 38.4323 1051.68 38.39 1050.07 38.1362V43.4237C1051.59 43.2545 1052.69 43.2122 1055.48 43.2122H1061.95V60.5975H1052.39C1049.43 60.5975 1048.55 60.5552 1046.9 60.3014V65.6312C1048.42 65.462 1049.52 65.4197 1052.31 65.4197H1077.69C1080.48 65.4197 1081.58 65.462 1083.1 65.6312V60.3014C1081.45 60.5552 1080.57 60.5975 1077.61 60.5975H1067.37V43.2122ZM1090.46 40.8434C1094.4 43.043 1097.87 45.8348 1101.25 49.4303L1104.89 44.8196C1101.63 41.7317 1099.01 39.7859 1093.98 36.6557L1090.46 40.8434ZM1091.94 68.7614C1092.92 68.423 1093.04 68.3807 1094.74 68.0423C1101.29 66.6464 1106.54 64.5737 1110.85 61.6973C1116.65 57.848 1120.67 52.8566 1124.26 45.1157C1122.1 43.5929 1121.43 42.9584 1119.78 40.9703C1118.51 44.3966 1117.32 46.7231 1115.46 49.4303C1112.12 54.2525 1108.19 57.5096 1102.9 59.7938C1099.05 61.4858 1094.02 62.7125 1090.38 62.924L1091.94 68.7614ZM1134.08 39.0668C1137.16 40.0397 1141.94 42.5354 1145.37 44.8619L1148.08 40.2089C1145.03 38.3054 1140.8 36.275 1136.83 34.7522L1134.08 39.0668ZM1130.73 49.3457C1134.63 50.7839 1139.41 53.3642 1142.2 55.5215L1144.82 50.7416C1141.65 48.6689 1137.5 46.5539 1133.57 44.9888L1130.73 49.3457ZM1155.86 35.3867C1157.72 37.4171 1158.91 39.1091 1160.3 41.6894L1163.26 40.1243C1161.82 37.5017 1160.68 35.8943 1158.82 33.9062L1155.86 35.3867ZM1133.15 69.7343C1133.95 69.4805 1134.29 69.3959 1136.11 69.0152C1151.25 66.0542 1160.17 59.117 1165.42 46.3001C1163.47 44.9888 1162.67 44.312 1161.02 42.5354C1157.98 51.5453 1151.63 58.4825 1143.89 61.1897C1139.41 62.924 1134.96 63.8969 1131.66 63.9392L1133.15 69.7343ZM1168.3 37.3748C1166.99 34.9637 1165.8 33.3563 1163.9 31.4105L1161.06 32.891C1162.71 34.7099 1164.11 36.698 1165.38 39.0245L1168.3 37.3748ZM1174.34 44.3543C1175.74 44.1851 1176.75 44.1428 1179.29 44.1428H1196C1198.54 44.1428 1199.55 44.1851 1200.95 44.3543V38.7707C1199.43 39.0245 1198.45 39.0668 1195.96 39.0668H1179.34C1176.84 39.0668 1175.87 39.0245 1174.34 38.7707V44.3543ZM1170.07 65.039C1171.55 64.8698 1172.65 64.8275 1175.4 64.8275H1199.85C1202.6 64.8275 1203.7 64.8698 1205.18 65.039V59.3708C1203.57 59.6246 1202.64 59.6669 1199.77 59.6669H1175.49C1172.61 59.6669 1171.68 59.6246 1170.07 59.3708V65.039ZM1244.73 35.6405C1243.55 35.9789 1243.17 36.0212 1240.63 36.0212H1218.55C1215.63 36.0212 1214.32 35.9366 1212.71 35.6828V40.9703C1214.44 40.7588 1215.5 40.7165 1218.46 40.7165H1240.67C1239.7 42.7469 1238.39 44.4812 1236.65 46.0886C1234.92 47.7383 1233.31 48.7112 1230.48 49.9802C1232.38 51.4184 1233.01 52.0529 1234.28 53.8295C1236.27 52.7297 1237.67 51.7991 1239.36 50.3186C1241.94 48.119 1244.39 44.9465 1245.87 41.8163C1246.97 39.6167 1246.97 39.5744 1247.57 38.8553L1244.73 35.6405ZM1224.64 44.1851C1224.81 45.0734 1224.85 45.4541 1224.85 46.7231C1224.85 54.7178 1223.5 58.3556 1219.18 61.7819C1217.11 63.4316 1215.21 64.3622 1211.78 65.3774C1213.47 67.154 1214.02 67.9154 1215.12 70.1996C1220.41 68 1223.5 65.8427 1226.03 62.5856C1228.91 58.9055 1230.05 54.8447 1230.22 47.6114C1230.26 45.0311 1230.26 44.9888 1230.39 44.1851H1224.64ZM1258.06 34.6253C1258.18 35.7251 1258.22 36.275 1258.22 38.4323V50.0648C1258.22 51.5876 1258.14 52.8989 1258.01 53.8718H1263.81C1263.64 52.8143 1263.64 52.2644 1263.64 50.1494V38.4746C1263.64 36.2327 1263.64 35.852 1263.81 34.6676L1258.06 34.6253ZM1277.13 34.7099C1277.3 35.6828 1277.34 36.5711 1277.34 38.7284V44.0159C1277.34 47.3999 1277.3 49.2611 1277.13 51.08C1276.67 56.6636 1275.27 59.2439 1271.3 61.8665C1268.76 63.5585 1266.3 64.4468 1262.16 65.2505C1263.94 67.4924 1264.36 68.2115 1265.12 70.2842C1269.01 69.1421 1271.13 68.2961 1273.37 67.0271C1277.77 64.5737 1280.47 61.4012 1281.7 57.1712C1282.46 54.5063 1282.76 50.9531 1282.8 44.3543V38.6438C1282.8 36.2327 1282.84 35.7674 1283.01 34.7099H1277.13ZM1296.04 40.8434C1299.97 43.043 1303.44 45.8348 1306.83 49.4303L1310.47 44.8196C1307.21 41.7317 1304.59 39.7859 1299.55 36.6557L1296.04 40.8434ZM1297.52 68.7614C1298.49 68.423 1298.62 68.3807 1300.31 68.0423C1306.87 66.6464 1312.11 64.5737 1316.43 61.6973C1322.22 57.848 1326.24 52.8566 1329.84 45.1157C1327.68 43.5929 1327 42.9584 1325.35 40.9703C1324.09 44.3966 1322.9 46.7231 1321.04 49.4303C1317.7 54.2525 1313.76 57.5096 1308.48 59.7938C1304.63 61.4858 1299.59 62.7125 1295.96 62.924L1297.52 68.7614ZM1366.98 40.082L1368.8 39.4052C1367.65 36.6134 1366.68 34.9214 1365.03 32.7218L1361.9 33.7793C1363.26 35.5982 1364.02 36.9518 1364.99 39.0668C1364.65 39.1091 1363.93 39.1514 1362.79 39.1514L1353.53 39.2783C1352.68 39.2783 1352 39.3206 1351.5 39.3629L1351.83 38.7284C1351.92 38.5592 1351.92 38.5169 1352.13 38.1362C1352.55 37.2902 1352.93 36.4442 1353.27 35.6828C1353.65 34.8791 1353.7 34.7945 1353.99 34.4138L1348.2 33.2294C1348.07 34.583 1347.31 36.5711 1346.04 38.8553C1343.04 44.2697 1339.65 48.0767 1335.08 51.1223C1337.28 52.4759 1337.92 53.0258 1339.19 54.7601C1342.7 52.1798 1346.72 47.7806 1349.09 43.889L1361.82 43.7198C1358.43 54.7178 1351.28 62.2895 1340.2 66.5195C1341.94 68.0423 1342.7 68.9729 1343.8 70.961C1349.89 68.2961 1355.09 64.5737 1358.86 60.2591C1362.83 55.5638 1364.86 51.7991 1367.36 44.2697C1367.82 42.7892 1368.04 42.2816 1368.42 41.7317L1366.98 40.082ZM1374.3 37.5017C1373.28 35.006 1372.31 33.314 1370.57 31.0721L1367.53 32.1296C1368.92 34.0331 1370.15 36.1904 1371.17 38.6861L1374.3 37.5017ZM1396.38 48.0767C1394.13 48.0767 1393.42 48.0344 1392.15 47.8652V52.6028C1393.54 52.4336 1394.22 52.3913 1396.29 52.3913C1396.16 55.2254 1395.95 57.2135 1395.49 59.0747C1394.52 63.1355 1393.12 65.885 1390.58 68.8037C1392.32 69.6497 1393.42 70.4534 1394.56 71.807C1397.39 68.2538 1398.7 65.462 1399.76 60.8513C1400.35 58.3979 1400.61 56.156 1400.78 52.3913H1405.68V66.2234C1405.68 68.2961 1405.6 69.5651 1405.43 71.4263H1410.46C1410.25 69.6497 1410.17 68.0423 1410.17 66.1811V52.3913H1410.5C1412.62 52.3913 1413.51 52.4336 1414.73 52.6028V47.8652C1413.55 48.0344 1412.7 48.0767 1410.5 48.0767H1410.17V38.0516C1412.37 38.0516 1413 38.0939 1414.31 38.2631V33.6524C1413.04 33.8216 1411.65 33.9062 1409.79 33.9062H1397.56C1395.36 33.9062 1393.8 33.8216 1392.91 33.6524V38.2631C1394.01 38.0939 1395.07 38.0516 1396.38 38.0516V48.0767ZM1400.86 48.0767V38.0516H1405.68V48.0767H1400.86ZM1381.23 38.1785C1380.85 40.6742 1380.56 41.8586 1379.79 43.889C1378.31 48.0344 1376.75 50.6147 1374.42 52.9412C1375.31 54.6755 1375.56 55.4792 1376.07 58.1864C1377.43 56.579 1378.02 55.733 1378.74 54.2525C1378.65 56.5367 1378.65 56.7059 1378.65 58.3556V66.0965C1378.65 67.8308 1378.57 69.1844 1378.4 70.4111H1382.97V66.1811H1386.61V68.1269H1390.79C1390.71 67.1117 1390.67 66.5618 1390.67 64.8275V50.2763C1390.67 48.8381 1390.67 48.2882 1390.79 47.1884C1389.95 47.273 1389.52 47.3153 1388.25 47.3153H1383.14C1384.53 44.1005 1385.25 41.6048 1385.8 38.1785H1387.96C1389.44 38.1785 1390.45 38.2208 1391.6 38.3477V33.8216C1390.33 34.0331 1389.35 34.0754 1387.54 34.0754H1380.13C1378.53 34.0754 1377.13 33.9908 1376.03 33.8216V38.39C1377.26 38.2208 1378.15 38.1785 1379.67 38.1785H1381.23ZM1382.97 51.3761H1386.65V62.4587H1382.97V51.3761ZM1433.73 36.4019H1422.52C1420.57 36.4019 1419.47 36.3596 1417.86 36.1904C1417.99 37.1633 1418.03 37.967 1418.03 39.3206V42.2393C1418.03 43.5506 1417.95 44.4812 1417.82 45.4118H1422.43V40.505H1429.45C1429.12 42.4085 1428.48 43.6352 1427.26 44.6927C1425.69 46.0463 1423.91 46.6808 1418.84 47.6114C1420.11 49.2188 1420.61 50.0648 1421.38 51.503C1427.55 49.8956 1429.88 48.6689 1431.82 45.9617C1432.97 44.3966 1433.39 43.2968 1434.07 40.505H1437.58V46.8077C1437.58 49.2611 1438.8 49.9379 1443.2 49.9379C1447.26 49.9379 1449.17 49.7687 1450.14 49.3457C1451.37 48.7958 1451.87 47.8229 1452.21 45.4541H1454.96C1454.83 44.4812 1454.79 43.6352 1454.79 42.3239V39.3206C1454.79 37.9247 1454.83 37.121 1454.96 36.1904C1453.31 36.3596 1452.25 36.4019 1450.31 36.4019H1438.42V35.429C1438.42 34.2446 1438.46 33.4832 1438.63 32.6795H1433.47C1433.64 33.5678 1433.73 34.2446 1433.73 35.429V36.4019ZM1450.35 43.5506C1449.42 43.3391 1449.04 43.2545 1448.07 42.8738C1448.02 44.1005 1447.94 44.9042 1447.77 45.2849C1447.47 45.8348 1446.63 46.0463 1444.56 46.0463C1442.23 46.0463 1441.89 45.9194 1441.89 44.9888V40.505H1450.35V43.5506ZM1435.63 53.2796C1435.72 52.6451 1435.72 52.349 1435.76 51.7145C1435.93 49.3457 1435.93 49.0919 1436.14 48.2882H1431.1C1431.23 49.1765 1431.27 49.811 1431.27 50.6993C1431.27 51.4607 1431.23 52.1798 1431.1 53.2796H1424.34C1422.22 53.2796 1420.95 53.195 1419.68 53.0258V57.6788C1420.91 57.5096 1422.14 57.4673 1424.42 57.4673H1430.26C1429.5 59.7515 1428.44 61.4012 1426.83 62.7971C1424.76 64.616 1422.26 65.8004 1417.1 67.4924C1418.58 69.1844 1419.05 69.9035 1419.9 71.6801C1424.29 70.115 1427.51 68.2961 1430.05 65.9273C1432.54 63.5585 1433.94 61.1474 1434.91 57.4673H1441.17L1441.05 66.6041V66.9002C1441.05 69.9881 1442.31 70.7918 1447.47 70.7918C1455.38 70.7918 1455.64 70.4957 1456.32 60.4706C1454.16 60.0053 1453.52 59.7938 1451.87 59.0324C1451.83 62.4164 1451.62 64.6583 1451.32 65.6312C1451.03 66.4772 1450.56 66.6041 1447.43 66.6041C1445.91 66.6041 1445.53 66.3503 1445.57 65.2505L1445.7 56.9174C1445.74 54.9293 1445.78 54.2102 1445.87 53.1104C1444.56 53.2373 1443.63 53.2796 1441.43 53.2796H1435.63ZM1475.27 57.848H1467.31C1464.82 57.848 1464.01 57.8057 1462.79 57.6788V62.078C1464.14 61.9088 1465.11 61.8665 1467.23 61.8665H1475.27V65.885H1464.06C1461.48 65.885 1460.16 65.8427 1458.81 65.6312V70.2419C1460.25 70.0727 1461.94 69.9881 1464.52 69.9881H1491.21C1493.84 69.9881 1495.53 70.0727 1497.01 70.2419V65.6312C1495.7 65.8004 1494.39 65.885 1491.76 65.885H1479.92V61.8665H1488.68C1490.71 61.8665 1491.68 61.9088 1493.03 62.078V57.6788C1491.72 57.8057 1490.87 57.848 1488.76 57.848H1479.92V53.9141C1485.12 53.5757 1485.12 53.5757 1487.83 53.4065C1488.68 54.2948 1489.14 54.8447 1490.49 56.4944L1493.92 53.5757C1489.82 49.4303 1489.14 48.7958 1486.39 46.5116H1487.36C1489.86 46.5116 1490.71 46.5539 1491.93 46.7231V44.5235H1496.25C1496.12 43.466 1496.04 42.4085 1496.04 41.0549V38.7284C1496.04 36.9518 1496.08 36.4019 1496.16 35.429C1494.85 35.5559 1493.45 35.5982 1490.83 35.5982H1479.88V35.006C1479.88 33.9485 1479.96 33.0602 1480.09 32.2565H1474.93C1475.05 33.1025 1475.14 33.9908 1475.14 35.006V35.5982H1464.82C1462.41 35.5982 1461.1 35.5559 1459.57 35.429C1459.7 36.4865 1459.74 37.2902 1459.74 38.5592V40.7165C1459.74 41.7317 1459.7 42.7046 1459.66 43.2545C1459.57 44.0159 1459.57 44.0159 1459.57 44.6927H1463.8V46.7231C1465.03 46.5539 1466.04 46.5116 1468.88 46.5116H1470.91C1470.19 47.9498 1469.39 49.2611 1468.41 50.6147C1466.51 50.657 1465.54 50.657 1464.78 50.657C1463.46 50.657 1462.79 50.6147 1461.69 50.5301L1462.2 54.8024C1462.62 54.7601 1463.89 54.6755 1465.92 54.5909C1472.52 54.2948 1472.52 54.2948 1475.27 54.1256V57.848ZM1491.64 42.4931C1490.71 42.5777 1489.65 42.62 1487.24 42.62H1468.37C1466.13 42.62 1465.11 42.5777 1464.14 42.4931V39.659H1491.64V42.4931ZM1484.91 46.5116L1482.33 48.0344C1483.43 48.9227 1483.73 49.2188 1484.57 49.9802C1481.23 50.1917 1481.23 50.1917 1473.32 50.4878C1474.38 49.0073 1474.8 48.2882 1475.77 46.5116H1484.91Z" fill="#252122"/>
<path d="M54.781 101.166C54.18 104.983 53.578 110.7 53.578 110.7C53.578 110.7 40.642 72.6957 24.91 65.6117C25.071 65.6117 31.579 80.7567 31.997 90.5787L0 29.9697C0 29.9697 38.197 32.9057 54.781 101.166Z" fill="#4A5AA7"/>
<path d="M57.21 120.5C57.21 120.5 58.725 125.135 59.11 127.299C59.11 127.299 75.006 69.633 103.946 51.8L93.622 87.956L93.36 92.434C98.116 84.653 135.308 0 135.308 0C135.308 0 66.893 21.033 57.21 120.5Z" fill="#4A5AA7"/>
<path d="M163.89 99H173.865V96.06H167.04V84.3H163.89V99ZM180.059 92.805L181.802 87.975H181.886L183.629 92.805H180.059ZM174.389 99H177.749L179.009 95.64H184.679L185.939 99H189.299L183.629 84.3H180.059L174.389 99ZM191.288 99H197.903C201.032 99 202.943 97.089 202.943 94.8C202.943 93.372 202.25 92.511 201.578 91.944C201.179 91.629 200.717 91.377 200.213 91.23C200.57 91.083 200.906 90.852 201.2 90.579C201.704 90.096 202.208 89.361 202.208 88.185C202.208 86.085 200.423 84.3 197.483 84.3H191.288V99ZM194.438 96.27V92.7H197.693C198.953 92.7 199.688 93.414 199.688 94.485C199.688 95.556 198.953 96.27 197.693 96.27H194.438ZM194.438 89.97V87.03H197.273C198.344 87.03 198.953 87.66 198.953 88.5C198.953 89.34 198.344 89.97 197.273 89.97H194.438ZM208.097 91.65C208.097 89.025 210.197 86.925 212.822 86.925C215.447 86.925 217.547 89.025 217.547 91.65C217.547 94.275 215.447 96.375 212.822 96.375C210.197 96.375 208.097 94.275 208.097 91.65ZM204.842 91.65C204.842 95.85 208.286 99.315 212.822 99.315C217.358 99.315 220.802 95.85 220.802 91.65C220.802 87.45 217.358 83.985 212.822 83.985C208.286 83.985 204.842 87.45 204.842 91.65ZM223.629 99H226.779V94.17H229.719L232.344 99H235.809L232.764 93.54C233.247 93.33 233.667 93.036 234.024 92.658C234.675 92.007 235.284 90.915 235.284 89.235C235.284 86.295 233.289 84.3 230.139 84.3H223.629V99ZM226.779 91.23V87.24H230.034C231.21 87.24 232.029 88.059 232.029 89.235C232.029 90.411 231.21 91.23 230.034 91.23H226.779ZM242.321 92.805L244.064 87.975H244.148L245.891 92.805H242.321ZM236.651 99H240.011L241.271 95.64H246.941L248.201 99H251.561L245.891 84.3H242.321L236.651 99ZM255.029 99H258.179V87.24H262.379V84.3H250.829V87.24H255.029V99ZM266.586 91.65C266.586 89.025 268.686 86.925 271.311 86.925C273.936 86.925 276.036 89.025 276.036 91.65C276.036 94.275 273.936 96.375 271.311 96.375C268.686 96.375 266.586 94.275 266.586 91.65ZM263.331 91.65C263.331 95.85 266.775 99.315 271.311 99.315C275.847 99.315 279.291 95.85 279.291 91.65C279.291 87.45 275.847 83.985 271.311 83.985C266.775 83.985 263.331 87.45 263.331 91.65ZM282.118 99H285.268V94.17H288.208L290.833 99H294.298L291.253 93.54C291.736 93.33 292.156 93.036 292.513 92.658C293.164 92.007 293.773 90.915 293.773 89.235C293.773 86.295 291.778 84.3 288.628 84.3H282.118V99ZM285.268 91.23V87.24H288.523C289.699 87.24 290.518 88.059 290.518 89.235C290.518 90.411 289.699 91.23 288.523 91.23H285.268ZM300.084 99H303.234V93.75L308.799 84.3H305.124L301.701 90.6H301.617L298.194 84.3H294.519L300.084 93.75V99ZM316.666 91.65C316.666 89.025 318.766 86.925 321.391 86.925C324.016 86.925 326.116 89.025 326.116 91.65C326.116 94.275 324.016 96.375 321.391 96.375C318.766 96.375 316.666 94.275 316.666 91.65ZM313.411 91.65C313.411 95.85 316.855 99.315 321.391 99.315C325.927 99.315 329.371 95.85 329.371 91.65C329.371 87.45 325.927 83.985 321.391 83.985C316.855 83.985 313.411 87.45 313.411 91.65ZM332.198 99H335.348V93.645H341.333V90.705H335.348V87.24H343.013V84.3H332.198V99ZM349.404 99H352.554V89.34L357.279 95.22L362.004 89.34V99H365.154V84.3H362.319L357.279 90.6L352.239 84.3H349.404V99ZM368.927 99H380.057V96.06H372.077V92.91H378.167V90.075H372.077V87.24H379.847V84.3H368.927V99ZM382.893 99H388.248C392.763 99 396.018 95.745 396.018 91.65C396.018 87.555 392.763 84.3 388.248 84.3H382.893V99ZM386.043 96.06V87.24H388.248C390.873 87.24 392.763 89.13 392.763 91.65C392.763 94.17 390.873 96.06 388.248 96.06H386.043ZM398.848 99H401.998V84.3H398.848V99ZM417.015 94.275C416.721 94.674 416.364 95.01 415.944 95.325C415.209 95.85 414.18 96.375 412.815 96.375C410.19 96.375 408.09 94.275 408.09 91.65C408.09 89.025 410.19 86.925 412.815 86.925C414.138 86.925 415.146 87.45 415.839 87.975C416.238 88.29 416.595 88.626 416.91 89.025L419.01 86.925C418.569 86.379 418.065 85.896 417.456 85.455C416.427 84.72 414.852 83.985 412.815 83.985C408.279 83.985 404.835 87.45 404.835 91.65C404.835 95.85 408.279 99.315 412.815 99.315C414.915 99.315 416.469 98.58 417.54 97.845C418.149 97.404 418.674 96.921 419.115 96.375L417.015 94.275ZM425.312 92.805L427.055 87.975H427.139L428.882 92.805H425.312ZM419.642 99H423.002L424.262 95.64H429.932L431.192 99H434.552L428.882 84.3H425.312L419.642 99ZM436.541 99H446.516V96.06H439.691V84.3H436.541V99ZM453.235 99H459.85C462.979 99 464.89 97.089 464.89 94.8C464.89 93.372 464.197 92.511 463.525 91.944C463.126 91.629 462.664 91.377 462.16 91.23C462.517 91.083 462.853 90.852 463.147 90.579C463.651 90.096 464.155 89.361 464.155 88.185C464.155 86.085 462.37 84.3 459.43 84.3H453.235V99ZM456.385 96.27V92.7H459.64C460.9 92.7 461.635 93.414 461.635 94.485C461.635 95.556 460.9 96.27 459.64 96.27H456.385ZM456.385 89.97V87.03H459.22C460.291 87.03 460.9 87.66 460.9 88.5C460.9 89.34 460.291 89.97 459.22 89.97H456.385ZM467.734 99H470.884V84.3H467.734V99ZM476.975 91.65C476.975 89.025 479.075 86.925 481.7 86.925C484.325 86.925 486.425 89.025 486.425 91.65C486.425 94.275 484.325 96.375 481.7 96.375C479.075 96.375 476.975 94.275 476.975 91.65ZM473.72 91.65C473.72 95.85 477.164 99.315 481.7 99.315C486.236 99.315 489.68 95.85 489.68 91.65C489.68 87.45 486.236 83.985 481.7 83.985C477.164 83.985 473.72 87.45 473.72 91.65ZM492.507 99H503.637V96.06H495.657V92.91H501.747V90.075H495.657V87.24H503.427V84.3H492.507V99ZM506.473 99H509.623V89.865L516.763 99H519.598V84.3H516.448V93.435L509.308 84.3H506.473V99ZM530.931 93.435H533.661V95.22C533.43 95.451 533.136 95.64 532.821 95.808C532.254 96.123 531.477 96.375 530.406 96.375C527.781 96.375 525.681 94.275 525.681 91.65C525.681 89.025 527.781 86.925 530.406 86.925C531.729 86.925 532.737 87.45 533.43 87.975C533.829 88.29 534.186 88.626 534.501 89.025L536.601 86.925C536.16 86.379 535.656 85.896 535.047 85.455C534.018 84.72 532.443 83.985 530.406 83.985C525.87 83.985 522.426 87.45 522.426 91.65C522.426 95.85 525.87 99.315 530.406 99.315C532.506 99.315 534.102 98.643 535.173 97.908C535.803 97.488 536.349 97.005 536.811 96.48V90.915H530.931V93.435ZM540.065 99H543.215V84.3H540.065V99ZM546.996 99H550.146V89.865L557.286 99H560.121V84.3H556.971V93.435L549.831 84.3H546.996V99ZM563.895 99H575.025V96.06H567.045V92.91H573.135V90.075H567.045V87.24H574.815V84.3H563.895V99ZM577.861 99H588.991V96.06H581.011V92.91H587.101V90.075H581.011V87.24H588.781V84.3H577.861V99ZM591.827 99H594.977V94.17H597.917L600.542 99H604.007L600.962 93.54C601.445 93.33 601.865 93.036 602.222 92.658C602.873 92.007 603.482 90.915 603.482 89.235C603.482 86.295 601.487 84.3 598.337 84.3H591.827V99ZM594.977 91.23V87.24H598.232C599.408 87.24 600.227 88.059 600.227 89.235C600.227 90.411 599.408 91.23 598.232 91.23H594.977ZM606.633 99H609.783V84.3H606.633V99ZM613.565 99H616.715V89.865L623.855 99H626.69V84.3H623.54V93.435L616.4 84.3H613.565V99ZM638.023 93.435H640.753V95.22C640.522 95.451 640.228 95.64 639.913 95.808C639.346 96.123 638.569 96.375 637.498 96.375C634.873 96.375 632.773 94.275 632.773 91.65C632.773 89.025 634.873 86.925 637.498 86.925C638.821 86.925 639.829 87.45 640.522 87.975C640.921 88.29 641.278 88.626 641.593 89.025L643.693 86.925C643.252 86.379 642.748 85.896 642.139 85.455C641.11 84.72 639.535 83.985 637.498 83.985C632.962 83.985 629.518 87.45 629.518 91.65C629.518 95.85 632.962 99.315 637.498 99.315C639.598 99.315 641.194 98.643 642.265 97.908C642.895 97.488 643.441 97.005 643.903 96.48V90.915H638.023V93.435ZM644.952 100.785L646.632 101.73L649.572 97.215L647.157 95.85L644.952 100.785ZM656.611 99H661.966C666.481 99 669.736 95.745 669.736 91.65C669.736 87.555 666.481 84.3 661.966 84.3H656.611V99ZM659.761 96.06V87.24H661.966C664.591 87.24 666.481 89.13 666.481 91.65C666.481 94.17 664.591 96.06 661.966 96.06H659.761ZM672.566 99H683.696V96.06H675.716V92.91H681.806V90.075H675.716V87.24H683.486V84.3H672.566V99ZM686.532 99H689.682V94.17H692.727C695.856 94.17 697.977 92.091 697.977 89.235C697.977 86.379 695.856 84.3 692.727 84.3H686.532V99ZM689.682 91.23V87.24H692.622C693.882 87.24 694.722 88.059 694.722 89.235C694.722 90.411 693.882 91.23 692.622 91.23H689.682ZM703.439 92.805L705.182 87.975H705.266L707.009 92.805H703.439ZM697.769 99H701.129L702.389 95.64H708.059L709.319 99H712.679L707.009 84.3H703.439L697.769 99ZM714.668 99H717.818V94.17H720.758L723.383 99H726.848L723.803 93.54C724.286 93.33 724.706 93.036 725.063 92.658C725.714 92.007 726.323 90.915 726.323 89.235C726.323 86.295 724.328 84.3 721.178 84.3H714.668V99ZM717.818 91.23V87.24H721.073C722.249 87.24 723.068 88.059 723.068 89.235C723.068 90.411 722.249 91.23 721.073 91.23H717.818ZM731.795 99H734.945V87.24H739.145V84.3H727.595V87.24H731.795V99ZM741.452 99H744.602V89.34L749.327 95.22L754.052 89.34V99H757.202V84.3H754.367L749.327 90.6L744.287 84.3H741.452V99ZM760.975 99H772.105V96.06H764.125V92.91H770.215V90.075H764.125V87.24H771.895V84.3H760.975V99ZM774.941 99H778.091V89.865L785.231 99H788.066V84.3H784.916V93.435L777.776 84.3H774.941V99ZM794.569 99H797.719V87.24H801.919V84.3H790.369V87.24H794.569V99ZM810.309 91.65C810.309 89.025 812.409 86.925 815.034 86.925C817.659 86.925 819.759 89.025 819.759 91.65C819.759 94.275 817.659 96.375 815.034 96.375C812.409 96.375 810.309 94.275 810.309 91.65ZM807.054 91.65C807.054 95.85 810.498 99.315 815.034 99.315C819.57 99.315 823.014 95.85 823.014 91.65C823.014 87.45 819.57 83.985 815.034 83.985C810.498 83.985 807.054 87.45 807.054 91.65ZM825.841 99H828.991V93.645H834.976V90.705H828.991V87.24H836.656V84.3H825.841V99ZM843.047 99H853.022V96.06H846.197V84.3H843.047V99ZM855.331 99H858.481V84.3H855.331V99ZM862.263 99H865.413V93.645H871.398V90.705H865.413V87.24H873.078V84.3H862.263V99ZM875.696 99H886.826V96.06H878.846V92.91H884.936V90.075H878.846V87.24H886.616V84.3H875.696V99ZM892.601 97.005C892.979 97.446 893.441 97.824 894.008 98.16C894.953 98.748 896.36 99.315 898.271 99.315C901.736 99.315 903.836 97.215 903.836 94.8C903.836 89.676 896.486 90.789 896.486 88.29C896.486 87.45 897.095 86.82 898.691 86.82C899.531 86.82 900.203 87.135 900.686 87.45C900.959 87.639 901.19 87.849 901.421 88.08L903.521 85.98C903.164 85.623 902.765 85.287 902.282 84.993C901.463 84.489 900.203 83.985 898.586 83.985C895.226 83.985 893.231 85.98 893.231 88.29C893.231 93.414 900.581 92.301 900.581 94.8C900.581 95.745 899.846 96.48 898.166 96.48C897.053 96.48 896.192 96.102 895.604 95.703C895.247 95.472 894.953 95.199 894.701 94.905L892.601 97.005ZM917.59 94.275C917.296 94.674 916.939 95.01 916.519 95.325C915.784 95.85 914.755 96.375 913.39 96.375C910.765 96.375 908.665 94.275 908.665 91.65C908.665 89.025 910.765 86.925 913.39 86.925C914.713 86.925 915.721 87.45 916.414 87.975C916.813 88.29 917.17 88.626 917.485 89.025L919.585 86.925C919.144 86.379 918.64 85.896 918.031 85.455C917.002 84.72 915.427 83.985 913.39 83.985C908.854 83.985 905.41 87.45 905.41 91.65C905.41 95.85 908.854 99.315 913.39 99.315C915.49 99.315 917.044 98.58 918.115 97.845C918.724 97.404 919.249 96.921 919.69 96.375L917.59 94.275ZM922.002 99H925.152V84.3H922.002V99ZM928.934 99H940.064V96.06H932.084V92.91H938.174V90.075H932.084V87.24H939.854V84.3H928.934V99ZM942.9 99H946.05V89.865L953.19 99H956.025V84.3H952.875V93.435L945.735 84.3H942.9V99ZM971.033 94.275C970.739 94.674 970.382 95.01 969.962 95.325C969.227 95.85 968.198 96.375 966.833 96.375C964.208 96.375 962.108 94.275 962.108 91.65C962.108 89.025 964.208 86.925 966.833 86.925C968.156 86.925 969.164 87.45 969.857 87.975C970.256 88.29 970.613 88.626 970.928 89.025L973.028 86.925C972.587 86.379 972.083 85.896 971.474 85.455C970.445 84.72 968.87 83.985 966.833 83.985C962.297 83.985 958.853 87.45 958.853 91.65C958.853 95.85 962.297 99.315 966.833 99.315C968.933 99.315 970.487 98.58 971.558 97.845C972.167 97.404 972.692 96.921 973.133 96.375L971.033 94.275ZM975.446 99H986.576V96.06H978.596V92.91H984.686V90.075H978.596V87.24H986.366V84.3H975.446V99ZM987.941 97.005C988.319 97.446 988.781 97.824 989.348 98.16C990.293 98.748 991.7 99.315 993.611 99.315C997.076 99.315 999.176 97.215 999.176 94.8C999.176 89.676 991.826 90.789 991.826 88.29C991.826 87.45 992.435 86.82 994.031 86.82C994.871 86.82 995.543 87.135 996.026 87.45C996.299 87.639 996.53 87.849 996.761 88.08L998.861 85.98C998.504 85.623 998.105 85.287 997.622 84.993C996.803 84.489 995.543 83.985 993.926 83.985C990.566 83.985 988.571 85.98 988.571 88.29C988.571 93.414 995.921 92.301 995.921 94.8C995.921 95.745 995.186 96.48 993.506 96.48C992.393 96.48 991.532 96.102 990.944 95.703C990.587 95.472 990.293 95.199 990.041 94.905L987.941 97.005ZM999.491 100.785L1001.17 101.73L1004.11 97.215L1001.7 95.85L999.491 100.785ZM1009.68 97.005C1010.06 97.446 1010.52 97.824 1011.09 98.16C1012.03 98.748 1013.44 99.315 1015.35 99.315C1018.81 99.315 1020.91 97.215 1020.91 94.8C1020.91 89.676 1013.56 90.789 1013.56 88.29C1013.56 87.45 1014.17 86.82 1015.77 86.82C1016.61 86.82 1017.28 87.135 1017.76 87.45C1018.04 87.639 1018.27 87.849 1018.5 88.08L1020.6 85.98C1020.24 85.623 1019.84 85.287 1019.36 84.993C1018.54 84.489 1017.28 83.985 1015.66 83.985C1012.3 83.985 1010.31 85.98 1010.31 88.29C1010.31 93.414 1017.66 92.301 1017.66 94.8C1017.66 95.745 1016.92 96.48 1015.24 96.48C1014.13 96.48 1013.27 96.102 1012.68 95.703C1012.33 95.472 1012.03 95.199 1011.78 94.905L1009.68 97.005ZM1034.67 94.275C1034.37 94.674 1034.02 95.01 1033.6 95.325C1032.86 95.85 1031.83 96.375 1030.47 96.375C1027.84 96.375 1025.74 94.275 1025.74 91.65C1025.74 89.025 1027.84 86.925 1030.47 86.925C1031.79 86.925 1032.8 87.45 1033.49 87.975C1033.89 88.29 1034.25 88.626 1034.56 89.025L1036.66 86.925C1036.22 86.379 1035.72 85.896 1035.11 85.455C1034.08 84.72 1032.51 83.985 1030.47 83.985C1025.93 83.985 1022.49 87.45 1022.49 91.65C1022.49 95.85 1025.93 99.315 1030.47 99.315C1032.57 99.315 1034.12 98.58 1035.19 97.845C1035.8 97.404 1036.33 96.921 1036.77 96.375L1034.67 94.275ZM1039.08 99H1042.23V93.015H1048.53V99H1051.68V84.3H1048.53V90.075H1042.23V84.3H1039.08V99ZM1057.78 91.65C1057.78 89.025 1059.88 86.925 1062.5 86.925C1065.13 86.925 1067.23 89.025 1067.23 91.65C1067.23 94.275 1065.13 96.375 1062.5 96.375C1059.88 96.375 1057.78 94.275 1057.78 91.65ZM1054.52 91.65C1054.52 95.85 1057.97 99.315 1062.5 99.315C1067.04 99.315 1070.48 95.85 1070.48 91.65C1070.48 87.45 1067.04 83.985 1062.5 83.985C1057.97 83.985 1054.52 87.45 1054.52 91.65ZM1075.62 91.65C1075.62 89.025 1077.72 86.925 1080.34 86.925C1082.97 86.925 1085.07 89.025 1085.07 91.65C1085.07 94.275 1082.97 96.375 1080.34 96.375C1077.72 96.375 1075.62 94.275 1075.62 91.65ZM1072.36 91.65C1072.36 95.85 1075.81 99.315 1080.34 99.315C1084.88 99.315 1088.32 95.85 1088.32 91.65C1088.32 87.45 1084.88 83.985 1080.34 83.985C1075.81 83.985 1072.36 87.45 1072.36 91.65ZM1091.15 99H1101.13V96.06H1094.3V84.3H1091.15V99ZM1110.15 91.65C1110.15 89.025 1112.25 86.925 1114.88 86.925C1117.5 86.925 1119.6 89.025 1119.6 91.65C1119.6 94.275 1117.5 96.375 1114.88 96.375C1112.25 96.375 1110.15 94.275 1110.15 91.65ZM1106.9 91.65C1106.9 95.85 1110.34 99.315 1114.88 99.315C1119.42 99.315 1122.86 95.85 1122.86 91.65C1122.86 87.45 1119.42 83.985 1114.88 83.985C1110.34 83.985 1106.9 87.45 1106.9 91.65ZM1125.69 99H1128.84V93.645H1134.82V90.705H1128.84V87.24H1136.5V84.3H1125.69V99ZM1146.14 92.805L1147.88 87.975H1147.97L1149.71 92.805H1146.14ZM1140.47 99H1143.83L1145.09 95.64H1150.76L1152.02 99H1155.38L1149.71 84.3H1146.14L1140.47 99ZM1164.52 93.435H1167.25V95.22C1167.02 95.451 1166.73 95.64 1166.41 95.808C1165.84 96.123 1165.07 96.375 1164 96.375C1161.37 96.375 1159.27 94.275 1159.27 91.65C1159.27 89.025 1161.37 86.925 1164 86.925C1165.32 86.925 1166.33 87.45 1167.02 87.975C1167.42 88.29 1167.78 88.626 1168.09 89.025L1170.19 86.925C1169.75 86.379 1169.25 85.896 1168.64 85.455C1167.61 84.72 1166.03 83.985 1164 83.985C1159.46 83.985 1156.02 87.45 1156.02 91.65C1156.02 95.85 1159.46 99.315 1164 99.315C1166.1 99.315 1167.69 98.643 1168.76 97.908C1169.39 97.488 1169.94 97.005 1170.4 96.48V90.915H1164.52V93.435ZM1173.65 99H1176.8V94.17H1179.74L1182.37 99H1185.83L1182.79 93.54C1183.27 93.33 1183.69 93.036 1184.05 92.658C1184.7 92.007 1185.31 90.915 1185.31 89.235C1185.31 86.295 1183.31 84.3 1180.16 84.3H1173.65V99ZM1176.8 91.23V87.24H1180.06C1181.23 87.24 1182.05 88.059 1182.05 89.235C1182.05 90.411 1181.23 91.23 1180.06 91.23H1176.8ZM1188.46 99H1191.61V84.3H1188.46V99ZM1206.63 94.275C1206.33 94.674 1205.98 95.01 1205.56 95.325C1204.82 95.85 1203.79 96.375 1202.43 96.375C1199.8 96.375 1197.7 94.275 1197.7 91.65C1197.7 89.025 1199.8 86.925 1202.43 86.925C1203.75 86.925 1204.76 87.45 1205.45 87.975C1205.85 88.29 1206.21 88.626 1206.52 89.025L1208.62 86.925C1208.18 86.379 1207.68 85.896 1207.07 85.455C1206.04 84.72 1204.46 83.985 1202.43 83.985C1197.89 83.985 1194.45 87.45 1194.45 91.65C1194.45 95.85 1197.89 99.315 1202.43 99.315C1204.53 99.315 1206.08 98.58 1207.15 97.845C1207.76 97.404 1208.29 96.921 1208.73 96.375L1206.63 94.275ZM1210.93 92.91C1210.93 96.69 1213.56 99.315 1217.34 99.315C1221.12 99.315 1223.74 96.69 1223.74 92.91V84.3H1220.59V92.91C1220.59 95.01 1219.25 96.375 1217.34 96.375C1215.43 96.375 1214.08 95.01 1214.08 92.91V84.3H1210.93V92.91ZM1227.43 99H1237.4V96.06H1230.58V84.3H1227.43V99ZM1241.19 99H1244.34V87.24H1248.54V84.3H1236.99V87.24H1241.19V99ZM1250.74 92.91C1250.74 96.69 1253.37 99.315 1257.15 99.315C1260.93 99.315 1263.55 96.69 1263.55 92.91V84.3H1260.4V92.91C1260.4 95.01 1259.06 96.375 1257.15 96.375C1255.23 96.375 1253.89 95.01 1253.89 92.91V84.3H1250.74V92.91ZM1267.23 99H1270.38V94.17H1273.32L1275.95 99H1279.41L1276.37 93.54C1276.85 93.33 1277.27 93.036 1277.63 92.658C1278.28 92.007 1278.89 90.915 1278.89 89.235C1278.89 86.295 1276.89 84.3 1273.74 84.3H1267.23V99ZM1270.38 91.23V87.24H1273.64C1274.81 87.24 1275.63 88.059 1275.63 89.235C1275.63 90.411 1274.81 91.23 1273.64 91.23H1270.38ZM1282.04 99H1293.17V96.06H1285.19V92.91H1291.28V90.075H1285.19V87.24H1292.96V84.3H1282.04V99ZM1293.8 100.785L1295.48 101.73L1298.42 97.215L1296 95.85L1293.8 100.785ZM1305.46 99H1308.61V89.34L1313.33 95.22L1318.06 89.34V99H1321.21V84.3H1318.37L1313.33 90.6L1308.29 84.3H1305.46V99ZM1324.98 99H1336.11V96.06H1328.13V92.91H1334.22V90.075H1328.13V87.24H1335.9V84.3H1324.98V99ZM1338.95 99H1342.1V84.3H1338.95V99ZM1343.78 97.425C1344.05 97.782 1344.39 98.097 1344.79 98.37C1345.48 98.853 1346.55 99.315 1348.08 99.315C1351.13 99.315 1353.23 97.194 1353.23 94.065V84.3H1350.08V94.065C1350.08 95.556 1349.24 96.375 1347.98 96.375C1347.33 96.375 1346.8 96.123 1346.45 95.85C1346.21 95.703 1346.03 95.514 1345.88 95.325L1343.78 97.425ZM1356.91 99H1360.06V84.3H1356.91V99ZM1368.15 92.91C1368.15 96.69 1370.77 99.315 1374.55 99.315C1378.33 99.315 1380.96 96.69 1380.96 92.91V84.3H1377.81V92.91C1377.81 95.01 1376.46 96.375 1374.55 96.375C1372.64 96.375 1371.3 95.01 1371.3 92.91V84.3H1368.15V92.91ZM1384.64 99H1387.79V89.865L1394.93 99H1397.76V84.3H1394.61V93.435L1387.47 84.3H1384.64V99ZM1401.54 99H1404.69V84.3H1401.54V99ZM1412.35 99H1415.92L1421.38 84.3H1418.02L1414.18 95.115H1414.1L1410.25 84.3H1406.89L1412.35 99ZM1423.58 99H1434.71V96.06H1426.73V92.91H1432.82V90.075H1426.73V87.24H1434.5V84.3H1423.58V99ZM1437.55 99H1440.7V94.17H1443.64L1446.26 99H1449.73L1446.68 93.54C1447.17 93.33 1447.59 93.036 1447.94 92.658C1448.59 92.007 1449.2 90.915 1449.2 89.235C1449.2 86.295 1447.21 84.3 1444.06 84.3H1437.55V99ZM1440.7 91.23V87.24H1443.95C1445.13 87.24 1445.95 88.059 1445.95 89.235C1445.95 90.411 1445.13 91.23 1443.95 91.23H1440.7ZM1450.88 97.005C1451.26 97.446 1451.72 97.824 1452.29 98.16C1453.24 98.748 1454.64 99.315 1456.55 99.315C1460.02 99.315 1462.12 97.215 1462.12 94.8C1462.12 89.676 1454.77 90.789 1454.77 88.29C1454.77 87.45 1455.38 86.82 1456.97 86.82C1457.81 86.82 1458.49 87.135 1458.97 87.45C1459.24 87.639 1459.47 87.849 1459.7 88.08L1461.8 85.98C1461.45 85.623 1461.05 85.287 1460.57 84.993C1459.75 84.489 1458.49 83.985 1456.87 83.985C1453.51 83.985 1451.51 85.98 1451.51 88.29C1451.51 93.414 1458.86 92.301 1458.86 94.8C1458.86 95.745 1458.13 96.48 1456.45 96.48C1455.34 96.48 1454.48 96.102 1453.89 95.703C1453.53 95.472 1453.24 95.199 1452.98 94.905L1450.88 97.005ZM1464.64 99H1467.79V84.3H1464.64V99ZM1474.3 99H1477.45V87.24H1481.65V84.3H1470.1V87.24H1474.3V99ZM1487.53 99H1490.68V93.75L1496.24 84.3H1492.57L1489.14 90.6H1489.06L1485.64 84.3H1481.96L1487.53 93.75V99Z" fill="#252122"/>
</svg>
